{
.appVersion = "3058";
classes = (
{
automatic = 1;
code = "A Aacute Abreve Acircumflex Adieresis Adotbelow Agrave Amacron Aogonek Aring Aringacute Atilde AE AEacute B C Cacute Ccaron Ccedilla Ccircumflex Cdotaccent D Eth Dcaron Dcroat E Eacute Ebreve Ecaron Ecircumflex Edieresis Edotaccent Edotbelow Egrave Emacron Eogonek Etilde F G Gbreve Gcaron Gcircumflex Gcommaaccent Gdotaccent H Hbar Hcircumflex I IJ Iacute Ibreve Icircumflex Idieresis Idotaccent Idotbelow Igrave Imacron Iogonek Itilde J Jacute Jcircumflex K Kcommaaccent L Lacute Lcaron Lcommaaccent Ldot Lslash M N Nacute Ncaron Ncommaaccent Nhookleft Ntilde Eng O Oacute Obreve Ocircumflex Odieresis Odotbelow Ograve Ohungarumlaut Omacron Oogonek Oslash Oslashacute Otilde OE P Thorn Q R Racute Rcaron Rcommaaccent S Sacute Scaron Scedilla Scircumflex Scommaaccent Germandbls Schwa T Tbar Tcaron Tcedilla Tcommaaccent U Uacute Ubreve Ucircumflex Udieresis Udotbelow Ugrave Uhungarumlaut Umacron Uogonek Uring Utilde V W Wacute Wcircumflex Wdieresis Wgrave X Y Yacute Ycircumflex Ydieresis Ygrave Ymacron Ytilde Z Zacute Zcaron Zdotaccent";
name = Uppercase;
}
);
copyright = "Copyright 2020 The Climate Crisis Project Authors (https://github.com/dancoull/ClimateCrisis)";
customParameters = (
{
name = "Axis Mappings";
value = {
YEAR = {
1979 = 1979;
1990 = 1994;
2000 = 1992;
2010 = 2012;
2019 = 2019;
2030 = 2028;
2040 = 2040;
2050 = 2050;
};
wdth = {
0 = 0;
};
wght = {
0 = 0;
};
};
},
{
name = "Use Typo Metrics";
value = 1;
},
{
name = "Variable Font Origin";
value = "F6D8640C-383C-48A8-B63C-DDE9F10207CE";
},
{
name = license;
value = "This Font Software is licensed under the SIL Open Font License, Version 1.1. This license is available with a FAQ at: https://scripts.sil.org/OFL";
},
{
name = licenseURL;
value = "https://scripts.sil.org/OFL";
},
{
name = Axes;
value = (
{
Name = Year;
Tag = YEAR;
},
{
Hidden = 1;
Name = Weight;
Tag = wght;
},
{
Hidden = 1;
Name = Width;
Tag = wdth;
}
);
}
);

glyphs = (
{
color = 6;
glyphname = A;
lastChange = "2021-04-28 07:29:49 +0000";
layers = (
{
anchors = (
{
name = bottom;
position = "{577, 0}";
},
{
name = ogonek;
position = "{862, 115}";
},
{
name = top;
position = "{577, 750}";
}
);
background = {
paths = (
{
closed = 1;
nodes = (
"157 115 LINE",
"393 115 LINE",
"394 118 LINE",
"396 130 OFFCURVE",
"400 141 OFFCURVE",
"405 152 CURVE",
"404 163 OFFCURVE",
"404 175 OFFCURVE",
"406 187 CURVE",
"462 517 LINE",
"471 573 OFFCURVE",
"519 613 OFFCURVE",
"575 613 CURVE",
"631 613 OFFCURVE",
"679 573 OFFCURVE",
"689 517 CURVE",
"745 187 LINE",
"747 175 OFFCURVE",
"747 163 OFFCURVE",
"745 152 CURVE",
"751 141 OFFCURVE",
"754 130 OFFCURVE",
"757 118 CURVE",
"757 115 LINE",
"1013 115 LINE",
"846 635 LINE",
"322 635 LINE"
);
},
{
closed = 1;
nodes = (
"660 0 LINE",
"643 98 LINE",
"507 98 LINE",
"490 0 LINE",
"0 0 LINE",
"238 750 LINE",
"930 750 LINE",
"1170 1 LINE",
"1170 0 LINE"
);
},
{
closed = 1;
nodes = (
"631 168 LINE",
"575 498 LINE",
"519 168 LINE"
);
},
{
closed = 1;
nodes = (
"0 0 LINE",
"490 0 LINE",
"507 98 LINE",
"643 98 LINE",
"660 0 LINE",
"1170 0 LINE",
"1170 1 LINE",
"930 750 LINE",
"238 750 LINE"
);
},
{
closed = 1;
nodes = (
"575 498 LINE",
"631 168 LINE",
"519 168 LINE"
);
},
{
closed = 1;
nodes = (
"757 118 LINE",
"754 130 OFFCURVE",
"751 141 OFFCURVE",
"745 152 CURVE",
"747 163 OFFCURVE",
"747 175 OFFCURVE",
"745 187 CURVE",
"689 517 LINE",
"679 573 OFFCURVE",
"631 613 OFFCURVE",
"575 613 CURVE",
"519 613 OFFCURVE",
"471 573 OFFCURVE",
"462 517 CURVE",
"406 187 LINE",
"404 175 OFFCURVE",
"404 163 OFFCURVE",
"405 152 CURVE",
"400 141 OFFCURVE",
"396 130 OFFCURVE",
"394 118 CURVE",
"393 115 LINE",
"157 115 LINE",
"322 635 LINE",
"846 635 LINE",
"1013 115 LINE",
"757 115 LINE"
);
}
);
};
backgroundImage = {
imagePath = "Images/A_.glif-Melt.tif";
transform = "{1, 0, 0, 1, 356, 984}";
};
layerId = "96858A69-C8A6-410B-90BB-94EA0DA45935";
paths = (
{
closed = 1;
nodes = (
"385 645 LINE",
"416 463 OFFCURVE",
"144 238 OFFCURVE",
"144 115 CURVE",
"309 115 LINE",
"309 119 LINE",
"320 146 OFFCURVE",
"335 168 OFFCURVE",
"395 168 CURVE SMOOTH",
"684 168 LINE SMOOTH",
"718 168 OFFCURVE",
"752 138 OFFCURVE",
"755 116 CURVE",
"755 115 LINE",
"1002 115 LINE",
"1034 242 OFFCURVE",
"762 469 OFFCURVE",
"812 645 CURVE"
);
},
{
closed = 1;
nodes = (
"330 385 OFFCURVE",
"364 645 OFFCURVE",
"547 645 CURVE SMOOTH",
"562 645 OFFCURVE",
"581 645 OFFCURVE",
"591 645 CURVE SMOOTH",
"720 645 OFFCURVE",
"793 455 OFFCURVE",
"804 332 CURVE SMOOTH",
"814 215 OFFCURVE",
"740 168 OFFCURVE",
"671 168 CURVE SMOOTH",
"395 168 LINE SMOOTH",
"347 168 OFFCURVE",
"308 231 OFFCURVE",
"320 314 CURVE SMOOTH"
);
}
);
width = 1172;
},
{
anchors = (
{
name = bottom;
position = "{586, 0}";
},
{
name = ogonek;
position = "{925, 10}";
},
{
name = top;
position = "{584, 750}";
}
);
associatedMasterId = "F6D8640C-383C-48A8-B63C-DDE9F10207CE";
layerId = "29AA7D90-CFC8-44D1-A192-93315123CF78";
name = "Mar 4 20, 18:21";
paths = (
{
closed = 1;
nodes = (
"238 750 LINE",
"159 500 OFFCURVE",
"79 250 OFFCURVE",
"0 0 CURVE",
"474 0 LINE",
"492 72 LINE",
"497 72 OFFCURVE",
"501 72 OFFCURVE",
"506 72 CURVE",
"641 72 LINE",
"647 72 OFFCURVE",
"652 72 OFFCURVE",
"658 72 CURVE",
"676 0 LINE",
"1170 0 LINE",
"1090 250 OFFCURVE",
"1010 500 OFFCURVE",
"930 750 CURVE"
);
},
{
closed = 1;
nodes = (
"515 244 OFFCURVE",
"573 502 OFFCURVE",
"574 502 CURVE SMOOTH",
"574 502 OFFCURVE",
"575 502 OFFCURVE",
"575 502 CURVE SMOOTH",
"576 502 OFFCURVE",
"635 244 OFFCURVE",
"635 243 CURVE SMOOTH",
"635 243 OFFCURVE",
"635 242 OFFCURVE",
"634 242 CURVE SMOOTH",
"516 242 LINE SMOOTH",
"515 242 OFFCURVE",
"515 242 OFFCURVE",
"515 243 CURVE SMOOTH"
);
}
);
width = 1172;
},
{
anchors = (
{
name = bottom;
position = "{586, 0}";
},
{
name = ogonek;
position = "{925, 10}";
},
{
name = top;
position = "{584, 750}";
}
);
associatedMasterId = "F6D8640C-383C-48A8-B63C-DDE9F10207CE";
layerId = "84B1B6B5-9D33-436B-9920-0DA1D80E059D";
name = "Mar 4 20, 18:33";
paths = (
{
closed = 1;
nodes = (
"238 750 LINE",
"159 500 OFFCURVE",
"79 250 OFFCURVE",
"0 0 CURVE",
"490 0 LINE",
"507 98 LINE",
"511 98 OFFCURVE",
"515 98 OFFCURVE",
"519 98 CURVE",
"629 98 LINE",
"634 98 OFFCURVE",
"638 98 OFFCURVE",
"643 98 CURVE",
"660 0 LINE",
"1170 0 LINE",
"1090 250 OFFCURVE",
"1010 500 OFFCURVE",
"930 750 CURVE"
);
},
{
closed = 1;
nodes = (
"519 170 OFFCURVE",
"573 502 OFFCURVE",
"574 502 CURVE SMOOTH",
"574 502 OFFCURVE",
"575 502 OFFCURVE",
"575 502 CURVE SMOOTH",
"576 502 OFFCURVE",
"631 170 OFFCURVE",
"631 169 CURVE SMOOTH",
"631 169 OFFCURVE",
"631 168 OFFCURVE",
"630 168 CURVE SMOOTH",
"520 168 LINE SMOOTH",
"519 168 OFFCURVE",
"519 168 OFFCURVE",
"519 169 CURVE SMOOTH"
);
}
);
width = 1172;
},
{
anchors = (
{
name = bottom;
position = "{586, 0}";
},
{
name = ogonek;
position = "{925, 10}";
},
{
name = top;
position = "{584, 750}";
}
);
associatedMasterId = "F6D8640C-383C-48A8-B63C-DDE9F10207CE";
layerId = "C8A963FD-30F0-4F52-BE75-79D27FBE8897";
name = "Mar 4 20, 18:33";
paths = (
{
closed = 1;
nodes = (
"238 750 LINE",
"159 500 OFFCURVE",
"79 250 OFFCURVE",
"0 0 CURVE",
"490 0 LINE",
"507 98 LINE",
"511 98 OFFCURVE",
"515 98 OFFCURVE",
"519 98 CURVE",
"629 98 LINE",
"634 98 OFFCURVE",
"638 98 OFFCURVE",
"643 98 CURVE",
"660 0 LINE",
"1170 0 LINE",
"1090 250 OFFCURVE",
"1010 500 OFFCURVE",
"930 750 CURVE"
);
},
{
closed = 1;
nodes = (
"519 170 OFFCURVE",
"573 502 OFFCURVE",
"574 502 CURVE SMOOTH",
"574 502 OFFCURVE",
"575 502 OFFCURVE",
"575 502 CURVE SMOOTH",
"576 502 OFFCURVE",
"631 170 OFFCURVE",
"631 169 CURVE SMOOTH",
"631 169 OFFCURVE",
"631 168 OFFCURVE",
"630 168 CURVE SMOOTH",
"520 168 LINE SMOOTH",
"519 168 OFFCURVE",
"519 168 OFFCURVE",
"519 169 CURVE SMOOTH"
);
}
);
width = 1172;
},
{
anchors = (
{
name = bottom;
position = "{586, 0}";
},
{
name = ogonek;
position = "{925, 10}";
},
{
name = top;
position = "{584, 750}";
}
);
associatedMasterId = "F6D8640C-383C-48A8-B63C-DDE9F10207CE";
layerId = "EEF04DDE-9EFB-4C96-AE08-0078EB45FFEA";
name = " ";
paths = (
{
closed = 1;
nodes = (
"238 750 LINE",
"159 500 OFFCURVE",
"79 250 OFFCURVE",
"0 0 CURVE",
"462 0 LINE",
"484 90 LINE",
"488 90 OFFCURVE",
"494 90 OFFCURVE",
"498 90 CURVE",
"648 90 LINE",
"654 90 OFFCURVE",
"661 90 OFFCURVE",
"666 90 CURVE",
"688 0 LINE",
"1170 0 LINE",
"1090 250 OFFCURVE",
"1010 500 OFFCURVE",
"930 750 CURVE"
);
},
{
closed = 1;
nodes = (
"518 226 OFFCURVE",
"573 502 OFFCURVE",
"574 502 CURVE SMOOTH",
"574 502 OFFCURVE",
"575 502 OFFCURVE",
"575 502 CURVE SMOOTH",
"576 502 OFFCURVE",
"632 226 OFFCURVE",
"632 225 CURVE SMOOTH",
"632 225 OFFCURVE",
"632 224 OFFCURVE",
"632 224 CURVE SMOOTH",
"518 224 LINE SMOOTH",
"518 224 OFFCURVE",
"518 224 OFFCURVE",
"518 225 CURVE SMOOTH"
);
}
);
width = 1172;
},
{
anchors = (
{
name = bottom;
position = "{586, 0}";
},
{
name = ogonek;
position = "{925, 10}";
},
{
name = top;
position = "{584, 750}";
}
);
associatedMasterId = "F6D8640C-383C-48A8-B63C-DDE9F10207CE";
layerId = "0DF7EF48-7057-4045-9CD8-CF42F3589C84";
name = "Mar 5 20, 10:37";
paths = (
{
closed = 1;
nodes = (
"238 750 LINE",
"30 0 LINE",
"495 0 LINE",
"511 98 LINE",
"515 98 OFFCURVE",
"519 98 OFFCURVE",
"522 98 CURVE",
"626 98 LINE",
"631 98 OFFCURVE",
"634 98 OFFCURVE",
"639 98 CURVE",
"655 0 LINE",
"1140 0 LINE",
"930 750 LINE"
);
},
{
closed = 1;
nodes = (
"522 170 OFFCURVE",
"573 502 OFFCURVE",
"574 502 CURVE SMOOTH",
"574 502 OFFCURVE",
"575 502 OFFCURVE",
"575 502 CURVE SMOOTH",
"576 502 OFFCURVE",
"628 170 OFFCURVE",
"628 169 CURVE SMOOTH",
"628 169 OFFCURVE",
"628 168 OFFCURVE",
"627 168 CURVE SMOOTH",
"523 168 LINE SMOOTH",
"522 168 OFFCURVE",
"522 168 OFFCURVE",
"522 169 CURVE SMOOTH"
);
}
);
width = 1172;
},
{
anchors = (
{
name = bottom;
position = "{586, 0}";
},
{
name = ogonek;
position = "{925, 10}";
},
{
name = top;
position = "{584, 750}";
}
);
associatedMasterId = "F6D8640C-383C-48A8-B63C-DDE9F10207CE";
layerId = "DDCF3D20-FD90-4E9F-970D-8AC53C63E4D8";
name = "Mar 5 20, 10:38";
paths = (
{
closed = 1;
nodes = (
"238 750 LINE",
"30 0 LINE",
"495 0 LINE",
"511 98 LINE",
"515 98 OFFCURVE",
"519 98 OFFCURVE",
"522 98 CURVE",
"626 98 LINE",
"631 98 OFFCURVE",
"634 98 OFFCURVE",
"639 98 CURVE",
"655 0 LINE",
"1140 0 LINE",
"930 750 LINE"
);
},
{
closed = 1;
nodes = (
"522 170 OFFCURVE",
"573 502 OFFCURVE",
"574 502 CURVE SMOOTH",
"574 502 OFFCURVE",
"575 502 OFFCURVE",
"575 502 CURVE SMOOTH",
"576 502 OFFCURVE",
"628 170 OFFCURVE",
"628 169 CURVE SMOOTH",
"628 169 OFFCURVE",
"628 168 OFFCURVE",
"627 168 CURVE SMOOTH",
"523 168 LINE SMOOTH",
"522 168 OFFCURVE",
"522 168 OFFCURVE",
"522 169 CURVE SMOOTH"
);
}
);
width = 1172;
},
{
anchors = (
{
name = bottom;
position = "{556, 0}";
},
{
name = ogonek;
position = "{895, 10}";
},
{
name = top;
position = "{554, 750}";
}
);
associatedMasterId = "F6D8640C-383C-48A8-B63C-DDE9F10207CE";
layerId = "B339213B-30E7-475B-BA84-DC26EBA7980C";
name = "Mar 5 20, 17:08";
paths = (
{
closed = 1;
nodes = (
"238 750 LINE",
"159 500 OFFCURVE",
"79 250 OFFCURVE",
"0 0 CURVE",
"440 0 LINE",
"460 90 LINE",
"464 90 OFFCURVE",
"469 90 OFFCURVE",
"473 90 CURVE",
"613 90 LINE",
"619 90 OFFCURVE",
"625 90 OFFCURVE",
"630 90 CURVE",
"650 0 LINE",
"1100 0 LINE",
"1020 250 OFFCURVE",
"940 500 OFFCURVE",
"860 750 CURVE"
);
},
{
closed = 1;
nodes = (
"492 226 OFFCURVE",
"543 502 OFFCURVE",
"544 502 CURVE",
"544 502 OFFCURVE",
"545 502 OFFCURVE",
"545 502 CURVE",
"546 502 OFFCURVE",
"598 226 OFFCURVE",
"598 225 CURVE SMOOTH",
"598 225 OFFCURVE",
"598 224 OFFCURVE",
"598 224 CURVE SMOOTH",
"492 224 LINE SMOOTH",
"492 224 OFFCURVE",
"492 224 OFFCURVE",
"492 225 CURVE SMOOTH"
);
}
);
width = 1100;
},
{
anchors = (
{
name = bottom;
position = "{586, 0}";
},
{
name = ogonek;
position = "{925, 10}";
},
{
name = top;
position = "{584, 750}";
}
);
associatedMasterId = "F6D8640C-383C-48A8-B63C-DDE9F10207CE";
layerId = "0BBCEF7D-5A81-41B3-8593-0886305D369F";
name = "Mar 5 20, 17:12";
paths = (
{
closed = 1;
nodes = (
"238 750 LINE",
"159 500 OFFCURVE",
"79 250 OFFCURVE",
"0 0 CURVE",
"474 0 LINE",
"492 72 LINE",
"497 72 OFFCURVE",
"501 72 OFFCURVE",
"506 72 CURVE",
"641 72 LINE",
"647 72 OFFCURVE",
"652 72 OFFCURVE",
"658 72 CURVE",
"676 0 LINE",
"1170 0 LINE",
"1090 250 OFFCURVE",
"1010 500 OFFCURVE",
"930 750 CURVE"
);
},
{
closed = 1;
nodes = (
"515 244 OFFCURVE",
"573 502 OFFCURVE",
"574 502 CURVE SMOOTH",
"574 502 OFFCURVE",
"575 502 OFFCURVE",
"575 502 CURVE SMOOTH",
"576 502 OFFCURVE",
"635 244 OFFCURVE",
"635 243 CURVE SMOOTH",
"635 243 OFFCURVE",
"635 242 OFFCURVE",
"634 242 CURVE SMOOTH",
"516 242 LINE SMOOTH",
"515 242 OFFCURVE",
"515 242 OFFCURVE",
"515 243 CURVE SMOOTH"
);
}
);
width = 1170;
},
{
anchors = (
{
name = bottom;
position = "{586, 0}";
},
{
name = ogonek;
position = "{925, 10}";
},
{
name = top;
position = "{584, 750}";
}
);
layerId = "F6D8640C-383C-48A8-B63C-DDE9F10207CE";
paths = (
{
closed = 1;
nodes = (
"238 750 LINE",
"159 500 OFFCURVE",
"79 250 OFFCURVE",
"0 0 CURVE",
"490 0 LINE",
"507 98 LINE",
"511 98 OFFCURVE",
"515 98 OFFCURVE",
"519 98 CURVE",
"629 98 LINE",
"634 98 OFFCURVE",
"638 98 OFFCURVE",
"643 98 CURVE",
"660 0 LINE",
"1170 0 LINE",
"1090 250 OFFCURVE",
"1010 500 OFFCURVE",
"930 750 CURVE"
);
},
{
closed = 1;
nodes = (
"519 170 OFFCURVE",
"573 502 OFFCURVE",
"574 502 CURVE SMOOTH",
"574 502 OFFCURVE",
"575 502 OFFCURVE",
"575 502 CURVE SMOOTH",
"576 502 OFFCURVE",
"631 170 OFFCURVE",
"631 169 CURVE SMOOTH",
"631 169 OFFCURVE",
"631 168 OFFCURVE",
"630 168 CURVE SMOOTH",
"520 168 LINE SMOOTH",
"519 168 OFFCURVE",
"519 168 OFFCURVE",
"519 169 CURVE SMOOTH"
);
}
);
width = 1172;
}
);
leftKerningGroup = A;
rightKerningGroup = A;
unicode = 0041;
},
{
color = 6;
glyphname = Aogonek;
lastChange = "2021-05-06 21:03:32 +0000";
layers = (
{
anchors = (
{
name = bottom;
position = "{577, 0}";
},
{
name = ogonek;
position = "{880, 115}";
},
{
name = top;
position = "{577, 750}";
}
);
layerId = "96858A69-C8A6-410B-90BB-94EA0DA45935";
paths = (
{
closed = 1;
nodes = (
"796 -105 OFFCURVE",
"842 -77 OFFCURVE",
"870 -34 CURVE",
"870 -33 LINE",
"865 -34 OFFCURVE",
"860 -34 OFFCURVE",
"855 -34 CURVE SMOOTH",
"822 -34 OFFCURVE",
"800 -15 OFFCURVE",
"800 15 CURVE SMOOTH",
"800 42 OFFCURVE",
"819 78 OFFCURVE",
"865 115 CURVE",
"1002 115 LINE",
"1034 242 OFFCURVE",
"762 469 OFFCURVE",
"812 645 CURVE",
"385 645 LINE",
"416 463 OFFCURVE",
"144 238 OFFCURVE",
"144 115 CURVE",
"309 115 LINE",
"309 119 LINE",
"320 146 OFFCURVE",
"335 168 OFFCURVE",
"395 168 CURVE SMOOTH",
"684 168 LINE SMOOTH",
"718 168 OFFCURVE",
"755 138 OFFCURVE",
"755 116 CURVE",
"755 115 LINE",
"961 95 OFFCURVE",
"656 57 OFFCURVE",
"656 -45 CURVE SMOOTH",
"656 -77 OFFCURVE",
"685 -105 OFFCURVE",
"741 -105 CURVE SMOOTH"
);
},
{
closed = 1;
nodes = (
"347 168 OFFCURVE",
"308 231 OFFCURVE",
"320 314 CURVE SMOOTH",
"330 385 OFFCURVE",
"371 645 OFFCURVE",
"532 645 CURVE SMOOTH",
"588 645 OFFCURVE",
"448 645 OFFCURVE",
"576 645 CURVE SMOOTH",
"705 645 OFFCURVE",
"793 455 OFFCURVE",
"804 332 CURVE SMOOTH",
"814 215 OFFCURVE",
"740 168 OFFCURVE",
"671 168 CURVE SMOOTH",
"395 168 LINE SMOOTH"
);
}
);
width = 1172;
},
{
anchors = (
{
name = bottom;
position = "{586, 0}";
},
{
name = ogonek;
position = "{925, 10}";
},
{
name = top;
position = "{584, 750}";
}
);
layerId = "F6D8640C-383C-48A8-B63C-DDE9F10207CE";
name = Regular;
paths = (
{
closed = 1;
nodes = (
"898 -308 OFFCURVE",
"940 -300 OFFCURVE",
"995 -285 CURVE",
"995 -89 LINE",
"965 -101 OFFCURVE",
"943 -105 OFFCURVE",
"915 -105 CURVE SMOOTH",
"881 -105 OFFCURVE",
"861 -92 OFFCURVE",
"861 -70 CURVE SMOOTH",
"861 -43 OFFCURVE",
"890 0 OFFCURVE",
"1014 0 CURVE",
"1170 0 LINE",
"1090 250 OFFCURVE",
"1010 500 OFFCURVE",
"930 750 CURVE",
"238 750 LINE",
"159 500 OFFCURVE",
"79 250 OFFCURVE",
"0 0 CURVE",
"490 0 LINE",
"507 98 LINE",
"511 98 OFFCURVE",
"515 98 OFFCURVE",
"519 98 CURVE",
"629 98 LINE",
"634 98 OFFCURVE",
"638 98 OFFCURVE",
"643 98 CURVE",
"660 0 LINE",
"615 -37 OFFCURVE",
"592 -85 OFFCURVE",
"592 -140 CURVE SMOOTH",
"592 -247 OFFCURVE",
"673 -308 OFFCURVE",
"836 -308 CURVE SMOOTH"
);
},
{
closed = 1;
nodes = (
"519 168 OFFCURVE",
"519 168 OFFCURVE",
"519 169 CURVE SMOOTH",
"519 170 OFFCURVE",
"573 502 OFFCURVE",
"574 502 CURVE SMOOTH",
"574 502 OFFCURVE",
"575 502 OFFCURVE",
"575 502 CURVE SMOOTH",
"576 502 OFFCURVE",
"631 170 OFFCURVE",
"631 169 CURVE SMOOTH",
"631 169 OFFCURVE",
"631 168 OFFCURVE",
"630 168 CURVE SMOOTH",
"520 168 LINE SMOOTH"
);
}
);
width = 1172;
},
{
anchors = (
{
name = bottom;
position = "{586, 0}";
},
{
name = ogonek;
position = "{925, 10}";
},
{
name = top;
position = "{584, 750}";
}
);
associatedMasterId = "F6D8640C-383C-48A8-B63C-DDE9F10207CE";
layerId = "0C0EDD65-BB6E-4243-86EE-A60CC14526BC";
name = "06 May 21, 22:49";
paths = (
{
closed = 1;
nodes = (
"898 -308 OFFCURVE",
"940 -300 OFFCURVE",
"995 -285 CURVE",
"995 -89 LINE",
"965 -101 OFFCURVE",
"940 -105 OFFCURVE",
"912 -105 CURVE SMOOTH",
"878 -105 OFFCURVE",
"861 -95 OFFCURVE",
"861 -73 CURVE SMOOTH",
"861 -43 OFFCURVE",
"901 -10 OFFCURVE",
"1014 0 CURVE",
"1170 0 LINE",
"1090 250 OFFCURVE",
"1010 500 OFFCURVE",
"930 750 CURVE",
"238 750 LINE",
"159 500 OFFCURVE",
"79 250 OFFCURVE",
"0 0 CURVE",
"490 0 LINE",
"507 98 LINE",
"511 98 OFFCURVE",
"515 98 OFFCURVE",
"519 98 CURVE",
"629 98 LINE",
"634 98 OFFCURVE",
"638 98 OFFCURVE",
"643 98 CURVE",
"659 10 LINE",
"615 -38 OFFCURVE",
"592 -95 OFFCURVE",
"592 -144 CURVE SMOOTH",
"592 -245 OFFCURVE",
"673 -308 OFFCURVE",
"836 -308 CURVE SMOOTH"
);
},
{
closed = 1;
nodes = (
"519 168 OFFCURVE",
"519 168 OFFCURVE",
"519 169 CURVE SMOOTH",
"519 170 OFFCURVE",
"573 502 OFFCURVE",
"574 502 CURVE SMOOTH",
"574 502 OFFCURVE",
"575 502 OFFCURVE",
"575 502 CURVE SMOOTH",
"576 502 OFFCURVE",
"631 170 OFFCURVE",
"631 169 CURVE SMOOTH",
"631 169 OFFCURVE",
"631 168 OFFCURVE",
"630 168 CURVE SMOOTH",
"520 168 LINE SMOOTH"
);
}
);
width = 1172;
}
);
leftKerningGroup = A;
leftMetricsKey = A;
rightKerningGroup = A;
rightMetricsKey = A;
unicode = 0104;
},
{
color = 6;
glyphname = AE;
lastChange = "2021-04-02 09:45:05 +0000";
layers = (
{
anchors = (
{
name = bottom;
position = "{799, 0}";
},
{
name = top;
position = "{799, 750}";
}
);
layerId = "F6D8640C-383C-48A8-B63C-DDE9F10207CE";
paths = (
{
closed = 1;
nodes = (
"484 0 LINE",
"495 37 OFFCURVE",
"517 112 OFFCURVE",
"517 112 CURVE",
"631 112 LINE",
"631 112 OFFCURVE",
"631 37 OFFCURVE",
"631 0 CURVE",
"1458 0 LINE",
"1458 242 LINE",
"1037 242 LINE SMOOTH",
"1036 242 OFFCURVE",
"1036 242 OFFCURVE",
"1036 243 CURVE SMOOTH",
"1036 299 LINE SMOOTH",
"1036 300 OFFCURVE",
"1036 300 OFFCURVE",
"1037 300 CURVE SMOOTH",
"1447 300 LINE",
"1447 441 LINE",
"1037 441 LINE SMOOTH",
"1036 441 OFFCURVE",
"1036 441 OFFCURVE",
"1036 442 CURVE SMOOTH",
"1036 493 LINE SMOOTH",
"1036 494 OFFCURVE",
"1036 494 OFFCURVE",
"1037 494 CURVE SMOOTH",
"1452 494 LINE",
"1452 750 LINE",
"304 750 LINE",
"202 500 OFFCURVE",
"100 250 OFFCURVE",
"-2 0 CURVE"
);
},
{
closed = 1;
nodes = (
"538 182 OFFCURVE",
"538 182 OFFCURVE",
"538 183 CURVE SMOOTH",
"569 289 OFFCURVE",
"599 395 OFFCURVE",
"630 502 CURVE",
"631 502 LINE",
"631 396 OFFCURVE",
"631 289 OFFCURVE",
"631 183 CURVE SMOOTH",
"631 182 OFFCURVE",
"631 182 OFFCURVE",
"630 182 CURVE SMOOTH",
"539 182 LINE SMOOTH"
);
}
);
width = 1470;
},
{
anchors = (
{
name = bottom;
position = "{784, 0}";
},
{
name = top;
position = "{784, 750}";
}
);
layerId = "96858A69-C8A6-410B-90BB-94EA0DA45935";
paths = (
{
closed = 1;
nodes = (
"379 115 LINE",
"392 152 OFFCURVE",
"409 168 OFFCURVE",
"465 168 CURVE SMOOTH",
"672 168 LINE SMOOTH",
"713 168 OFFCURVE",
"725 146 OFFCURVE",
"731 115 CURVE",
"1398 115 LINE",
"1398 120 LINE",
"1116 120 LINE SMOOTH",
"926 120 OFFCURVE",
"902 244 OFFCURVE",
"902 294 CURVE SMOOTH",
"902 296 LINE SMOOTH",
"902 360 OFFCURVE",
"954 382 OFFCURVE",
"1002 382 CURVE",
"1217 382 LINE",
"1217 382 LINE",
"1002 382 LINE",
"987 382 OFFCURVE",
"902 383 OFFCURVE",
"902 482 CURVE SMOOTH",
"902 485 LINE SMOOTH",
"902 605 OFFCURVE",
"971 645 OFFCURVE",
"1079 645 CURVE SMOOTH",
"1089 645 LINE",
"1089 645 LINE",
"515 645 LINE",
"530 521 OFFCURVE",
"214 238 OFFCURVE",
"214 115 CURVE"
);
},
{
closed = 1;
nodes = (
"417 168 OFFCURVE",
"378 231 OFFCURVE",
"390 314 CURVE SMOOTH",
"400 385 OFFCURVE",
"501 645 OFFCURVE",
"662 645 CURVE",
"706 645 LINE",
"788 645 OFFCURVE",
"843 551 OFFCURVE",
"843 456 CURVE SMOOTH",
"843 326 OFFCURVE",
"749 168 OFFCURVE",
"659 168 CURVE SMOOTH",
"465 168 LINE SMOOTH"
);
}
);
width = 1458;
}
);
leftKerningGroup = AE;
rightKerningGroup = E;
unicode = 00C6;
},
{
color = 6;
glyphname = B;
lastChange = "2021-04-02 09:45:05 +0000";
layers = (
{
anchors = (
{
name = bottom;
position = "{526, 0}";
},
{
name = top;
position = "{526, 750}";
}
);
layerId = "F6D8640C-383C-48A8-B63C-DDE9F10207CE";
paths = (
{
closed = 1;
nodes = (
"20 500 OFFCURVE",
"20 250 OFFCURVE",
"20 0 CURVE",
"813 0 LINE SMOOTH",
"965 0 OFFCURVE",
"1043 99 OFFCURVE",
"1043 197 CURVE SMOOTH",
"1043 296 OFFCURVE",
"965 395 OFFCURVE",
"804 395 CURVE SMOOTH",
"803 395 OFFCURVE",
"803 396 OFFCURVE",
"804 396 CURVE SMOOTH",
"1081 396 OFFCURVE",
"1080 750 OFFCURVE",
"813 750 CURVE SMOOTH",
"20 750 LINE"
);
},
{
closed = 1;
nodes = (
"435 497 OFFCURVE",
"436 497 CURVE",
"572 497 LINE SMOOTH",
"632 497 OFFCURVE",
"634 407 OFFCURVE",
"563 407 CURVE SMOOTH",
"436 407 LINE",
"435 407 OFFCURVE",
"435 407 OFFCURVE",
"435 408 CURVE",
"435 434 OFFCURVE",
"435 470 OFFCURVE",
"435 496 CURVE",
"435 496 OFFCURVE"
);
},
{
closed = 1;
nodes = (
"435 356 OFFCURVE",
"436 357 OFFCURVE",
"436 357 CURVE",
"572 357 LINE SMOOTH",
"632 357 OFFCURVE",
"634 267 OFFCURVE",
"563 267 CURVE SMOOTH",
"436 267 LINE",
"435 267 OFFCURVE",
"435 267 OFFCURVE",
"435 268 CURVE",
"435 294 OFFCURVE",
"435 325 OFFCURVE",
"435 356 CURVE"
);
}
);
width = 1048;
},
{
anchors = (
{
name = bottom;
position = "{560, 0}";
},
{
name = top;
position = "{560, 750}";
}
);
layerId = "96858A69-C8A6-410B-90BB-94EA0DA45935";
paths = (
{
closed = 1;
nodes = (
"315 405 OFFCURVE",
"136 295 OFFCURVE",
"136 115 CURVE",
"736 115 LINE SMOOTH",
"888 115 OFFCURVE",
"901 151 OFFCURVE",
"901 187 CURVE SMOOTH",
"901 234 OFFCURVE",
"846 268 OFFCURVE",
"753 319 CURVE SMOOTH",
"623 390 OFFCURVE",
"638 483 OFFCURVE",
"722 523 CURVE SMOOTH",
"821 570 OFFCURVE",
"826 645 OFFCURVE",
"751 645 CURVE SMOOTH",
"230 645 LINE"
);
},
{
closed = 1;
nodes = (
"410 645 OFFCURVE",
"412 645 CURVE",
"560 645 LINE SMOOTH",
"732 645 OFFCURVE",
"681 380 OFFCURVE",
"548 380 CURVE SMOOTH",
"412 380 LINE",
"410 380 OFFCURVE",
"410 380 OFFCURVE",
"410 380 CURVE",
"269 380 OFFCURVE",
"328 642 OFFCURVE",
"410 642 CURVE",
"410 642 OFFCURVE"
);
},
{
closed = 1;
nodes = (
"410 380 OFFCURVE",
"412 380 OFFCURVE",
"412 380 CURVE",
"570 380 LINE SMOOTH",
"676 380 OFFCURVE",
"801 115 OFFCURVE",
"568 115 CURVE SMOOTH",
"412 115 LINE",
"410 115 OFFCURVE",
"410 115 OFFCURVE",
"410 118 CURVE",
"318 118 OFFCURVE",
"279 380 OFFCURVE",
"410 380 CURVE"
);
}
);
width = 1043;
},
{
anchors = (
{
name = bottom;
position = "{526, 0}";
},
{
name = top;
position = "{526, 750}";
}
);
associatedMasterId = "F6D8640C-383C-48A8-B63C-DDE9F10207CE";
layerId = "76CF66D8-AB5E-4546-A6BD-842EB2C4418B";
name = "Mar 4 20, 20:21";
paths = (
{
closed = 1;
nodes = (
"20 500 OFFCURVE",
"20 250 OFFCURVE",
"20 0 CURVE",
"813 0 LINE SMOOTH",
"965 0 OFFCURVE",
"1043 99 OFFCURVE",
"1043 197 CURVE SMOOTH",
"1043 296 OFFCURVE",
"965 395 OFFCURVE",
"804 395 CURVE SMOOTH",
"804 396 OFFCURVE",
"803 396 OFFCURVE",
"804 396 CURVE SMOOTH",
"1081 396 OFFCURVE",
"1080 750 OFFCURVE",
"813 750 CURVE SMOOTH",
"20 750 LINE"
);
},
{
closed = 1;
nodes = (
"435 497 OFFCURVE",
"436 497 CURVE",
"572 497 LINE SMOOTH",
"632 497 OFFCURVE",
"634 407 OFFCURVE",
"563 407 CURVE SMOOTH",
"436 407 LINE",
"435 407 OFFCURVE",
"435 407 OFFCURVE",
"435 408 CURVE",
"435 434 OFFCURVE",
"435 470 OFFCURVE",
"435 496 CURVE",
"435 496 OFFCURVE"
);
},
{
closed = 1;
nodes = (
"435 356 OFFCURVE",
"436 357 OFFCURVE",
"436 357 CURVE",
"572 357 LINE SMOOTH",
"632 357 OFFCURVE",
"634 267 OFFCURVE",
"563 267 CURVE SMOOTH",
"436 267 LINE",
"435 267 OFFCURVE",
"435 267 OFFCURVE",
"435 268 CURVE",
"435 294 OFFCURVE",
"435 325 OFFCURVE",
"435 356 CURVE"
);
}
);
width = 1048;
}
);
leftKerningGroup = H;
rightKerningGroup = B;
unicode = 0042;
},
{
color = 6;
glyphname = C;
lastChange = "2021-04-27 09:02:34 +0000";
layers = (
{
anchors = (
{
name = bottom;
position = "{562, 0}";
},
{
name = top;
position = "{562, 750}";
}
);
layerId = "F6D8640C-383C-48A8-B63C-DDE9F10207CE";
paths = (
{
closed = 1;
nodes = (
"916 -35 OFFCURVE",
"1081 131 OFFCURVE",
"1110 331 CURVE",
"685 374 LINE",
"685 319 OFFCURVE",
"630 290 OFFCURVE",
"560 290 CURVE SMOOTH",
"488 290 OFFCURVE",
"435 318 OFFCURVE",
"435 376 CURVE SMOOTH",
"435 432 OFFCURVE",
"488 460 OFFCURVE",
"560 460 CURVE SMOOTH",
"628 460 OFFCURVE",
"685 435 OFFCURVE",
"685 374 CURVE",
"1110 443 LINE",
"1075 659 OFFCURVE",
"891 785 OFFCURVE",
"560 785 CURVE SMOOTH",
"248 785 OFFCURVE",
"10 655 OFFCURVE",
"10 374 CURVE SMOOTH",
"10 135 OFFCURVE",
"193 -35 OFFCURVE",
"560 -35 CURVE SMOOTH"
);
}
);
width = 1115;
},
{
anchors = (
{
name = bottom;
position = "{552, 0}";
},
{
name = top;
position = "{542, 750}";
}
);
layerId = "96858A69-C8A6-410B-90BB-94EA0DA45935";
paths = (
{
closed = 1;
nodes = (
"719 110 OFFCURVE",
"881 144 OFFCURVE",
"898 207 CURVE",
"736 244 LINE",
"706 148 OFFCURVE",
"664 122 OFFCURVE",
"613 122 CURVE SMOOTH",
"497 122 OFFCURVE",
"296 283 OFFCURVE",
"296 456 CURVE SMOOTH",
"296 603 OFFCURVE",
"393 640 OFFCURVE",
"556 640 CURVE SMOOTH",
"725 640 OFFCURVE",
"716 567 OFFCURVE",
"715 523 CURVE",
"896 559 LINE",
"860 612 OFFCURVE",
"722 645 OFFCURVE",
"564 645 CURVE SMOOTH",
"246 645 OFFCURVE",
"224 649 OFFCURVE",
"264 474 CURVE SMOOTH",
"302 310 OFFCURVE",
"13 110 OFFCURVE",
"566 110 CURVE SMOOTH"
);
}
);
visible = 1;
width = 1107;
}
);
leftKerningGroup = O;
rightKerningGroup = C;
unicode = 0043;
},
{
color = 6;
glyphname = D;
lastChange = "2021-04-28 07:41:39 +0000";
layers = (
{
anchors = (
{
name = bottom;
position = "{524, 0}";
},
{
name = center;
position = "{524, 375}";
},
{
name = top;
position = "{524, 750}";
}
);
background = {
components = (
{
name = O;
transform = "{1, 0, 0, 1, -44, 0}";
}
);
};
layerId = "F6D8640C-383C-48A8-B63C-DDE9F10207CE";
paths = (
{
closed = 1;
nodes = (
"20 750 LINE",
"20 500 OFFCURVE",
"20 250 OFFCURVE",
"20 0 CURVE",
"616 0 LINE SMOOTH",
"925 0 OFFCURVE",
"1057 189 OFFCURVE",
"1057 378 CURVE SMOOTH",
"1057 564 OFFCURVE",
"930 750 OFFCURVE",
"616 750 CURVE SMOOTH"
);
},
{
closed = 1;
nodes = (
"597 455 OFFCURVE",
"632 416 OFFCURVE",
"632 375 CURVE SMOOTH",
"632 336 OFFCURVE",
"597 295 OFFCURVE",
"538 295 CURVE SMOOTH",
"416 295 LINE",
"415 295 OFFCURVE",
"415 295 OFFCURVE",
"415 297 CURVE SMOOTH",
"415 453 LINE",
"415 455 OFFCURVE",
"415 455 OFFCURVE",
"416 455 CURVE",
"536 455 LINE SMOOTH"
);
}
);
width = 1067;
},
{
anchors = (
{
name = bottom;
position = "{500, 0}";
},
{
name = center;
position = "{500, 375}";
},
{
name = top;
position = "{500, 750}";
}
);
background = {
components = (
{
name = O;
transform = "{1, 0, 0, 1, -123, 0}";
}
);
};
layerId = "96858A69-C8A6-410B-90BB-94EA0DA45935";
paths = (
{
closed = 1;
nodes = (
"178 645 LINE",
"271 459 OFFCURVE",
"140 185 OFFCURVE",
"177 114 CURVE",
"460 114 LINE SMOOTH",
"649 114 OFFCURVE",
"794 283 OFFCURVE",
"895 390 CURVE SMOOTH",
"1045 549 OFFCURVE",
"798 645 OFFCURVE",
"573 645 CURVE SMOOTH"
);
},
{
closed = 1;
nodes = (
"716 645 OFFCURVE",
"750 575 OFFCURVE",
"750 474 CURVE SMOOTH",
"750 337 OFFCURVE",
"683 125 OFFCURVE",
"477 125 CURVE SMOOTH",
"470 125 LINE SMOOTH",
"376 125 OFFCURVE",
"222 200 OFFCURVE",
"222 455 CURVE SMOOTH",
"222 459 LINE SMOOTH",
"222 539 OFFCURVE",
"244 645 OFFCURVE",
"365 645 CURVE SMOOTH",
"571 645 LINE SMOOTH"
);
}
);
width = 1039;
},
{
anchors = (
{
name = bottom;
position = "{504, 0}";
},
{
name = center;
position = "{504, 375}";
},
{
name = top;
position = "{504, 750}";
}
);
associatedMasterId = "F6D8640C-383C-48A8-B63C-DDE9F10207CE";
layerId = "FDEB71F9-B8D7-4481-BF87-BF671D177E2A";
name = "Mar 4 20, 16:59";
paths = (
{
closed = 1;
nodes = (
"20 750 LINE",
"20 500 OFFCURVE",
"20 250 OFFCURVE",
"20 0 CURVE",
"611 0 LINE SMOOTH",
"920 0 OFFCURVE",
"1052 189 OFFCURVE",
"1052 378 CURVE SMOOTH",
"1052 564 OFFCURVE",
"925 750 OFFCURVE",
"611 750 CURVE SMOOTH"
);
},
{
closed = 1;
nodes = (
"586 450 OFFCURVE",
"627 419 OFFCURVE",
"627 376 CURVE SMOOTH",
"627 334 OFFCURVE",
"588 300 OFFCURVE",
"518 300 CURVE SMOOTH",
"416 300 LINE",
"415 300 OFFCURVE",
"415 300 OFFCURVE",
"415 302 CURVE",
"415 448 LINE",
"415 450 OFFCURVE",
"415 450 OFFCURVE",
"416 450 CURVE",
"516 450 LINE SMOOTH"
);
}
);
width = 1062;
}
);
leftKerningGroup = H;
rightKerningGroup = O;
rightMetricsKey = D;
unicode = 0044;
},
{
color = 3;
glyphname = Eth;
lastChange = "2021-04-28 08:50:03 +0000";
layers = (
{
components = (
{
name = D;
transform = "{1, 0, 0, 1, 49, 0}";
}
);
layerId = "96858A69-C8A6-410B-90BB-94EA0DA45935";
paths = (
{
closed = 1;
nodes = (
"118 373 LINE",
"412 373 LINE",
"412 383 LINE",
"118 383 LINE"
);
}
);
width = 1088;
},
{
components = (
{
name = D;
transform = "{1, 0, 0, 1, 52, 0}";
}
);
layerId = "F6D8640C-383C-48A8-B63C-DDE9F10207CE";
paths = (
{
closed = 1;
nodes = (
"18 327 LINE",
"559 327 LINE",
"559 423 LINE",
"18 423 LINE"
);
}
);
width = 1119;
},
{
associatedMasterId = "F6D8640C-383C-48A8-B63C-DDE9F10207CE";
components = (
{
name = D;
transform = "{1, 0, 0, 1, 52, 0}";
}
);
layerId = "1698C0D5-6AFA-474A-97D2-AFA18F19F308";
name = "28 Apr 21, 10:37";
paths = (
{
closed = 1;
nodes = (
"18 322 LINE",
"559 322 LINE",
"559 428 LINE",
"18 428 LINE"
);
}
);
width = 1119;
}
);
leftKerningGroup = Eth;
rightKerningGroup = O;
rightMetricsKey = D;
unicode = 00D0;
},
{
color = 6;
glyphname = E;
lastChange = "2021-05-04 10:41:53 +0000";
layers = (
{
anchors = (
{
name = bottom;
position = "{472, 0}";
},
{
name = ogonek;
position = "{811, 115}";
},
{
name = top;
position = "{472, 750}";
},
{
name = topleft;
position = "{52, 750}";
}
);
background = {
paths = (
{
closed = 1;
nodes = (
"344 521 LINE",
"344 551 OFFCURVE",
"356 581 OFFCURVE",
"378 602 CURVE",
"399 623 OFFCURVE",
"429 636 OFFCURVE",
"459 636 CURVE",
"776 636 LINE",
"776 645 LINE",
"159 645 LINE",
"159 125 LINE",
"776 125 LINE",
"776 134 LINE",
"459 134 LINE",
"429 134 OFFCURVE",
"399 146 OFFCURVE",
"378 167 CURVE",
"356 189 OFFCURVE",
"344 218 OFFCURVE",
"344 249 CURVE",
"344 299 LINE",
"344 329 OFFCURVE",
"356 359 OFFCURVE",
"378 380 CURVE",
"379 382 OFFCURVE",
"381 383 OFFCURVE",
"383 385 CURVE",
"381 386 OFFCURVE",
"379 388 OFFCURVE",
"378 389 CURVE",
"356 411 OFFCURVE",
"344 440 OFFCURVE",
"344 471 CURVE"
);
}
);
};
layerId = "96858A69-C8A6-410B-90BB-94EA0DA45935";
paths = (
{
closed = 1;
nodes = (
"693 645 LINE",
"258 645 LINE",
"329 484 OFFCURVE",
"120 214 OFFCURVE",
"144 115 CURVE",
"811 115 LINE",
"811 120 LINE",
"529 120 LINE SMOOTH",
"339 120 OFFCURVE",
"315 244 OFFCURVE",
"315 294 CURVE SMOOTH",
"315 296 LINE SMOOTH",
"315 360 OFFCURVE",
"368 382 OFFCURVE",
"416 382 CURVE",
"659 382 LINE",
"659 382 LINE",
"416 382 LINE",
"401 382 OFFCURVE",
"315 383 OFFCURVE",
"315 482 CURVE SMOOTH",
"315 485 LINE SMOOTH",
"315 605 OFFCURVE",
"384 645 OFFCURVE",
"492 645 CURVE",
"693 645 LINE"
);
}
);
width = 871;
},
{
anchors = (
{
name = bottom;
position = "{440, 0}";
},
{
name = ogonek;
position = "{770, 10}";
},
{
name = top;
position = "{440, 750}";
},
{
name = topleft;
position = "{20, 750}";
}
);
associatedMasterId = "F6D8640C-383C-48A8-B63C-DDE9F10207CE";
layerId = "F8768E3B-DD7E-47C8-9D31-BD3EF755A9E0";
name = "Mar 4 20, 18:32";
paths = (
{
closed = 1;
nodes = (
"861 750 LINE",
"20 750 LINE",
"20 500 OFFCURVE",
"20 250 OFFCURVE",
"20 0 CURVE",
"867 0 LINE",
"867 249 LINE",
"426 249 LINE",
"425 249 OFFCURVE",
"425 249 OFFCURVE",
"425 250 CURVE",
"425 324 LINE",
"425 324 OFFCURVE",
"425 324 OFFCURVE",
"426 324 CURVE",
"856 324 LINE",
"856 438 LINE",
"426 438 LINE",
"425 438 OFFCURVE",
"425 438 OFFCURVE",
"425 438 CURVE",
"425 510 LINE",
"425 511 OFFCURVE",
"425 511 OFFCURVE",
"426 511 CURVE",
"861 511 LINE"
);
}
);
width = 879;
},
{
anchors = (
{
name = bottom;
position = "{440, 0}";
},
{
name = ogonek;
position = "{770, 10}";
},
{
name = top;
position = "{440, 750}";
},
{
name = topleft;
position = "{20, 750}";
}
);
layerId = "F6D8640C-383C-48A8-B63C-DDE9F10207CE";
paths = (
{
closed = 1;
nodes = (
"861 750 LINE",
"20 750 LINE",
"20 500 OFFCURVE",
"20 250 OFFCURVE",
"20 0 CURVE",
"867 0 LINE",
"867 242 LINE",
"426 242 LINE",
"425 242 OFFCURVE",
"425 242 OFFCURVE",
"425 242 CURVE",
"425 298 LINE",
"425 300 OFFCURVE",
"425 300 OFFCURVE",
"426 300 CURVE",
"846 300 LINE",
"846 441 LINE",
"426 441 LINE",
"425 441 OFFCURVE",
"425 441 OFFCURVE",
"425 443 CURVE",
"425 494 LINE",
"425 494 OFFCURVE",
"425 494 OFFCURVE",
"426 494 CURVE",
"861 494 LINE"
);
}
);
width = 879;
},
{
anchors = (
{
name = bottom;
position = "{440, 0}";
},
{
name = ogonek;
position = "{770, 10}";
},
{
name = top;
position = "{440, 750}";
},
{
name = topleft;
position = "{20, 750}";
}
);
associatedMasterId = "F6D8640C-383C-48A8-B63C-DDE9F10207CE";
layerId = "BEB262FC-044D-462D-A741-74BEF44FED8F";
name = "Mar 4 20, 18:32";
paths = (
{
closed = 1;
nodes = (
"861 750 LINE",
"20 750 LINE",
"20 500 OFFCURVE",
"20 250 OFFCURVE",
"20 0 CURVE",
"867 0 LINE",
"867 249 LINE",
"426 249 LINE",
"425 249 OFFCURVE",
"425 249 OFFCURVE",
"425 250 CURVE",
"425 290 LINE",
"425 291 OFFCURVE",
"425 291 OFFCURVE",
"426 291 CURVE",
"856 291 LINE",
"856 473 LINE",
"426 473 LINE",
"425 473 OFFCURVE",
"425 473 OFFCURVE",
"425 474 CURVE",
"425 510 LINE",
"425 511 OFFCURVE",
"425 511 OFFCURVE",
"426 511 CURVE",
"861 511 LINE"
);
}
);
width = 879;
},
{
anchors = (
{
name = bottom;
position = "{440, 0}";
},
{
name = ogonek;
position = "{770, 10}";
},
{
name = top;
position = "{440, 750}";
},
{
name = topleft;
position = "{20, 750}";
}
);
associatedMasterId = "F6D8640C-383C-48A8-B63C-DDE9F10207CE";
layerId = "3C204D5B-6248-4B59-BC75-E45FEEFF65E9";
name = "Mar 4 20, 21:25";
paths = (
{
closed = 1;
nodes = (
"861 750 LINE",
"20 750 LINE",
"20 500 OFFCURVE",
"20 250 OFFCURVE",
"20 0 CURVE",
"867 0 LINE",
"867 296 LINE",
"426 296 LINE",
"425 296 OFFCURVE",
"425 296 OFFCURVE",
"425 296 CURVE",
"425 332 LINE",
"425 333 OFFCURVE",
"425 333 OFFCURVE",
"426 333 CURVE",
"856 333 LINE",
"856 430 LINE",
"426 430 LINE",
"425 430 OFFCURVE",
"425 430 OFFCURVE",
"425 431 CURVE",
"425 464 LINE",
"425 464 OFFCURVE",
"425 464 OFFCURVE",
"426 464 CURVE",
"861 464 LINE"
);
}
);
width = 879;
},
{
anchors = (
{
name = bottom;
position = "{440, 0}";
},
{
name = ogonek;
position = "{770, 10}";
},
{
name = top;
position = "{440, 750}";
},
{
name = topleft;
position = "{20, 750}";
}
);
associatedMasterId = "F6D8640C-383C-48A8-B63C-DDE9F10207CE";
layerId = "2AEF7D0D-1718-44BB-89BE-8700996C9FE7";
name = "Mar 16 20, 03:23";
paths = (
{
closed = 1;
nodes = (
"861 750 LINE",
"20 750 LINE",
"20 500 OFFCURVE",
"20 250 OFFCURVE",
"20 0 CURVE",
"867 0 LINE",
"867 232 LINE",
"426 232 LINE",
"425 232 OFFCURVE",
"425 232 OFFCURVE",
"425 232 CURVE",
"425 288 LINE",
"425 290 OFFCURVE",
"425 290 OFFCURVE",
"426 290 CURVE",
"856 290 LINE",
"856 441 LINE",
"426 441 LINE",
"425 441 OFFCURVE",
"425 441 OFFCURVE",
"425 443 CURVE",
"425 494 LINE",
"425 494 OFFCURVE",
"425 494 OFFCURVE",
"426 494 CURVE",
"861 494 LINE"
);
}
);
width = 879;
}
);
leftKerningGroup = H;
rightKerningGroup = E;
unicode = 0045;
},
{
color = 6;
glyphname = Eogonek;
lastChange = "2021-05-06 21:51:45 +0000";
layers = (
{
anchors = (
{
name = bottom;
position = "{482, 0}";
},
{
name = ogonek;
position = "{811, 115}";
},
{
name = top;
position = "{482, 750}";
},
{
name = topleft;
position = "{52, 750}";
}
);
layerId = "96858A69-C8A6-410B-90BB-94EA0DA45935";
paths = (
{
closed = 1;
nodes = (
"722 -105 OFFCURVE",
"768 -77 OFFCURVE",
"796 -34 CURVE",
"796 -33 LINE",
"791 -34 OFFCURVE",
"787 -34 OFFCURVE",
"783 -34 CURVE SMOOTH",
"748 -34 OFFCURVE",
"721 -10 OFFCURVE",
"721 20 CURVE SMOOTH",
"721 49 OFFCURVE",
"745 85 OFFCURVE",
"811 115 CURVE",
"811 120 LINE",
"529 120 LINE",
"339 120 OFFCURVE",
"315 244 OFFCURVE",
"315 294 CURVE SMOOTH",
"315 296 LINE SMOOTH",
"315 360 OFFCURVE",
"368 382 OFFCURVE",
"416 382 CURVE",
"659 382 LINE",
"659 382 LINE",
"416 382 LINE",
"401 382 OFFCURVE",
"315 383 OFFCURVE",
"315 482 CURVE SMOOTH",
"315 485 LINE SMOOTH",
"315 605 OFFCURVE",
"384 645 OFFCURVE",
"492 645 CURVE",
"693 645 LINE",
"693 645 LINE",
"258 645 LINE",
"329 484 OFFCURVE",
"120 214 OFFCURVE",
"144 115 CURVE",
"655 115 LINE",
"913 95 OFFCURVE",
"582 57 OFFCURVE",
"582 -45 CURVE SMOOTH",
"582 -77 OFFCURVE",
"611 -105 OFFCURVE",
"667 -105 CURVE SMOOTH"
);
}
);
width = 871;
},
{
anchors = (
{
name = bottom;
position = "{440, 0}";
},
{
name = ogonek;
position = "{770, 10}";
},
{
name = top;
position = "{440, 750}";
},
{
name = topleft;
position = "{20, 750}";
}
);
layerId = "F6D8640C-383C-48A8-B63C-DDE9F10207CE";
name = Regular;
paths = (
{
closed = 1;
nodes = (
"765 -308 OFFCURVE",
"806 -300 OFFCURVE",
"861 -285 CURVE",
"861 -89 LINE",
"831 -101 OFFCURVE",
"810 -105 OFFCURVE",
"782 -105 CURVE SMOOTH",
"748 -105 OFFCURVE",
"728 -92 OFFCURVE",
"728 -70 CURVE SMOOTH",
"728 -43 OFFCURVE",
"756 -5 OFFCURVE",
"867 0 CURVE",
"867 242 LINE",
"426 242 LINE",
"425 242 OFFCURVE",
"425 242 OFFCURVE",
"425 242 CURVE",
"425 298 LINE",
"425 300 OFFCURVE",
"425 300 OFFCURVE",
"426 300 CURVE",
"846 300 LINE",
"846 441 LINE",
"426 441 LINE",
"425 441 OFFCURVE",
"425 441 OFFCURVE",
"425 443 CURVE",
"425 494 LINE",
"425 494 OFFCURVE",
"425 494 OFFCURVE",
"426 494 CURVE",
"861 494 LINE",
"861 750 LINE",
"20 750 LINE",
"20 500 OFFCURVE",
"20 250 OFFCURVE",
"20 0 CURVE",
"527 0 LINE",
"482 -37 OFFCURVE",
"459 -85 OFFCURVE",
"459 -140 CURVE SMOOTH",
"459 -247 OFFCURVE",
"540 -308 OFFCURVE",
"703 -308 CURVE SMOOTH"
);
}
);
width = 879;
},
{
anchors = (
{
name = bottom;
position = "{440, 0}";
},
{
name = ogonek;
position = "{770, 10}";
},
{
name = top;
position = "{440, 750}";
},
{
name = topleft;
position = "{20, 750}";
}
);
associatedMasterId = "F6D8640C-383C-48A8-B63C-DDE9F10207CE";
layerId = "D060DB50-EA0D-40AC-94CD-988B1BE5EA82";
name = "06 May 21, 23:07";
paths = (
{
closed = 1;
nodes = (
"743 -308 OFFCURVE",
"785 -300 OFFCURVE",
"840 -285 CURVE",
"840 -89 LINE",
"810 -101 OFFCURVE",
"785 -105 OFFCURVE",
"757 -105 CURVE SMOOTH",
"723 -105 OFFCURVE",
"706 -95 OFFCURVE",
"706 -73 CURVE SMOOTH",
"706 -43 OFFCURVE",
"746 -10 OFFCURVE",
"867 0 CURVE",
"867 242 LINE",
"426 242 LINE",
"425 242 OFFCURVE",
"425 242 OFFCURVE",
"425 242 CURVE",
"425 298 LINE",
"425 300 OFFCURVE",
"425 300 OFFCURVE",
"426 300 CURVE",
"846 300 LINE",
"846 441 LINE",
"426 441 LINE",
"425 441 OFFCURVE",
"425 441 OFFCURVE",
"425 443 CURVE",
"425 494 LINE",
"425 494 OFFCURVE",
"425 494 OFFCURVE",
"426 494 CURVE",
"861 494 LINE",
"861 750 LINE",
"20 750 LINE",
"20 500 OFFCURVE",
"20 250 OFFCURVE",
"20 0 CURVE",
"499 0 LINE",
"460 -38 OFFCURVE",
"437 -95 OFFCURVE",
"437 -144 CURVE SMOOTH",
"437 -245 OFFCURVE",
"518 -308 OFFCURVE",
"681 -308 CURVE SMOOTH"
);
}
);
width = 879;
}
);
leftKerningGroup = H;
leftMetricsKey = E;
rightKerningGroup = E;
rightMetricsKey = E;
unicode = 0118;
},
{
color = 6;
glyphname = F;
lastChange = "2021-04-02 09:45:05 +0000";
layers = (
{
anchors = (
{
name = bottom;
position = "{437, 0}";
},
{
name = top;
position = "{437, 750}";
}
);
layerId = "F6D8640C-383C-48A8-B63C-DDE9F10207CE";
paths = (
{
closed = 1;
nodes = (
"861 750 LINE",
"20 750 LINE",
"20 500 OFFCURVE",
"20 250 OFFCURVE",
"20 0 CURVE",
"436 0 LINE",
"436 68 OFFCURVE",
"436 126 OFFCURVE",
"436 194 CURVE",
"436 195 OFFCURVE",
"436 195 OFFCURVE",
"436 195 CURVE",
"857 195 LINE",
"857 404 LINE",
"436 404 LINE",
"436 404 OFFCURVE",
"436 404 OFFCURVE",
"436 405 CURVE",
"436 455 LINE",
"436 456 OFFCURVE",
"436 456 OFFCURVE",
"436 456 CURVE",
"861 456 LINE"
);
}
);
width = 873;
},
{
anchors = (
{
name = bottom;
position = "{375, 0}";
},
{
name = top;
position = "{375, 750}";
}
);
layerId = "96858A69-C8A6-410B-90BB-94EA0DA45935";
paths = (
{
closed = 1;
nodes = (
"693 645 LINE",
"225 645 LINE",
"269 447 OFFCURVE",
"119 253 OFFCURVE",
"137 115 CURVE",
"358 115 LINE",
"328 132 OFFCURVE",
"303 160 OFFCURVE",
"303 211 CURVE SMOOTH",
"303 268 OFFCURVE",
"345 289 OFFCURVE",
"387 289 CURVE",
"641 289 LINE",
"641 289 LINE",
"387 289 LINE",
"310 289 OFFCURVE",
"264 325 OFFCURVE",
"264 401 CURVE SMOOTH",
"264 410 LINE SMOOTH",
"264 500 OFFCURVE",
"308 640 OFFCURVE",
"519 640 CURVE",
"693 640 LINE"
);
}
);
width = 868;
},
{
anchors = (
{
name = bottom;
position = "{437, 0}";
},
{
name = top;
position = "{437, 750}";
}
);
associatedMasterId = "F6D8640C-383C-48A8-B63C-DDE9F10207CE";
layerId = "5A424C58-11E7-4712-AE26-14A4D27ECE58";
name = "Mar 16 20, 03:25";
paths = (
{
closed = 1;
nodes = (
"861 750 LINE",
"20 750 LINE",
"20 500 OFFCURVE",
"20 250 OFFCURVE",
"20 0 CURVE",
"436 0 LINE",
"436 68 OFFCURVE",
"436 136 OFFCURVE",
"436 204 CURVE",
"436 205 OFFCURVE",
"436 205 OFFCURVE",
"436 205 CURVE",
"857 205 LINE",
"857 414 LINE",
"436 414 LINE",
"436 414 OFFCURVE",
"436 414 OFFCURVE",
"436 415 CURVE",
"436 455 LINE",
"436 456 OFFCURVE",
"436 456 OFFCURVE",
"436 456 CURVE",
"861 456 LINE"
);
}
);
width = 873;
}
);
leftKerningGroup = H;
rightKerningGroup = F;
unicode = 0046;
},
{
color = 6;
glyphname = G;
lastChange = "2021-04-02 09:45:05 +0000";
layers = (
{
anchors = (
{
name = bottom;
position = "{566, 0}";
},
{
name = top;
position = "{566, 750}";
}
);
layerId = "F6D8640C-383C-48A8-B63C-DDE9F10207CE";
paths = (
{
closed = 1;
nodes = (
"164 785 OFFCURVE",
"10 590 OFFCURVE",
"10 374 CURVE SMOOTH",
"10 125 OFFCURVE",
"205 -52 OFFCURVE",
"582 -7 CURVE",
"614 110 OFFCURVE",
"647 227 OFFCURVE",
"679 344 CURVE",
"663 316 OFFCURVE",
"628 300 OFFCURVE",
"560 300 CURVE SMOOTH",
"471 300 OFFCURVE",
"435 341 OFFCURVE",
"435 383 CURVE SMOOTH",
"435 426 OFFCURVE",
"465 470 OFFCURVE",
"560 470 CURVE SMOOTH",
"660 470 OFFCURVE",
"701 419 OFFCURVE",
"679 344 CURVE",
"1111 446 LINE",
"1079 639 OFFCURVE",
"916 785 OFFCURVE",
"561 785 CURVE SMOOTH"
);
},
{
closed = 1;
nodes = (
"1103 0 LINE",
"1103 344 LINE",
"962 344 OFFCURVE",
"820 344 OFFCURVE",
"679 344 CURVE",
"679 229 OFFCURVE",
"679 115 OFFCURVE",
"679 0 CURVE"
);
}
);
width = 1121;
},
{
anchors = (
{
name = bottom;
position = "{569, 0}";
},
{
name = top;
position = "{569, 750}";
}
);
background = {
paths = (
{
closed = 1;
nodes = (
"533 200 OFFCURVE",
"510 208 OFFCURVE",
"488 221 CURVE",
"475 229 OFFCURVE",
"462 238 OFFCURVE",
"450 249 CURVE",
"434 265 OFFCURVE",
"421 282 OFFCURVE",
"412 302 CURVE",
"406 314 OFFCURVE",
"402 326 OFFCURVE",
"399 337 CURVE",
"396 351 OFFCURVE",
"394 364 OFFCURVE",
"394 378 CURVE",
"394 395 OFFCURVE",
"397 414 OFFCURVE",
"403 433 CURVE",
"409 453 OFFCURVE",
"418 471 OFFCURVE",
"430 488 CURVE",
"439 500 OFFCURVE",
"449 511 OFFCURVE",
"461 520 CURVE",
"476 532 OFFCURVE",
"492 543 OFFCURVE",
"510 550 CURVE",
"534 561 OFFCURVE",
"558 567 OFFCURVE",
"584 570 CURVE",
"600 572 OFFCURVE",
"614 573 OFFCURVE",
"630 573 CURVE",
"651 573 OFFCURVE",
"673 572 OFFCURVE",
"692 568 CURVE",
"711 564 OFFCURVE",
"733 557 OFFCURVE",
"751 550 CURVE",
"764 544 OFFCURVE",
"776 537 OFFCURVE",
"788 528 CURVE",
"804 517 OFFCURVE",
"819 503 OFFCURVE",
"831 486 CURVE",
"833 483 OFFCURVE",
"835 480 OFFCURVE",
"837 477 CURVE",
"1022 520 LINE",
"1019 524 OFFCURVE",
"1017 529 OFFCURVE",
"1013 533 CURVE",
"1005 544 OFFCURVE",
"994 553 OFFCURVE",
"984 564 CURVE",
"969 577 OFFCURVE",
"953 588 OFFCURVE",
"932 600 CURVE",
"904 614 OFFCURVE",
"871 628 OFFCURVE",
"830 639 CURVE",
"777 652 OFFCURVE",
"710 660 OFFCURVE",
"631 660 CURVE",
"574 660 OFFCURVE",
"523 655 OFFCURVE",
"481 647 CURVE",
"437 640 OFFCURVE",
"401 629 OFFCURVE",
"369 614 CURVE",
"349 606 OFFCURVE",
"331 596 OFFCURVE",
"315 586 CURVE",
"295 573 OFFCURVE",
"277 556 OFFCURVE",
"264 541 CURVE",
"244 519 OFFCURVE",
"231 497 OFFCURVE",
"221 471 CURVE",
"215 457 OFFCURVE",
"211 442 OFFCURVE",
"208 426 CURVE",
"204 408 OFFCURVE",
"203 389 OFFCURVE",
"203 369 CURVE",
"203 333 OFFCURVE",
"208 303 OFFCURVE",
"217 275 CURVE",
"227 248 OFFCURVE",
"239 224 OFFCURVE",
"258 203 CURVE",
"269 189 OFFCURVE",
"283 175 OFFCURVE",
"299 164 CURVE",
"321 147 OFFCURVE",
"348 134 OFFCURVE",
"380 124 CURVE",
"423 110 OFFCURVE",
"477 101 OFFCURVE",
"542 101 CURVE",
"548 101 OFFCURVE",
"556 101 OFFCURVE",
"564 101 CURVE",
"588 189 LINE",
"578 191 OFFCURVE",
"567 193 OFFCURVE",
"556 195 CURVE"
);
},
{
closed = 1;
nodes = (
"1050 227 LINE",
"860 227 LINE",
"860 114 LINE",
"1050 114 LINE"
);
}
);
};
layerId = "96858A69-C8A6-410B-90BB-94EA0DA45935";
paths = (
{
closed = 1;
nodes = (
"-38 661 OFFCURVE",
"147 513 OFFCURVE",
"223 431 CURVE SMOOTH",
"319 327 OFFCURVE",
"202 90 OFFCURVE",
"446 78 CURVE",
"478 136 OFFCURVE",
"539 215 OFFCURVE",
"558 245 CURVE",
"533 233 OFFCURVE",
"504 229 OFFCURVE",
"478 229 CURVE SMOOTH",
"408 229 OFFCURVE",
"254 268 OFFCURVE",
"254 443 CURVE SMOOTH",
"254 589 OFFCURVE",
"325 656 OFFCURVE",
"504 656 CURVE SMOOTH",
"593 656 OFFCURVE",
"779 656 OFFCURVE",
"764 491 CURVE",
"943 521 LINE",
"879 620 OFFCURVE",
"706 661 OFFCURVE",
"503 661 CURVE SMOOTH"
);
},
{
closed = 1;
nodes = (
"941 115 LINE",
"941 169 LINE",
"846 179 OFFCURVE",
"737 228 OFFCURVE",
"707 287 CURVE",
"707 284 OFFCURVE",
"707 201 OFFCURVE",
"707 115 CURVE"
);
}
);
width = 1117;
}
);
leftKerningGroup = O;
rightKerningGroup = G;
rightMetricsKey = O;
unicode = 0047;
},
{
color = 6;
glyphname = H;
lastChange = "2021-04-02 09:45:05 +0000";
layers = (
{
anchors = (
{
name = bottom;
position = "{505, 0}";
},
{
name = center;
position = "{502, 375}";
},
{
name = top;
position = "{505, 750}";
},
{
name = topleft;
position = "{12, 750}";
}
);
layerId = "F6D8640C-383C-48A8-B63C-DDE9F10207CE";
paths = (
{
closed = 1;
nodes = (
"575 653 OFFCURVE",
"575 555 OFFCURVE",
"575 458 CURVE SMOOTH",
"575 457 OFFCURVE",
"574 456 OFFCURVE",
"573 456 CURVE SMOOTH",
"436 456 LINE SMOOTH",
"435 456 OFFCURVE",
"435 457 OFFCURVE",
"435 458 CURVE SMOOTH",
"435 555 OFFCURVE",
"435 653 OFFCURVE",
"435 750 CURVE",
"20 750 LINE",
"20 500 OFFCURVE",
"20 250 OFFCURVE",
"20 0 CURVE",
"435 0 LINE",
"435 81 OFFCURVE",
"435 163 OFFCURVE",
"435 244 CURVE SMOOTH",
"435 245 OFFCURVE",
"435 246 OFFCURVE",
"436 246 CURVE SMOOTH",
"573 246 LINE SMOOTH",
"574 246 OFFCURVE",
"575 245 OFFCURVE",
"575 244 CURVE SMOOTH",
"575 163 OFFCURVE",
"575 81 OFFCURVE",
"575 0 CURVE",
"990 0 LINE",
"990 250 OFFCURVE",
"990 500 OFFCURVE",
"990 750 CURVE",
"575 750 LINE"
);
}
);
width = 1010;
},
{
anchors = (
{
name = bottom;
position = "{514, 0}";
},
{
name = center;
position = "{514, 375}";
},
{
name = top;
position = "{514, 750}";
},
{
name = topleft;
position = "{36, 750}";
}
);
background = {
paths = (
{
closed = 1;
nodes = (
"296 634 LINE",
"111 635 LINE",
"111 115 LINE",
"296 115 LINE",
"296 246 LINE",
"296 276 OFFCURVE",
"308 306 OFFCURVE",
"329 328 CURVE",
"339 338 OFFCURVE",
"351 346 OFFCURVE",
"364 351 CURVE",
"351 357 OFFCURVE",
"339 365 OFFCURVE",
"329 375 CURVE",
"308 396 OFFCURVE",
"296 426 OFFCURVE",
"296 456 CURVE"
);
},
{
closed = 1;
nodes = (
"656 426 OFFCURVE",
"643 396 OFFCURVE",
"622 375 CURVE",
"612 365 OFFCURVE",
"600 357 OFFCURVE",
"587 351 CURVE",
"600 346 OFFCURVE",
"612 338 OFFCURVE",
"622 328 CURVE",
"643 306 OFFCURVE",
"656 276 OFFCURVE",
"656 246 CURVE",
"656 115 LINE",
"841 115 LINE",
"841 635 LINE",
"656 635 LINE",
"656 456 LINE"
);
}
);
};
layerId = "96858A69-C8A6-410B-90BB-94EA0DA45935";
paths = (
{
closed = 1;
nodes = (
"681 615 OFFCURVE",
"702 551 OFFCURVE",
"702 483 CURVE SMOOTH",
"702 405 OFFCURVE",
"662 351 OFFCURVE",
"581 351 CURVE SMOOTH",
"395 351 LINE SMOOTH",
"334 351 OFFCURVE",
"309 391 OFFCURVE",
"309 443 CURVE SMOOTH",
"309 508 OFFCURVE",
"348 594 OFFCURVE",
"403 645 CURVE",
"261 645 LINE",
"317 511 OFFCURVE",
"126 220 OFFCURVE",
"126 115 CURVE",
"338 115 LINE",
"319 149 OFFCURVE",
"308 192 OFFCURVE",
"308 231 CURVE SMOOTH",
"308 295 OFFCURVE",
"336 351 OFFCURVE",
"395 351 CURVE SMOOTH",
"581 351 LINE SMOOTH",
"660 351 OFFCURVE",
"704 298 OFFCURVE",
"704 224 CURVE SMOOTH",
"704 191 OFFCURVE",
"695 153 OFFCURVE",
"677 115 CURVE",
"855 115 LINE",
"770 262 OFFCURVE",
"837 511 OFFCURVE",
"807 645 CURVE",
"639 645 LINE"
);
}
);
width = 989;
}
);
leftKerningGroup = H;
rightKerningGroup = H;
unicode = 0048;
},
{
color = 3;
glyphname = Hbar;
lastChange = "2021-04-02 09:45:05 +0000";
layers = (
{
components = (
{
name = H;
transform = "{1, 0, 0, 1, 50, 0}";
}
);
layerId = "F6D8640C-383C-48A8-B63C-DDE9F10207CE";
paths = (
{
closed = 1;
nodes = (
"1084 524 LINE",
"1084 645 LINE",
"16 645 LINE",
"16 524 LINE"
);
}
);
width = 1100;
},
{
components = (
{
name = H;
transform = "{1, 0, 0, 1, 31, 0}";
}
);
layerId = "96858A69-C8A6-410B-90BB-94EA0DA45935";
paths = (
{
closed = 1;
nodes = (
"888 558 LINE",
"888 568 LINE",
"219 568 LINE",
"219 558 LINE"
);
}
);
width = 1088;
}
);
leftKerningGroup = Hbar;
rightKerningGroup = H;
unicode = 0126;
},
{
color = 6;
glyphname = I;
lastChange = "2021-04-27 11:17:22 +0000";
layers = (
{
anchors = (
{
name = bottom;
position = "{228, 0}";
},
{
name = ogonek;
position = "{335, 0}";
},
{
name = top;
position = "{228, 750}";
},
{
name = topleft;
position = "{20, 750}";
}
);
layerId = "F6D8640C-383C-48A8-B63C-DDE9F10207CE";
paths = (
{
closed = 1;
nodes = (
"435 0 LINE",
"435 250 OFFCURVE",
"435 500 OFFCURVE",
"435 750 CURVE",
"20 750 LINE",
"20 500 OFFCURVE",
"20 250 OFFCURVE",
"20 0 CURVE"
);
}
);
width = 455;
},
{
anchors = (
{
name = bottom;
position = "{231, 0}";
},
{
name = ogonek;
position = "{339, 115}";
},
{
name = top;
position = "{231, 750}";
},
{
name = topleft;
position = "{35, 750}";
}
);
layerId = "96858A69-C8A6-410B-90BB-94EA0DA45935";
paths = (
{
closed = 1;
nodes = (
"349 115 LINE",
"314 156 OFFCURVE",
"219 208 OFFCURVE",
"299 645 CURVE",
"161 645 LINE",
"194 452 OFFCURVE",
"107 227 OFFCURVE",
"129 115 CURVE"
);
}
);
width = 442;
}
);
leftKerningGroup = H;
rightKerningGroup = H;
unicode = 0049;
},
{
color = 6;
glyphname = IJ;
lastChange = "2021-04-02 09:45:05 +0000";
layers = (
{
layerId = "96858A69-C8A6-410B-90BB-94EA0DA45935";
paths = (
{
closed = 1;
nodes = (
"163 104 LINE",
"287 114 OFFCURVE",
"389 110 OFFCURVE",
"498 108 CURVE SMOOTH",
"583 106 OFFCURVE",
"794 82 OFFCURVE",
"794 180 CURVE SMOOTH",
"794 281 OFFCURVE",
"623 395 OFFCURVE",
"762 645 CURVE",
"610 645 LINE",
"630 569 OFFCURVE",
"661 438 OFFCURVE",
"661 326 CURVE SMOOTH",
"661 211 OFFCURVE",
"628 115 OFFCURVE",
"517 115 CURVE SMOOTH",
"368 115 OFFCURVE",
"310 167 OFFCURVE",
"200 254 CURVE"
);
},
{
closed = 1;
nodes = (
"379 408 LINE",
"344 427 OFFCURVE",
"249 447 OFFCURVE",
"329 645 CURVE",
"210 645 LINE",
"247 539 OFFCURVE",
"156 459 OFFCURVE",
"178 408 CURVE"
);
}
);
width = 958;
},
{
background = {
components = (
{
name = J;
transform = "{1, 0, 0, 1, 349, 0}";
}
);
};
layerId = "F6D8640C-383C-48A8-B63C-DDE9F10207CE";
paths = (
{
closed = 1;
nodes = (
"20 22 LINE",
"157 -19 OFFCURVE",
"251 -34 OFFCURVE",
"446 -34 CURVE SMOOTH",
"722 -34 OFFCURVE",
"949 64 OFFCURVE",
"949 321 CURVE SMOOTH",
"949 351 OFFCURVE",
"949 634 OFFCURVE",
"949 750 CURVE",
"524 750 LINE",
"524 717 OFFCURVE",
"524 427 OFFCURVE",
"524 356 CURVE SMOOTH",
"524 302 OFFCURVE",
"433 271 OFFCURVE",
"324 271 CURVE SMOOTH",
"229 271 OFFCURVE",
"120 291 OFFCURVE",
"20 326 CURVE"
);
},
{
closed = 1;
nodes = (
"435 362 LINE",
"435 487 OFFCURVE",
"435 625 OFFCURVE",
"435 750 CURVE",
"20 750 LINE",
"20 625 OFFCURVE",
"20 487 OFFCURVE",
"20 362 CURVE"
);
}
);
width = 968;
}
);
leftKerningGroup = I;
rightKerningGroup = J;
unicode = 0132;
},
{
color = 6;
glyphname = Iogonek;
lastChange = "2021-05-06 21:39:05 +0000";
layers = (
{
anchors = (
{
name = bottom;
position = "{247, 0}";
},
{
name = ogonek;
position = "{339, 115}";
},
{
name = top;
position = "{247, 750}";
},
{
name = topleft;
position = "{35, 750}";
}
);
layerId = "96858A69-C8A6-410B-90BB-94EA0DA45935";
paths = (
{
closed = 1;
nodes = (
"273 -105 OFFCURVE",
"319 -77 OFFCURVE",
"347 -34 CURVE",
"347 -33 LINE",
"342 -34 OFFCURVE",
"338 -34 OFFCURVE",
"333 -34 CURVE SMOOTH",
"296 -34 OFFCURVE",
"266 -10 OFFCURVE",
"266 22 CURVE SMOOTH",
"266 50 OFFCURVE",
"288 84 OFFCURVE",
"349 115 CURVE",
"314 156 OFFCURVE",
"219 208 OFFCURVE",
"299 645 CURVE",
"161 645 LINE",
"194 452 OFFCURVE",
"107 227 OFFCURVE",
"129 115 CURVE",
"473 102 OFFCURVE",
"133 56 OFFCURVE",
"133 -45 CURVE SMOOTH",
"133 -77 OFFCURVE",
"162 -105 OFFCURVE",
"218 -105 CURVE SMOOTH"
);
}
);
width = 442;
},
{
anchors = (
{
name = bottom;
position = "{276, 0}";
},
{
name = ogonek;
position = "{383, 0}";
},
{
name = top;
position = "{266, 750}";
},
{
name = topleft;
position = "{68, 750}";
}
);
layerId = "F6D8640C-383C-48A8-B63C-DDE9F10207CE";
name = Regular;
paths = (
{
closed = 1;
nodes = (
"483 250 OFFCURVE",
"483 500 OFFCURVE",
"483 750 CURVE",
"68 750 LINE",
"68 500 OFFCURVE",
"68 250 OFFCURVE",
"68 0 CURVE",
"43 -37 OFFCURVE",
"20 -85 OFFCURVE",
"20 -140 CURVE SMOOTH",
"20 -247 OFFCURVE",
"105 -308 OFFCURVE",
"276 -308 CURVE SMOOTH",
"339 -308 OFFCURVE",
"383 -300 OFFCURVE",
"438 -285 CURVE",
"438 -89 LINE",
"408 -101 OFFCURVE",
"385 -105 OFFCURVE",
"355 -105 CURVE SMOOTH",
"313 -105 OFFCURVE",
"289 -92 OFFCURVE",
"289 -70 CURVE SMOOTH",
"289 -43 OFFCURVE",
"319 -5 OFFCURVE",
"483 0 CURVE"
);
}
);
width = 503;
},
{
anchors = (
{
name = bottom;
position = "{230, 0}";
},
{
name = ogonek;
position = "{337, 0}";
},
{
name = top;
position = "{220, 750}";
},
{
name = topleft;
position = "{22, 750}";
}
);
associatedMasterId = "F6D8640C-383C-48A8-B63C-DDE9F10207CE";
layerId = "69B5B4A0-08E6-40F4-A4B3-A2F4B39D58F7";
name = "06 May 21, 23:35";
paths = (
{
closed = 1;
nodes = (
"326 -318 OFFCURVE",
"368 -310 OFFCURVE",
"423 -295 CURVE",
"423 -99 LINE",
"393 -111 OFFCURVE",
"368 -115 OFFCURVE",
"340 -115 CURVE SMOOTH",
"306 -115 OFFCURVE",
"289 -105 OFFCURVE",
"289 -83 CURVE SMOOTH",
"289 -53 OFFCURVE",
"329 -20 OFFCURVE",
"437 0 CURVE",
"437 250 OFFCURVE",
"437 500 OFFCURVE",
"437 750 CURVE",
"22 750 LINE",
"22 500 OFFCURVE",
"22 250 OFFCURVE",
"22 0 CURVE",
"87 0 LINE",
"43 -48 OFFCURVE",
"20 -105 OFFCURVE",
"20 -154 CURVE SMOOTH",
"20 -255 OFFCURVE",
"101 -318 OFFCURVE",
"264 -318 CURVE SMOOTH"
);
}
);
width = 457;
}
);
leftKerningGroup = H;
leftMetricsKey = I;
rightKerningGroup = H;
rightMetricsKey = I;
unicode = 012E;
},
{
color = 6;
glyphname = J;
lastChange = "2021-04-02 09:45:05 +0000";
layers = (
{
anchors = (
{
name = bottom;
position = "{390, 0}";
},
{
name = top;
position = "{390, 750}";
}
);
layerId = "F6D8640C-383C-48A8-B63C-DDE9F10207CE";
paths = (
{
closed = 1;
nodes = (
"16 34 LINE",
"81 -9 OFFCURVE",
"172 -34 OFFCURVE",
"263 -34 CURVE SMOOTH",
"434 -34 OFFCURVE",
"605 56 OFFCURVE",
"605 291 CURVE SMOOTH",
"605 321 OFFCURVE",
"605 634 OFFCURVE",
"605 750 CURVE",
"180 750 LINE",
"180 717 OFFCURVE",
"180 382 OFFCURVE",
"180 352 CURVE SMOOTH",
"180 278 OFFCURVE",
"82 275 OFFCURVE",
"16 317 CURVE"
);
}
);
width = 624;
},
{
anchors = (
{
name = bottom;
position = "{296, 0}";
},
{
name = top;
position = "{350, 750}";
}
);
background = {
paths = (
{
closed = 1;
nodes = (
"184 93 OFFCURVE",
"220 88 OFFCURVE",
"254 88 CURVE",
"279 88 OFFCURVE",
"303 91 OFFCURVE",
"326 96 CURVE",
"348 101 OFFCURVE",
"368 108 OFFCURVE",
"386 117 CURVE",
"398 123 OFFCURVE",
"408 130 OFFCURVE",
"418 138 CURVE",
"431 148 OFFCURVE",
"441 160 OFFCURVE",
"450 174 CURVE",
"456 182 OFFCURVE",
"460 191 OFFCURVE",
"464 201 CURVE",
"469 212 OFFCURVE",
"473 225 OFFCURVE",
"476 240 CURVE",
"480 257 OFFCURVE",
"482 276 OFFCURVE",
"482 299 CURVE",
"482 643 LINE",
"286 643 LINE",
"286 359 LINE",
"286 360 LINE",
"286 344 OFFCURVE",
"284 327 OFFCURVE",
"279 311 CURVE",
"275 294 OFFCURVE",
"268 278 OFFCURVE",
"259 263 CURVE",
"252 253 OFFCURVE",
"245 244 OFFCURVE",
"237 236 CURVE",
"227 225 OFFCURVE",
"215 217 OFFCURVE",
"203 210 CURVE",
"188 200 OFFCURVE",
"172 194 OFFCURVE",
"157 190 CURVE",
"145 187 OFFCURVE",
"134 185 OFFCURVE",
"123 184 CURVE",
"123 112 LINE",
"132 108 OFFCURVE",
"142 105 OFFCURVE",
"152 102 CURVE"
);
}
);
};
layerId = "96858A69-C8A6-410B-90BB-94EA0DA45935";
paths = (
{
closed = 1;
nodes = (
"44 98 LINE",
"91 106 OFFCURVE",
"163 113 OFFCURVE",
"264 111 CURVE SMOOTH",
"406 108 OFFCURVE",
"523 82 OFFCURVE",
"523 180 CURVE SMOOTH",
"523 281 OFFCURVE",
"300 408 OFFCURVE",
"420 645 CURVE",
"268 645 LINE",
"308 491 OFFCURVE",
"489 117 OFFCURVE",
"270 117 CURVE SMOOTH",
"189 117 OFFCURVE",
"147 168 OFFCURVE",
"84 246 CURVE"
);
}
);
width = 617;
}
);
leftKerningGroup = J;
rightKerningGroup = J;
unicode = 004A;
},
{
color = 6;
glyphname = K;
lastChange = "2021-04-28 07:44:49 +0000";
layers = (
{
anchors = (
{
name = bottom;
position = "{496, 0}";
},
{
name = top;
position = "{496, 750}";
}
);
background = {
paths = (
{
closed = 1;
nodes = (
"747 361 LINE",
"732 392 OFFCURVE",
"733 429 OFFCURVE",
"748 460 CURVE",
"840 645 LINE",
"653 645 LINE",
"545 384 LINE",
"645 125 LINE",
"856 125 LINE"
);
},
{
closed = 1;
nodes = (
"306 645 LINE",
"121 645 LINE",
"121 125 LINE",
"306 125 LINE"
);
}
);
};
layerId = "96858A69-C8A6-410B-90BB-94EA0DA45935";
paths = (
{
closed = 1;
nodes = (
"854 115 LINE",
"854 151 OFFCURVE",
"802 204 OFFCURVE",
"766 252 CURVE SMOOTH",
"692 351 OFFCURVE",
"635 387 OFFCURVE",
"718 501 CURVE SMOOTH",
"823 645 LINE",
"686 645 LINE",
"725 554 OFFCURVE",
"733 481 OFFCURVE",
"578 384 CURVE",
"682 115 LINE"
);
},
{
closed = 1;
nodes = (
"376 115 LINE",
"326 191 OFFCURVE",
"316 274 OFFCURVE",
"316 304 CURVE SMOOTH",
"316 312 OFFCURVE",
"318 381 OFFCURVE",
"374 381 CURVE",
"324 381 OFFCURVE",
"315 412 OFFCURVE",
"315 447 CURVE SMOOTH",
"315 496 OFFCURVE",
"376 596 OFFCURVE",
"376 645 CURVE",
"246 645 LINE",
"295 500 OFFCURVE",
"151 252 OFFCURVE",
"151 115 CURVE"
);
}
);
width = 1033;
},
{
anchors = (
{
name = bottom;
position = "{515, 0}";
},
{
name = top;
position = "{525, 750}";
}
);
layerId = "F6D8640C-383C-48A8-B63C-DDE9F10207CE";
paths = (
{
closed = 1;
nodes = (
"1050 0 LINE",
"988 133 OFFCURVE",
"927 265 OFFCURVE",
"865 398 CURVE SMOOTH",
"865 399 OFFCURVE",
"865 399 OFFCURVE",
"865 400 CURVE SMOOTH",
"1040 750 LINE",
"590 750 LINE",
"538 625 OFFCURVE",
"487 500 OFFCURVE",
"435 375 CURVE",
"580 0 LINE"
);
},
{
closed = 1;
nodes = (
"435 0 LINE",
"435 123 OFFCURVE",
"435 245 OFFCURVE",
"435 368 CURVE SMOOTH",
"435 370 OFFCURVE",
"435 373 OFFCURVE",
"435 375 CURVE",
"435 377 OFFCURVE",
"435 380 OFFCURVE",
"435 382 CURVE SMOOTH",
"435 505 OFFCURVE",
"435 627 OFFCURVE",
"435 750 CURVE",
"20 750 LINE",
"20 500 OFFCURVE",
"20 250 OFFCURVE",
"20 0 CURVE"
);
}
);
width = 1049;
}
);
leftKerningGroup = H;
rightKerningGroup = K;
unicode = 004B;
},
{
color = 6;
glyphname = L;
lastChange = "2021-04-27 11:18:44 +0000";
layers = (
{
anchors = (
{
name = bottom;
position = "{420, 0}";
},
{
name = center;
position = "{420, 375}";
},
{
name = top;
position = "{182, 750}";
},
{
name = topright;
position = "{819, 750}";
}
);
background = {
components = (
{
name = O;
}
);
};
layerId = "F6D8640C-383C-48A8-B63C-DDE9F10207CE";
paths = (
{
closed = 1;
nodes = (
"435 447 OFFCURVE",
"435 599 OFFCURVE",
"435 750 CURVE",
"20 750 LINE",
"20 500 OFFCURVE",
"20 250 OFFCURVE",
"20 0 CURVE",
"827 0 LINE",
"827 294 LINE",
"437 294 LINE SMOOTH",
"436 294 OFFCURVE",
"435 295 OFFCURVE",
"435 296 CURVE SMOOTH"
);
}
);
width = 837;
},
{
anchors = (
{
name = bottom;
position = "{408, 0}";
},
{
name = center;
position = "{394, 375}";
},
{
name = top;
position = "{259, 750}";
},
{
name = topright;
position = "{757, 750}";
}
);
background = {
components = (
{
name = O;
transform = "{1, 0, 0, 1, 41, 0}";
}
);
};
layerId = "96858A69-C8A6-410B-90BB-94EA0DA45935";
paths = (
{
closed = 1;
nodes = (
"299 346 OFFCURVE",
"351 535 OFFCURVE",
"351 645 CURVE",
"178 645 LINE",
"337 443 OFFCURVE",
"124 204 OFFCURVE",
"120 115 CURVE",
"693 115 LINE",
"693 120 LINE",
"448 120 LINE SMOOTH",
"354 120 OFFCURVE",
"299 150 OFFCURVE",
"299 236 CURVE SMOOTH"
);
}
);
width = 837;
}
);
leftKerningGroup = H;
rightKerningGroup = L;
unicode = 004C;
},
{
color = 3;
glyphname = Lcaron;
lastChange = "2021-04-23 13:27:23 +0000";
layers = (
{
components = (
{
name = L;
}
);
layerId = "F6D8640C-383C-48A8-B63C-DDE9F10207CE";
paths = (
{
closed = 1;
nodes = (
"792 750 LINE",
"548 750 LINE",
"521 485 LINE",
"714 485 LINE"
);
}
);
width = 839;
},
{
components = (
{
name = L;
}
);
layerId = "96858A69-C8A6-410B-90BB-94EA0DA45935";
paths = (
{
closed = 1;
nodes = (
"650 645 LINE",
"584 645 LINE",
"570 544 LINE",
"627 544 LINE"
);
}
);
width = 837;
}
);
leftKerningGroup = H;
rightKerningGroup = Lcaron;
unicode = 013D;
},
{
color = 3;
glyphname = Ldot;
lastChange = "2021-04-28 10:00:05 +0000";
layers = (
{
components = (
{
name = L;
}
);
layerId = "F6D8640C-383C-48A8-B63C-DDE9F10207CE";
paths = (
{
closed = 1;
nodes = (
"784 384 LINE",
"784 608 LINE",
"513 608 LINE",
"513 384 LINE"
);
}
);
width = 839;
},
{
components = (
{
name = L;
}
);
layerId = "96858A69-C8A6-410B-90BB-94EA0DA45935";
paths = (
{
closed = 1;
nodes = (
"688 407 LINE",
"688 458 LINE",
"599 458 LINE",
"599 407 LINE"
);
}
);
width = 837;
}
);
leftKerningGroup = H;
leftMetricsKey = L;
rightKerningGroup = L;
unicode = 013F;
},
{
color = 3;
glyphname = Lslash;
lastChange = "2021-04-28 09:33:31 +0000";
layers = (
{
components = (
{
name = L;
transform = "{1, 0, 0, 1, 76, 0}";
}
);
layerId = "96858A69-C8A6-410B-90BB-94EA0DA45935";
paths = (
{
closed = 1;
nodes = (
"496 445 LINE",
"496 458 LINE",
"219 339 LINE",
"219 326 LINE"
);
}
);
width = 897;
},
{
components = (
{
name = L;
transform = "{1, 0, 0, 1, 64, 0}";
}
);
layerId = "F6D8640C-383C-48A8-B63C-DDE9F10207CE";
paths = (
{
closed = 1;
nodes = (
"653 468 LINE",
"653 578 LINE",
"16 316 LINE",
"16 206 LINE"
);
}
);
width = 903;
},
{
associatedMasterId = "F6D8640C-383C-48A8-B63C-DDE9F10207CE";
components = (
{
name = L;
transform = "{1, 0, 0, 1, 64, 0}";
}
);
layerId = "B09592DC-CCAA-4F89-A73F-5A05EFEE7E65";
name = "28 Apr 21, 10:45";
paths = (
{
closed = 1;
nodes = (
"653 443 LINE",
"653 644 LINE",
"16 382 LINE",
"16 181 LINE"
);
}
);
width = 903;
}
);
leftKerningGroup = Lslash;
rightKerningGroup = L;
unicode = 0141;
},
{
color = 6;
glyphname = M;
lastChange = "2021-04-02 09:45:05 +0000";
layers = (
{
anchors = (
{
name = bottom;
position = "{638, 0}";
},
{
name = top;
position = "{638, 750}";
}
);
layerId = "F6D8640C-383C-48A8-B63C-DDE9F10207CE";
paths = (
{
closed = 1;
nodes = (
"726 750 LINE",
"657 429 LINE SMOOTH",
"657 427 OFFCURVE",
"655 427 OFFCURVE",
"655 429 CURVE",
"632 536 OFFCURVE",
"609 643 OFFCURVE",
"586 750 CURVE",
"20 750 LINE",
"20 500 OFFCURVE",
"20 250 OFFCURVE",
"20 0 CURVE",
"400 0 LINE",
"400 136 OFFCURVE",
"400 273 OFFCURVE",
"400 409 CURVE",
"400 410 OFFCURVE",
"402 410 OFFCURVE",
"402 409 CURVE",
"435 273 OFFCURVE",
"467 136 OFFCURVE",
"500 0 CURVE",
"755 0 LINE",
"853 412 LINE SMOOTH",
"853 413 OFFCURVE",
"855 413 OFFCURVE",
"855 412 CURVE",
"855 275 OFFCURVE",
"855 137 OFFCURVE",
"855 0 CURVE",
"1255 0 LINE",
"1255 250 OFFCURVE",
"1255 500 OFFCURVE",
"1255 750 CURVE"
);
}
);
width = 1275;
},
{
anchors = (
{
name = bottom;
position = "{649, 0}";
},
{
name = top;
position = "{649, 750}";
}
);
background = {
paths = (
{
closed = 1;
nodes = (
"494 635 LINE",
"122 635 LINE",
"122 115 LINE",
"243 115 LINE",
"243 460 LINE",
"243 519 OFFCURVE",
"287 568 OFFCURVE",
"345 575 CURVE",
"404 581 OFFCURVE",
"457 542 OFFCURVE",
"470 485 CURVE",
"550 115 LINE",
"620 115 LINE",
"666 330 LINE",
"660 329 OFFCURVE",
"653 328 OFFCURVE",
"646 328 CURVE",
"592 329 OFFCURVE",
"545 368 OFFCURVE",
"535 422 CURVE"
);
},
{
closed = 1;
nodes = (
"883 571 OFFCURVE",
"928 522 OFFCURVE",
"928 463 CURVE",
"928 115 LINE",
"1110 115 LINE",
"1110 635 LINE",
"805 635 LINE",
"793 577 LINE",
"803 578 OFFCURVE",
"814 579 OFFCURVE",
"825 578 CURVE"
);
}
);
};
layerId = "96858A69-C8A6-410B-90BB-94EA0DA45935";
paths = (
{
closed = 1;
nodes = (
"811 645 LINE",
"708 337 LINE SMOOTH",
"693 292 OFFCURVE",
"618 302 OFFCURVE",
"581 355 CURVE SMOOTH",
"517 446 OFFCURVE",
"508 561 OFFCURVE",
"536 645 CURVE",
"228 645 LINE",
"258 488 OFFCURVE",
"147 255 OFFCURVE",
"153 115 CURVE",
"347 115 LINE",
"301 197 OFFCURVE",
"268 306 OFFCURVE",
"268 396 CURVE SMOOTH",
"268 639 OFFCURVE",
"536 630 OFFCURVE",
"536 370 CURVE SMOOTH",
"536 255 OFFCURVE",
"517 184 OFFCURVE",
"497 115 CURVE",
"634 115 LINE",
"775 538 LINE SMOOTH",
"795 599 OFFCURVE",
"968 582 OFFCURVE",
"968 288 CURVE SMOOTH",
"968 228 OFFCURVE",
"960 167 OFFCURVE",
"942 115 CURVE",
"1124 115 LINE",
"1124 292 OFFCURVE",
"972 448 OFFCURVE",
"982 645 CURVE"
);
}
);
width = 1246;
},
{
anchors = (
{
name = bottom;
position = "{629, 0}";
},
{
name = top;
position = "{629, 750}";
}
);
associatedMasterId = "F6D8640C-383C-48A8-B63C-DDE9F10207CE";
layerId = "4AECC505-E673-4458-9FAA-E4440439CE73";
name = "Mar 5 20, 10:29";
paths = (
{
closed = 1;
nodes = (
"725 750 LINE",
"662 449 LINE SMOOTH",
"662 447 OFFCURVE",
"660 447 OFFCURVE",
"660 449 CURVE SMOOTH",
"641 549 OFFCURVE",
"622 650 OFFCURVE",
"603 750 CURVE",
"20 750 LINE",
"20 500 OFFCURVE",
"20 250 OFFCURVE",
"20 0 CURVE",
"371 0 LINE",
"371 150 OFFCURVE",
"371 300 OFFCURVE",
"371 450 CURVE SMOOTH",
"371 451 OFFCURVE",
"373 451 OFFCURVE",
"373 450 CURVE SMOOTH",
"406 300 OFFCURVE",
"438 150 OFFCURVE",
"471 0 CURVE",
"726 0 LINE",
"824 453 LINE SMOOTH",
"824 454 OFFCURVE",
"826 454 OFFCURVE",
"826 453 CURVE SMOOTH",
"826 302 OFFCURVE",
"826 151 OFFCURVE",
"826 0 CURVE",
"1238 0 LINE",
"1238 250 OFFCURVE",
"1238 500 OFFCURVE",
"1238 750 CURVE"
);
}
);
width = 1258;
}
);
leftKerningGroup = M;
rightKerningGroup = M;
unicode = 004D;
},
{
color = 6;
glyphname = N;
lastChange = "2021-04-28 07:45:46 +0000";
layers = (
{
anchors = (
{
name = bottom;
position = "{524, 0}";
},
{
name = top;
position = "{524, 750}";
}
);
background = {
components = (
{
name = U;
transform = "{1, 0, 0, 1, 10, 0}";
}
);
};
layerId = "F6D8640C-383C-48A8-B63C-DDE9F10207CE";
paths = (
{
closed = 1;
nodes = (
"627 346 LINE SMOOTH",
"627 345 OFFCURVE",
"625 344 OFFCURVE",
"625 345 CURVE SMOOTH",
"493 750 LINE",
"20 750 LINE",
"20 500 OFFCURVE",
"20 250 OFFCURVE",
"20 0 CURVE",
"430 0 LINE",
"430 117 OFFCURVE",
"430 233 OFFCURVE",
"430 350 CURVE",
"430 351 OFFCURVE",
"432 351 OFFCURVE",
"432 350 CURVE SMOOTH",
"557 0 LINE",
"1037 0 LINE",
"1037 250 OFFCURVE",
"1037 500 OFFCURVE",
"1037 750 CURVE",
"627 750 LINE"
);
}
);
width = 1057;
},
{
anchors = (
{
name = bottom;
position = "{524, 0}";
},
{
name = top;
position = "{524, 750}";
}
);
background = {
paths = (
{
closed = 1;
nodes = (
"143 115 LINE",
"313 115 LINE",
"313 367 LINE",
"313 423 OFFCURVE",
"354 472 OFFCURVE",
"409 480 CURVE",
"425 483 OFFCURVE",
"441 482 OFFCURVE",
"455 479 CURVE",
"405 645 LINE",
"143 645 LINE"
);
},
{
closed = 1;
nodes = (
"628 115 LINE",
"900 115 LINE",
"900 645 LINE",
"730 645 LINE",
"730 348 LINE",
"730 291 OFFCURVE",
"688 242 OFFCURVE",
"631 234 CURVE",
"618 232 OFFCURVE",
"605 233 OFFCURVE",
"592 235 CURVE"
);
}
);
};
layerId = "96858A69-C8A6-410B-90BB-94EA0DA45935";
paths = (
{
closed = 1;
nodes = (
"727 296 LINE SMOOTH",
"727 171 OFFCURVE",
"579 188 OFFCURVE",
"558 245 CURVE SMOOTH",
"413 645 LINE",
"292 645 LINE",
"302 388 OFFCURVE",
"140 211 OFFCURVE",
"140 115 CURVE",
"350 115 LINE",
"307 194 OFFCURVE",
"291 283 OFFCURVE",
"291 332 CURVE SMOOTH",
"291 501 OFFCURVE",
"469 491 OFFCURVE",
"487 441 CURVE SMOOTH",
"605 115 LINE",
"843 115 LINE",
"575 454 OFFCURVE",
"884 538 OFFCURVE",
"864 645 CURVE",
"727 645 LINE"
);
}
);
width = 1015;
},
{
anchors = (
{
name = bottom;
position = "{514, 0}";
},
{
name = top;
position = "{514, 750}";
}
);
associatedMasterId = "F6D8640C-383C-48A8-B63C-DDE9F10207CE";
background = {
components = (
{
name = A;
transform = "{1, 0, 0, 1, -50, 0}";
}
);
};
layerId = "4033A4FD-0B93-45BA-BCF7-07D1B6E2B587";
name = "Mar 5 20, 10:15";
paths = (
{
closed = 1;
nodes = (
"607 346 LINE SMOOTH",
"607 345 OFFCURVE",
"605 344 OFFCURVE",
"605 345 CURVE SMOOTH",
"483 750 LINE",
"20 750 LINE",
"20 500 OFFCURVE",
"20 250 OFFCURVE",
"20 0 CURVE",
"420 0 LINE",
"420 117 OFFCURVE",
"420 233 OFFCURVE",
"420 350 CURVE SMOOTH",
"420 351 OFFCURVE",
"422 351 OFFCURVE",
"422 350 CURVE SMOOTH",
"537 0 LINE",
"1007 0 LINE",
"1007 250 OFFCURVE",
"1007 500 OFFCURVE",
"1007 750 CURVE",
"607 750 LINE"
);
}
);
width = 1027;
},
{
anchors = (
{
name = bottom;
position = "{524, 0}";
},
{
name = top;
position = "{524, 750}";
}
);
associatedMasterId = "F6D8640C-383C-48A8-B63C-DDE9F10207CE";
background = {
components = (
{
name = U;
transform = "{1, 0, 0, 1, 10, 0}";
}
);
};
layerId = "481EF1EE-1F05-4EB4-8E06-1F901F53A3CB";
name = "Mar 5 20, 10:25";
paths = (
{
closed = 1;
nodes = (
"627 346 LINE SMOOTH",
"627 345 OFFCURVE",
"625 344 OFFCURVE",
"625 345 CURVE SMOOTH",
"493 750 LINE",
"20 750 LINE",
"20 500 OFFCURVE",
"20 250 OFFCURVE",
"20 0 CURVE",
"430 0 LINE",
"430 117 OFFCURVE",
"430 233 OFFCURVE",
"430 350 CURVE SMOOTH",
"430 351 OFFCURVE",
"432 351 OFFCURVE",
"432 350 CURVE SMOOTH",
"557 0 LINE",
"1037 0 LINE",
"1037 250 OFFCURVE",
"1037 500 OFFCURVE",
"1037 750 CURVE",
"627 750 LINE"
);
}
);
width = 1057;
}
);
leftKerningGroup = H;
rightKerningGroup = H;
unicode = 004E;
},
{
color = 6;
glyphname = Nhookleft;
lastChange = "2021-05-05 16:46:41 +0000";
layers = (
{
layerId = "F6D8640C-383C-48A8-B63C-DDE9F10207CE";
paths = (
{
closed = 1;
nodes = (
"282 -248 OFFCURVE",
"430 -126 OFFCURVE",
"430 93 CURVE SMOOTH",
"430 169 OFFCURVE",
"430 233 OFFCURVE",
"430 350 CURVE",
"430 351 OFFCURVE",
"432 351 OFFCURVE",
"432 350 CURVE SMOOTH",
"557 0 LINE",
"1037 0 LINE",
"1037 250 OFFCURVE",
"1037 500 OFFCURVE",
"1037 750 CURVE",
"627 750 LINE",
"627 346 LINE SMOOTH",
"627 345 OFFCURVE",
"625 344 OFFCURVE",
"625 345 CURVE SMOOTH",
"493 750 LINE",
"20 750 LINE",
"20 500 OFFCURVE",
"20 302 OFFCURVE",
"20 69 CURVE SMOOTH",
"20 -6 OFFCURVE",
"-25 -24 OFFCURVE",
"-111 -6 CURVE",
"-58 -228 LINE"
);
}
);
width = 1057;
},
{
layerId = "96858A69-C8A6-410B-90BB-94EA0DA45935";
paths = (
{
closed = 1;
nodes = (
"314 24 OFFCURVE",
"331 55 OFFCURVE",
"331 90 CURVE SMOOTH",
"331 154 OFFCURVE",
"278 235 OFFCURVE",
"278 332 CURVE SMOOTH",
"278 501 OFFCURVE",
"456 491 OFFCURVE",
"474 441 CURVE SMOOTH",
"592 115 LINE",
"830 115 LINE",
"562 454 OFFCURVE",
"871 538 OFFCURVE",
"851 645 CURVE",
"714 645 LINE",
"714 296 LINE SMOOTH",
"714 171 OFFCURVE",
"566 188 OFFCURVE",
"545 245 CURVE SMOOTH",
"400 645 LINE",
"279 645 LINE",
"283 544 OFFCURVE",
"283 441 OFFCURVE",
"274 350 CURVE SMOOTH",
"260 209 OFFCURVE",
"224 97 OFFCURVE",
"147 61 CURVE",
"263 0 LINE"
);
}
);
width = 1016;
},
{
associatedMasterId = "F6D8640C-383C-48A8-B63C-DDE9F10207CE";
layerId = "FB2A5109-D658-427C-A48F-1BDC4483A326";
name = "Mar 18 20, 13:24";
paths = (
{
closed = 1;
nodes = (
"276 -341 OFFCURVE",
"421 -208 OFFCURVE",
"421 41 CURVE SMOOTH",
"421 158 OFFCURVE",
"421 233 OFFCURVE",
"421 350 CURVE SMOOTH",
"421 351 OFFCURVE",
"423 351 OFFCURVE",
"423 350 CURVE SMOOTH",
"538 0 LINE",
"1008 0 LINE",
"1008 250 OFFCURVE",
"1008 500 OFFCURVE",
"1008 750 CURVE",
"608 750 LINE",
"608 346 LINE SMOOTH",
"608 345 OFFCURVE",
"606 344 OFFCURVE",
"606 345 CURVE SMOOTH",
"484 750 LINE",
"21 750 LINE",
"21 500 OFFCURVE",
"21 252 OFFCURVE",
"21 27 CURVE SMOOTH",
"21 -49 OFFCURVE",
"-25 -76 OFFCURVE",
"-111 -58 CURVE",
"-37 -319 LINE"
);
}
);
width = 1028;
}
);
leftKerningGroup = H;
rightKerningGroup = H;
unicode = 019D;
},
{
color = 6;
glyphname = Eng;
lastChange = "2021-05-05 16:46:32 +0000";
layers = (
{
layerId = "F6D8640C-383C-48A8-B63C-DDE9F10207CE";
paths = (
{
closed = 1;
nodes = (
"769 -258 OFFCURVE",
"1037 -205 OFFCURVE",
"1037 44 CURVE SMOOTH",
"1037 260 OFFCURVE",
"1037 500 OFFCURVE",
"1037 750 CURVE",
"627 750 LINE",
"627 346 LINE SMOOTH",
"627 345 OFFCURVE",
"625 344 OFFCURVE",
"625 345 CURVE SMOOTH",
"493 750 LINE",
"20 750 LINE",
"20 500 OFFCURVE",
"20 250 OFFCURVE",
"20 0 CURVE",
"430 0 LINE",
"430 117 OFFCURVE",
"430 233 OFFCURVE",
"430 350 CURVE",
"430 351 OFFCURVE",
"432 351 OFFCURVE",
"432 350 CURVE SMOOTH",
"564 33 LINE",
"564 -15 OFFCURVE",
"525 -24 OFFCURVE",
"449 -6 CURVE",
"503 -228 LINE"
);
}
);
width = 1057;
},
{
layerId = "96858A69-C8A6-410B-90BB-94EA0DA45935";
paths = (
{
closed = 1;
nodes = (
"732 31 OFFCURVE",
"732 143 OFFCURVE",
"732 205 CURVE SMOOTH",
"732 333 OFFCURVE",
"884 538 OFFCURVE",
"864 645 CURVE",
"727 645 LINE",
"727 296 LINE SMOOTH",
"727 171 OFFCURVE",
"589 203 OFFCURVE",
"572 245 CURVE SMOOTH",
"413 645 LINE",
"292 645 LINE",
"302 388 OFFCURVE",
"140 211 OFFCURVE",
"140 115 CURVE",
"350 115 LINE",
"307 194 OFFCURVE",
"291 283 OFFCURVE",
"291 332 CURVE SMOOTH",
"291 501 OFFCURVE",
"474 491 OFFCURVE",
"494 441 CURVE SMOOTH",
"606 160 LINE",
"620 115 OFFCURVE",
"618 70 OFFCURVE",
"554 39 CURVE",
"671 -12 LINE"
);
}
);
width = 1013;
},
{
associatedMasterId = "F6D8640C-383C-48A8-B63C-DDE9F10207CE";
layerId = "5F3F896E-0ACA-40EB-AB2A-AA388AFADC0A";
name = "Mar 18 20, 13:22";
paths = (
{
closed = 1;
nodes = (
"729 -339 OFFCURVE",
"1010 -282 OFFCURVE",
"1007 41 CURVE SMOOTH",
"1007 277 OFFCURVE",
"1007 514 OFFCURVE",
"1007 750 CURVE",
"607 750 LINE",
"607 346 LINE SMOOTH",
"607 345 OFFCURVE",
"605 344 OFFCURVE",
"605 345 CURVE SMOOTH",
"483 750 LINE",
"20 750 LINE",
"20 500 OFFCURVE",
"20 250 OFFCURVE",
"20 0 CURVE",
"420 0 LINE",
"420 117 OFFCURVE",
"420 233 OFFCURVE",
"420 350 CURVE SMOOTH",
"420 351 OFFCURVE",
"422 351 OFFCURVE",
"422 350 CURVE SMOOTH",
"550 28 LINE",
"550 -41 OFFCURVE",
"504 -64 OFFCURVE",
"389 -46 CURVE",
"449 -308 LINE"
);
}
);
width = 1027;
}
);
leftKerningGroup = H;
rightKerningGroup = H;
unicode = 014A;
},
{
color = 6;
glyphname = O;
lastChange = "2021-04-27 11:19:42 +0000";
layers = (
{
anchors = (
{
name = bottom;
position = "{560, 0}";
},
{
name = center;
position = "{560, 375}";
},
{
name = ogonek;
position = "{788, 10}";
},
{
name = top;
position = "{560, 750}";
},
{
name = topleft;
position = "{20, 750}";
},
{
name = topright;
position = "{1100, 750}";
}
);
layerId = "F6D8640C-383C-48A8-B63C-DDE9F10207CE";
paths = (
{
closed = 1;
nodes = (
"927 785 OFFCURVE",
"1110 615 OFFCURVE",
"1110 376 CURVE SMOOTH",
"1110 160 OFFCURVE",
"957 -36 OFFCURVE",
"560 -36 CURVE SMOOTH",
"162 -36 OFFCURVE",
"10 160 OFFCURVE",
"10 376 CURVE SMOOTH",
"10 615 OFFCURVE",
"193 785 OFFCURVE",
"560 785 CURVE SMOOTH"
);
},
{
closed = 1;
nodes = (
"467 462 OFFCURVE",
"435 417 OFFCURVE",
"435 375 CURVE SMOOTH",
"435 331 OFFCURVE",
"468 287 OFFCURVE",
"561 287 CURVE SMOOTH",
"652 287 OFFCURVE",
"685 332 OFFCURVE",
"685 376 CURVE SMOOTH",
"685 415 OFFCURVE",
"654 462 OFFCURVE",
"561 462 CURVE SMOOTH"
);
}
);
width = 1120;
},
{
anchors = (
{
name = bottom;
position = "{550, 0}";
},
{
name = center;
position = "{550, 375}";
},
{
name = ogonek;
position = "{791, 125}";
},
{
name = top;
position = "{550, 750}";
},
{
name = topleft;
position = "{2, 750}";
},
{
name = topright;
position = "{1082, 750}";
}
);
layerId = "96858A69-C8A6-410B-90BB-94EA0DA45935";
paths = (
{
closed = 1;
nodes = (
"786 647 OFFCURVE",
"944 478 OFFCURVE",
"944 279 CURVE SMOOTH",
"944 180 OFFCURVE",
"918 115 OFFCURVE",
"548 115 CURVE SMOOTH",
"-9 115 OFFCURVE",
"255 201 OFFCURVE",
"255 472 CURVE SMOOTH",
"255 644 OFFCURVE",
"125 647 OFFCURVE",
"530 647 CURVE SMOOTH"
);
},
{
closed = 1;
nodes = (
"335 642 OFFCURVE",
"321 601 OFFCURVE",
"321 468 CURVE SMOOTH",
"321 258 OFFCURVE",
"436 120 OFFCURVE",
"577 120 CURVE SMOOTH",
"753 120 OFFCURVE",
"812 320 OFFCURVE",
"812 429 CURVE SMOOTH",
"812 598 OFFCURVE",
"671 642 OFFCURVE",
"530 642 CURVE SMOOTH"
);
}
);
width = 1118;
},
{
anchors = (
{
name = bottom;
position = "{560, 0}";
},
{
name = center;
position = "{560, 375}";
},
{
name = ogonek;
position = "{788, 10}";
},
{
name = top;
position = "{560, 750}";
},
{
name = topleft;
position = "{20, 750}";
},
{
name = topright;
position = "{1100, 750}";
}
);
associatedMasterId = "F6D8640C-383C-48A8-B63C-DDE9F10207CE";
layerId = "102EB1B5-4380-4D67-B7C4-CBE18017271C";
name = "Mar 4 20, 17:00";
paths = (
{
closed = 1;
nodes = (
"927 785 OFFCURVE",
"1110 615 OFFCURVE",
"1110 376 CURVE SMOOTH",
"1110 160 OFFCURVE",
"957 -35 OFFCURVE",
"560 -35 CURVE SMOOTH",
"162 -35 OFFCURVE",
"10 160 OFFCURVE",
"10 376 CURVE SMOOTH",
"10 615 OFFCURVE",
"193 785 OFFCURVE",
"560 785 CURVE SMOOTH"
);
},
{
closed = 1;
nodes = (
"474 460 OFFCURVE",
"441 417 OFFCURVE",
"441 376 CURVE SMOOTH",
"441 333 OFFCURVE",
"475 290 OFFCURVE",
"568 290 CURVE SMOOTH",
"659 290 OFFCURVE",
"692 334 OFFCURVE",
"692 377 CURVE SMOOTH",
"692 415 OFFCURVE",
"661 460 OFFCURVE",
"568 460 CURVE SMOOTH"
);
}
);
width = 1120;
}
);
leftKerningGroup = O;
rightKerningGroup = O;
unicode = 004F;
},
{
color = 6;
glyphname = Oogonek;
lastChange = "2021-05-06 22:02:42 +0000";
layers = (
{
anchors = (
{
name = bottom;
position = "{542, 0}";
},
{
name = center;
position = "{542, 375}";
},
{
name = ogonek;
position = "{661, 115}";
},
{
name = top;
position = "{577, 750}";
},
{
name = topleft;
position = "{37, 750}";
},
{
name = topright;
position = "{1117, 750}";
}
);
layerId = "96858A69-C8A6-410B-90BB-94EA0DA45935";
paths = (
{
closed = 1;
nodes = (
"565 -105 OFFCURVE",
"611 -77 OFFCURVE",
"639 -34 CURVE",
"639 -33 LINE",
"634 -34 OFFCURVE",
"629 -34 OFFCURVE",
"624 -34 CURVE SMOOTH",
"586 -34 OFFCURVE",
"556 -10 OFFCURVE",
"556 25 CURVE SMOOTH",
"556 70 OFFCURVE",
"591 113 OFFCURVE",
"671 117 CURVE SMOOTH",
"889 126 OFFCURVE",
"944 168 OFFCURVE",
"944 279 CURVE SMOOTH",
"944 478 OFFCURVE",
"786 648 OFFCURVE",
"530 648 CURVE SMOOTH",
"125 648 OFFCURVE",
"255 644 OFFCURVE",
"255 472 CURVE SMOOTH",
"255 201 OFFCURVE",
"-9 115 OFFCURVE",
"548 115 CURVE",
"529 118 LINE",
"671 100 OFFCURVE",
"425 57 OFFCURVE",
"425 -45 CURVE SMOOTH",
"425 -77 OFFCURVE",
"454 -105 OFFCURVE",
"510 -105 CURVE SMOOTH"
);
},
{
closed = 1;
nodes = (
"436 120 OFFCURVE",
"321 258 OFFCURVE",
"321 468 CURVE SMOOTH",
"321 601 OFFCURVE",
"335 643 OFFCURVE",
"530 643 CURVE SMOOTH",
"671 643 OFFCURVE",
"812 598 OFFCURVE",
"812 429 CURVE SMOOTH",
"812 320 OFFCURVE",
"753 120 OFFCURVE",
"577 120 CURVE SMOOTH"
);
}
);
width = 1118;
},
{
anchors = (
{
name = bottom;
position = "{560, 0}";
},
{
name = center;
position = "{560, 375}";
},
{
name = ogonek;
position = "{788, 10}";
},
{
name = top;
position = "{560, 750}";
},
{
name = topleft;
position = "{20, 750}";
},
{
name = topright;
position = "{1100, 750}";
}
);
background = {
components = (
{
name = O;
}
);
};
layerId = "F6D8640C-383C-48A8-B63C-DDE9F10207CE";
name = Regular;
paths = (
{
closed = 1;
nodes = (
"706 -308 OFFCURVE",
"750 -300 OFFCURVE",
"805 -285 CURVE",
"805 -89 LINE",
"775 -101 OFFCURVE",
"752 -105 OFFCURVE",
"722 -105 CURVE SMOOTH",
"680 -105 OFFCURVE",
"656 -93 OFFCURVE",
"656 -74 CURVE SMOOTH",
"656 -49 OFFCURVE",
"680 -31 OFFCURVE",
"767 -14 CURVE SMOOTH",
"971 26 OFFCURVE",
"1110 175 OFFCURVE",
"1110 376 CURVE SMOOTH",
"1110 615 OFFCURVE",
"927 785 OFFCURVE",
"560 785 CURVE SMOOTH",
"193 785 OFFCURVE",
"10 615 OFFCURVE",
"10 376 CURVE SMOOTH",
"10 184 OFFCURVE",
"130 8 OFFCURVE",
"435 -29 CURVE",
"435 -22 LINE",
"403 -53 OFFCURVE",
"387 -94 OFFCURVE",
"387 -140 CURVE SMOOTH",
"387 -247 OFFCURVE",
"472 -308 OFFCURVE",
"643 -308 CURVE SMOOTH"
);
},
{
closed = 1;
nodes = (
"468 287 OFFCURVE",
"435 331 OFFCURVE",
"435 375 CURVE SMOOTH",
"435 417 OFFCURVE",
"467 462 OFFCURVE",
"561 462 CURVE SMOOTH",
"654 462 OFFCURVE",
"685 415 OFFCURVE",
"685 376 CURVE SMOOTH",
"685 332 OFFCURVE",
"652 287 OFFCURVE",
"561 287 CURVE SMOOTH"
);
}
);
width = 1120;
},
{
anchors = (
{
name = bottom;
position = "{560, 0}";
},
{
name = center;
position = "{560, 375}";
},
{
name = ogonek;
position = "{788, 10}";
},
{
name = top;
position = "{560, 750}";
},
{
name = topleft;
position = "{20, 750}";
},
{
name = topright;
position = "{1100, 750}";
}
);
associatedMasterId = "F6D8640C-383C-48A8-B63C-DDE9F10207CE";
layerId = "AF5D851D-BFDD-41C8-9DFE-5FECCFC39C1D";
name = "06 May 21, 23:57";
paths = (
{
closed = 1;
nodes = (
"761 -308 OFFCURVE",
"803 -300 OFFCURVE",
"858 -285 CURVE",
"858 -89 LINE",
"828 -101 OFFCURVE",
"803 -105 OFFCURVE",
"775 -105 CURVE SMOOTH",
"741 -105 OFFCURVE",
"724 -95 OFFCURVE",
"724 -73 CURVE SMOOTH",
"724 -39 OFFCURVE",
"769 -17 OFFCURVE",
"835 6 CURVE SMOOTH",
"1019 71 OFFCURVE",
"1110 205 OFFCURVE",
"1110 374 CURVE SMOOTH",
"1110 590 OFFCURVE",
"957 785 OFFCURVE",
"560 785 CURVE SMOOTH",
"163 785 OFFCURVE",
"10 590 OFFCURVE",
"10 374 CURVE SMOOTH",
"10 135 OFFCURVE",
"193 -35 OFFCURVE",
"560 -35 CURVE",
"522 10 LINE",
"478 -38 OFFCURVE",
"455 -95 OFFCURVE",
"455 -144 CURVE SMOOTH",
"455 -245 OFFCURVE",
"536 -308 OFFCURVE",
"699 -308 CURVE SMOOTH"
);
},
{
closed = 1;
nodes = (
"468 287 OFFCURVE",
"435 331 OFFCURVE",
"435 375 CURVE SMOOTH",
"435 417 OFFCURVE",
"467 462 OFFCURVE",
"561 462 CURVE SMOOTH",
"654 462 OFFCURVE",
"685 415 OFFCURVE",
"685 376 CURVE SMOOTH",
"685 332 OFFCURVE",
"652 287 OFFCURVE",
"561 287 CURVE SMOOTH"
);
}
);
width = 1120;
}
);
leftKerningGroup = O;
leftMetricsKey = O;
rightKerningGroup = O;
rightMetricsKey = O;
unicode = 01EA;
},
{
color = 3;
glyphname = Oslash;
lastChange = "2021-04-02 09:45:05 +0000";
layers = (
{
components = (
{
name = O;
}
);
layerId = "F6D8640C-383C-48A8-B63C-DDE9F10207CE";
paths = (
{
closed = 1;
nodes = (
"977 838 LINE",
"1040 772 LINE",
"147 -88 LINE",
"84 -22 LINE"
);
}
);
width = 1120;
},
{
components = (
{
name = O;
}
);
layerId = "96858A69-C8A6-410B-90BB-94EA0DA45935";
paths = (
{
closed = 1;
nodes = (
"870 681 LINE",
"879 672 LINE",
"252 55 LINE",
"243 64 LINE"
);
}
);
width = 1120;
}
);
leftKerningGroup = O;
rightKerningGroup = O;
unicode = 00D8;
},
{
color = 6;
glyphname = OE;
lastChange = "2021-04-02 09:45:05 +0000";
layers = (
{
anchors = (
{
name = bottom;
position = "{742, 0}";
},
{
name = top;
position = "{742, 750}";
}
);
background = {
anchors = (
{
name = bottom;
position = "{1046, 0}";
},
{
name = ogonek;
position = "{1376, 10}";
},
{
name = top;
position = "{1046, 750}";
},
{
name = topleft;
position = "{626, 750}";
}
);
};
layerId = "F6D8640C-383C-48A8-B63C-DDE9F10207CE";
paths = (
{
closed = 1;
nodes = (
"637 -25 OFFCURVE",
"704 -16 OFFCURVE",
"763 0 CURVE",
"797 0 OFFCURVE",
"832 0 OFFCURVE",
"866 0 CURVE",
"1472 0 LINE",
"1472 242 LINE",
"1061 242 LINE SMOOTH",
"1060 242 OFFCURVE",
"1060 242 OFFCURVE",
"1060 243 CURVE SMOOTH",
"1060 299 LINE SMOOTH",
"1060 300 OFFCURVE",
"1060 300 OFFCURVE",
"1061 300 CURVE SMOOTH",
"1461 300 LINE",
"1461 441 LINE",
"1061 441 LINE SMOOTH",
"1060 441 OFFCURVE",
"1060 441 OFFCURVE",
"1060 442 CURVE SMOOTH",
"1060 493 LINE SMOOTH",
"1060 494 OFFCURVE",
"1060 494 OFFCURVE",
"1061 494 CURVE SMOOTH",
"1466 494 LINE",
"1466 750 LINE",
"942 750 LINE",
"765 750 LINE",
"706 766 OFFCURVE",
"638 775 OFFCURVE",
"560 775 CURVE SMOOTH",
"163 775 OFFCURVE",
"10 585 OFFCURVE",
"10 374 CURVE SMOOTH",
"10 141 OFFCURVE",
"193 -25 OFFCURVE",
"560 -25 CURVE SMOOTH"
);
},
{
closed = 1;
nodes = (
"467 294 OFFCURVE",
"435 335 OFFCURVE",
"435 374 CURVE SMOOTH",
"435 415 OFFCURVE",
"468 456 OFFCURVE",
"561 456 CURVE SMOOTH",
"605 456 OFFCURVE",
"635 446 OFFCURVE",
"655 432 CURVE",
"655 318 LINE",
"635 304 OFFCURVE",
"605 294 OFFCURVE",
"561 294 CURVE SMOOTH"
);
}
);
width = 1484;
},
{
anchors = (
{
name = bottom;
position = "{783, 0}";
},
{
name = top;
position = "{783, 750}";
}
);
layerId = "96858A69-C8A6-410B-90BB-94EA0DA45935";
paths = (
{
closed = 1;
nodes = (
"706 107 OFFCURVE",
"767 158 OFFCURVE",
"846 158 CURVE",
"881 158 OFFCURVE",
"906 134 OFFCURVE",
"933 115 CURVE SMOOTH",
"1371 115 LINE",
"1371 120 LINE",
"1179 120 LINE",
"989 120 OFFCURVE",
"965 244 OFFCURVE",
"965 294 CURVE",
"965 296 LINE",
"965 360 OFFCURVE",
"1018 382 OFFCURVE",
"1066 382 CURVE SMOOTH",
"1327 382 LINE",
"1327 382 LINE",
"1066 382 LINE SMOOTH",
"1044 382 OFFCURVE",
"965 387 OFFCURVE",
"965 482 CURVE",
"965 485 LINE",
"965 597 OFFCURVE",
"1025 639 OFFCURVE",
"1121 644 CURVE SMOOTH",
"1275 644 LINE",
"1275 644 LINE",
"960 644 LINE",
"912 644 LINE SMOOTH",
"820 644 OFFCURVE",
"685 651 OFFCURVE",
"602 651 CURVE",
"259 651 OFFCURVE",
"258 649 OFFCURVE",
"258 472 CURVE",
"258 201 OFFCURVE",
"-6 107 OFFCURVE",
"551 107 CURVE"
);
},
{
closed = 1;
nodes = (
"439 112 OFFCURVE",
"324 258 OFFCURVE",
"324 468 CURVE",
"324 601 OFFCURVE",
"458 646 OFFCURVE",
"602 646 CURVE",
"749 646 OFFCURVE",
"815 598 OFFCURVE",
"815 429 CURVE",
"815 425 LINE",
"815 315 OFFCURVE",
"754 112 OFFCURVE",
"580 112 CURVE"
);
}
);
width = 1473;
}
);
leftKerningGroup = O;
rightKerningGroup = E;
unicode = 0152;
},
{
color = 6;
glyphname = P;
lastChange = "2021-04-02 09:45:05 +0000";
layers = (
{
anchors = (
{
name = bottom;
position = "{499, 0}";
},
{
name = top;
position = "{499, 750}";
}
);
layerId = "F6D8640C-383C-48A8-B63C-DDE9F10207CE";
paths = (
{
closed = 1;
nodes = (
"20 750 LINE",
"20 500 OFFCURVE",
"20 250 OFFCURVE",
"20 0 CURVE",
"420 0 LINE",
"420 140 LINE SMOOTH",
"420 141 OFFCURVE",
"421 142 OFFCURVE",
"422 142 CURVE SMOOTH",
"647 142 LINE SMOOTH",
"890 142 OFFCURVE",
"1016 297 OFFCURVE",
"1016 451 CURVE SMOOTH",
"1016 601 OFFCURVE",
"895 750 OFFCURVE",
"647 750 CURVE SMOOTH"
);
},
{
closed = 1;
nodes = (
"422 345 LINE SMOOTH",
"421 345 OFFCURVE",
"420 346 OFFCURVE",
"420 346 CURVE SMOOTH",
"420 483 LINE SMOOTH",
"420 484 OFFCURVE",
"421 485 OFFCURVE",
"422 485 CURVE SMOOTH",
"528 485 LINE SMOOTH",
"589 485 OFFCURVE",
"619 451 OFFCURVE",
"619 416 CURVE SMOOTH",
"619 381 OFFCURVE",
"588 345 OFFCURVE",
"528 345 CURVE SMOOTH"
);
}
);
width = 1021;
},
{
anchors = (
{
name = bottom;
position = "{539, 0}";
},
{
name = top;
position = "{539, 750}";
}
);
background = {
components = (
{
name = O;
transform = "{1, 0, 0, 1, -56, 0}";
}
);
};
layerId = "96858A69-C8A6-410B-90BB-94EA0DA45935";
paths = (
{
closed = 1;
nodes = (
"204 645 LINE",
"264 396 OFFCURVE",
"124 236 OFFCURVE",
"138 115 CURVE",
"313 115 LINE",
"297 170 LINE SMOOTH",
"272 255 OFFCURVE",
"326 287 OFFCURVE",
"409 287 CURVE SMOOTH",
"660 287 LINE SMOOTH",
"813 287 OFFCURVE",
"893 379 OFFCURVE",
"893 469 CURVE SMOOTH",
"893 558 OFFCURVE",
"817 645 OFFCURVE",
"660 645 CURVE SMOOTH"
);
},
{
closed = 1;
nodes = (
"409 287 LINE SMOOTH",
"359 287 OFFCURVE",
"280 344 OFFCURVE",
"280 464 CURVE SMOOTH",
"280 478 LINE SMOOTH",
"280 575 OFFCURVE",
"320 645 OFFCURVE",
"416 645 CURVE SMOOTH",
"580 645 LINE SMOOTH",
"699 645 OFFCURVE",
"749 557 OFFCURVE",
"749 468 CURVE SMOOTH",
"749 378 OFFCURVE",
"697 287 OFFCURVE",
"614 287 CURVE SMOOTH"
);
}
);
width = 1002;
},
{
anchors = (
{
name = bottom;
position = "{504, 0}";
},
{
name = top;
position = "{504, 750}";
}
);
associatedMasterId = "F6D8640C-383C-48A8-B63C-DDE9F10207CE";
layerId = "78EA28C6-12A7-4F5F-8C5B-E123530C636A";
name = "Mar 4 20, 17:04";
paths = (
{
closed = 1;
nodes = (
"20 750 LINE",
"20 500 OFFCURVE",
"20 250 OFFCURVE",
"20 0 CURVE",
"425 0 LINE",
"425 140 LINE SMOOTH",
"425 141 OFFCURVE",
"426 142 OFFCURVE",
"427 142 CURVE SMOOTH",
"629 142 LINE SMOOTH",
"1111 142 OFFCURVE",
"1131 750 OFFCURVE",
"629 750 CURVE SMOOTH"
);
},
{
closed = 1;
nodes = (
"427 351 LINE SMOOTH",
"426 351 OFFCURVE",
"425 352 OFFCURVE",
"425 353 CURVE SMOOTH",
"425 479 LINE SMOOTH",
"425 480 OFFCURVE",
"426 481 OFFCURVE",
"427 481 CURVE SMOOTH",
"519 481 LINE SMOOTH",
"637 481 OFFCURVE",
"634 351 OFFCURVE",
"519 351 CURVE SMOOTH"
);
}
);
width = 1008;
}
);
leftKerningGroup = H;
rightKerningGroup = P;
unicode = 0050;
},
{
color = 6;
glyphname = Thorn;
lastChange = "2021-04-02 09:45:05 +0000";
layers = (
{
anchors = (
{
name = bottom;
position = "{532, 0}";
},
{
name = top;
position = "{532, 750}";
}
);
layerId = "96858A69-C8A6-410B-90BB-94EA0DA45935";
paths = (
{
closed = 1;
nodes = (
"306 115 LINE",
"293 159 LINE SMOOTH",
"284 188 OFFCURVE",
"317 220 OFFCURVE",
"396 220 CURVE SMOOTH",
"647 220 LINE SMOOTH",
"949 220 OFFCURVE",
"965 578 OFFCURVE",
"647 578 CURVE SMOOTH",
"567 578 OFFCURVE",
"492 578 OFFCURVE",
"416 578 CURVE SMOOTH",
"380 578 OFFCURVE",
"279 589 OFFCURVE",
"327 645 CURVE",
"183 645 LINE",
"257 345 OFFCURVE",
"117 236 OFFCURVE",
"131 115 CURVE"
);
},
{
closed = 1;
nodes = (
"349 220 OFFCURVE",
"312 283 OFFCURVE",
"294 410 CURVE SMOOTH",
"292 424 LINE SMOOTH",
"278 524 OFFCURVE",
"311 578 OFFCURVE",
"403 578 CURVE SMOOTH",
"567 578 LINE SMOOTH",
"806 578 OFFCURVE",
"766 220 OFFCURVE",
"601 220 CURVE SMOOTH",
"396 220 LINE SMOOTH"
);
}
);
width = 999;
},
{
anchors = (
{
name = bottom;
position = "{504, 0}";
},
{
name = top;
position = "{504, 750}";
}
);
layerId = "F6D8640C-383C-48A8-B63C-DDE9F10207CE";
paths = (
{
closed = 1;
nodes = (
"421 0 LINE",
"421 68 LINE",
"421 69 OFFCURVE",
"422 70 OFFCURVE",
"423 70 CURVE SMOOTH",
"629 70 LINE SMOOTH",
"1111 70 OFFCURVE",
"1131 686 OFFCURVE",
"629 686 CURVE SMOOTH",
"561 686 OFFCURVE",
"491 686 OFFCURVE",
"423 686 CURVE",
"423 708 OFFCURVE",
"423 728 OFFCURVE",
"423 750 CURVE",
"20 750 LINE",
"20 476 OFFCURVE",
"20 202 OFFCURVE",
"20 0 CURVE"
);
},
{
closed = 1;
nodes = (
"422 279 OFFCURVE",
"421 280 OFFCURVE",
"421 281 CURVE SMOOTH",
"421 417 LINE SMOOTH",
"421 418 OFFCURVE",
"422 419 OFFCURVE",
"423 419 CURVE SMOOTH",
"521 419 LINE SMOOTH",
"629 419 OFFCURVE",
"626 279 OFFCURVE",
"521 279 CURVE SMOOTH",
"423 279 LINE SMOOTH"
);
}
);
width = 1004;
}
);
leftKerningGroup = H;
rightKerningGroup = P;
unicode = 00DE;
},
{
color = 6;
glyphname = Q;
lastChange = "2021-04-02 09:45:05 +0000";
layers = (
{
anchors = (
{
name = bottom;
position = "{567, 0}";
},
{
name = top;
position = "{567, 750}";
}
);
background = {
components = (
{
name = O;
}
);
};
layerId = "96858A69-C8A6-410B-90BB-94EA0DA45935";
paths = (
{
closed = 1;
nodes = (
"846 226 OFFCURVE",
"957 295 OFFCURVE",
"957 410 CURVE SMOOTH",
"957 563 OFFCURVE",
"819 674 OFFCURVE",
"578 674 CURVE SMOOTH",
"308 674 OFFCURVE",
"53 544 OFFCURVE",
"181 437 CURVE SMOOTH",
"343 301 OFFCURVE",
"358 115 OFFCURVE",
"530 115 CURVE SMOOTH",
"584 115 OFFCURVE",
"584 97 OFFCURVE",
"555 29 CURVE SMOOTH",
"549 15 OFFCURVE",
"548 12 OFFCURVE",
"543 -3 CURVE",
"874 -21 LINE",
"875 -16 LINE",
"749 -7 LINE SMOOTH",
"569 6 OFFCURVE",
"599 171 OFFCURVE",
"694 192 CURVE SMOOTH"
);
},
{
closed = 1;
nodes = (
"671 667 OFFCURVE",
"813 644 OFFCURVE",
"813 428 CURVE SMOOTH",
"813 330 OFFCURVE",
"778 192 OFFCURVE",
"614 192 CURVE SMOOTH",
"483 192 OFFCURVE",
"288 301 OFFCURVE",
"288 505 CURVE SMOOTH",
"288 629 OFFCURVE",
"418 667 OFFCURVE",
"559 667 CURVE SMOOTH"
);
}
);
width = 1110;
},
{
anchors = (
{
name = bottom;
position = "{559, 0}";
},
{
name = top;
position = "{559, 750}";
}
);
background = {
components = (
{
name = O;
transform = "{1, 0, 0, 0.9296, -1, 55}";
}
);
};
layerId = "F6D8640C-383C-48A8-B63C-DDE9F10207CE";
paths = (
{
closed = 1;
nodes = (
"901 100 OFFCURVE",
"1103 220 OFFCURVE",
"1103 426 CURVE SMOOTH",
"1103 666 OFFCURVE",
"877 786 OFFCURVE",
"557 786 CURVE SMOOTH",
"236 786 OFFCURVE",
"10 666 OFFCURVE",
"10 406 CURVE SMOOTH",
"10 164 OFFCURVE",
"207 44 OFFCURVE",
"424 4 CURVE",
"425 4 OFFCURVE",
"425 3 OFFCURVE",
"425 2 CURVE",
"416 -35 OFFCURVE",
"406 -73 OFFCURVE",
"397 -110 CURVE",
"1028 -140 LINE",
"1091 129 LINE",
"695 84 LINE",
"695 84 OFFCURVE",
"695 89 OFFCURVE",
"695 89 CURVE"
);
},
{
closed = 1;
nodes = (
"651 487 OFFCURVE",
"684 442 OFFCURVE",
"684 399 CURVE SMOOTH",
"684 361 OFFCURVE",
"653 315 OFFCURVE",
"560 315 CURVE SMOOTH",
"466 315 OFFCURVE",
"434 358 OFFCURVE",
"434 400 CURVE SMOOTH",
"434 443 OFFCURVE",
"467 487 OFFCURVE",
"560 487 CURVE SMOOTH"
);
}
);
width = 1113;
},
{
anchors = (
{
name = bottom;
position = "{559, 0}";
},
{
name = top;
position = "{559, 750}";
}
);
associatedMasterId = "F6D8640C-383C-48A8-B63C-DDE9F10207CE";
background = {
components = (
{
name = O;
transform = "{1, 0, 0, 1, -1, 0}";
}
);
};
layerId = "C3D55AF5-18C1-4FA7-A593-3401AECC1CCE";
name = "Mar 4 20, 17:30";
paths = (
{
closed = 1;
nodes = (
"902 109 OFFCURVE",
"1103 220 OFFCURVE",
"1103 426 CURVE SMOOTH",
"1103 927 OFFCURVE",
"10 906 OFFCURVE",
"10 374 CURVE SMOOTH",
"10 214 OFFCURVE",
"159 46 OFFCURVE",
"415 -6 CURVE",
"416 -6 OFFCURVE",
"416 -7 OFFCURVE",
"416 -8 CURVE",
"410 -42 OFFCURVE",
"403 -76 OFFCURVE",
"397 -110 CURVE",
"1028 -140 LINE",
"1091 129 LINE",
"695 84 LINE",
"695 84 OFFCURVE",
"695 89 OFFCURVE",
"695 89 CURVE"
);
},
{
closed = 1;
nodes = (
"651 477 OFFCURVE",
"684 432 OFFCURVE",
"684 389 CURVE SMOOTH",
"684 351 OFFCURVE",
"653 305 OFFCURVE",
"560 305 CURVE SMOOTH",
"466 305 OFFCURVE",
"434 348 OFFCURVE",
"434 390 CURVE SMOOTH",
"434 433 OFFCURVE",
"467 477 OFFCURVE",
"560 477 CURVE SMOOTH"
);
}
);
width = 1113;
}
);
leftKerningGroup = O;
rightKerningGroup = O;
unicode = 0051;
},
{
color = 6;
glyphname = R;
lastChange = "2021-04-27 11:20:19 +0000";
layers = (
{
anchors = (
{
name = bottom;
position = "{511, 0}";
},
{
name = top;
position = "{511, 750}";
}
);
layerId = "F6D8640C-383C-48A8-B63C-DDE9F10207CE";
paths = (
{
closed = 1;
nodes = (
"20 500 OFFCURVE",
"20 250 OFFCURVE",
"20 0 CURVE",
"420 0 LINE",
"420 109 OFFCURVE",
"420 303 OFFCURVE",
"420 305 CURVE",
"420 300 OFFCURVE",
"420 313 OFFCURVE",
"420 444 CURVE",
"420 445 OFFCURVE",
"421 446 OFFCURVE",
"422 446 CURVE SMOOTH",
"536 446 LINE SMOOTH",
"590 446 OFFCURVE",
"617 411 OFFCURVE",
"617 376 CURVE SMOOTH",
"617 341 OFFCURVE",
"590 306 OFFCURVE",
"536 306 CURVE SMOOTH",
"420 306 LINE",
"459 204 OFFCURVE",
"498 102 OFFCURVE",
"537 0 CURVE",
"1037 0 LINE",
"878 297 LINE",
"631 297 LINE SMOOTH",
"631 297 OFFCURVE",
"631 299 OFFCURVE",
"631 299 CURVE",
"631 299 OFFCURVE",
"631 301 OFFCURVE",
"631 301 CURVE SMOOTH",
"641 301 OFFCURVE",
"697 301 OFFCURVE",
"705 301 CURVE SMOOTH",
"895 301 OFFCURVE",
"990 418 OFFCURVE",
"990 533 CURVE SMOOTH",
"990 643 OFFCURVE",
"903 750 OFFCURVE",
"728 750 CURVE SMOOTH",
"20 750 LINE"
);
}
);
width = 1029;
},
{
anchors = (
{
name = bottom;
position = "{510, 0}";
},
{
name = top;
position = "{510, 750}";
}
);
associatedMasterId = "F6D8640C-383C-48A8-B63C-DDE9F10207CE";
layerId = "EFD04641-9E48-42FB-8AA0-86BD80F9644A";
name = "Mar 4 20, 16:48";
paths = (
{
closed = 1;
nodes = (
"425 109 OFFCURVE",
"425 331 OFFCURVE",
"425 333 CURVE",
"425 328 OFFCURVE",
"425 328 OFFCURVE",
"425 461 CURVE",
"425 462 OFFCURVE",
"426 463 OFFCURVE",
"427 463 CURVE SMOOTH",
"519 463 LINE SMOOTH",
"584 463 OFFCURVE",
"611 430 OFFCURVE",
"610 398 CURVE SMOOTH",
"609 366 OFFCURVE",
"582 334 OFFCURVE",
"519 334 CURVE SMOOTH",
"425 334 LINE",
"428 327 OFFCURVE",
"431 318 OFFCURVE",
"434 311 CURVE",
"474 207 OFFCURVE",
"514 104 OFFCURVE",
"554 0 CURVE",
"1013 0 LINE",
"911 247 LINE",
"639 244 LINE SMOOTH",
"639 244 OFFCURVE",
"639 246 OFFCURVE",
"639 246 CURVE",
"639 246 OFFCURVE",
"639 248 OFFCURVE",
"639 248 CURVE SMOOTH",
"672 248 OFFCURVE",
"748 255 OFFCURVE",
"789 265 CURVE SMOOTH",
"1085 337 OFFCURVE",
"1023 750 OFFCURVE",
"709 750 CURVE SMOOTH",
"20 750 LINE",
"20 500 OFFCURVE",
"20 250 OFFCURVE",
"20 0 CURVE",
"425 0 LINE"
);
}
);
width = 1013;
},
{
anchors = (
{
name = bottom;
position = "{565, 0}";
},
{
name = top;
position = "{565, 750}";
}
);
associatedMasterId = "F6D8640C-383C-48A8-B63C-DDE9F10207CE";
background = {
components = (
{
name = P;
}
);
};
layerId = "2FC6F868-EC73-4835-8E76-8F6608308B9C";
name = "Mar 4 20, 18:41";
paths = (
{
closed = 1;
nodes = (
"20 500 OFFCURVE",
"20 250 OFFCURVE",
"20 0 CURVE",
"420 0 LINE",
"420 109 OFFCURVE",
"420 332 OFFCURVE",
"420 334 CURVE",
"420 329 OFFCURVE",
"420 350 OFFCURVE",
"420 466 CURVE",
"420 467 OFFCURVE",
"421 468 OFFCURVE",
"422 468 CURVE SMOOTH",
"523 468 LINE SMOOTH",
"583 468 OFFCURVE",
"608 435 OFFCURVE",
"608 401 CURVE SMOOTH",
"608 368 OFFCURVE",
"583 335 OFFCURVE",
"523 335 CURVE SMOOTH",
"420 335 LINE",
"423 328 OFFCURVE",
"426 319 OFFCURVE",
"429 312 CURVE",
"469 208 OFFCURVE",
"509 104 OFFCURVE",
"549 0 CURVE",
"1059 0 LINE",
"953 217 LINE",
"618 218 LINE SMOOTH",
"618 218 OFFCURVE",
"618 220 OFFCURVE",
"618 220 CURVE",
"618 220 OFFCURVE",
"618 222 OFFCURVE",
"618 222 CURVE SMOOTH",
"629 222 OFFCURVE",
"640 222 OFFCURVE",
"650 222 CURVE SMOOTH",
"883 222 OFFCURVE",
"1028 326 OFFCURVE",
"1028 494 CURVE SMOOTH",
"1028 624 OFFCURVE",
"930 750 OFFCURVE",
"733 750 CURVE SMOOTH",
"20 750 LINE"
);
}
);
width = 1039;
},
{
anchors = (
{
name = bottom;
position = "{565, 0}";
},
{
name = top;
position = "{565, 750}";
}
);
associatedMasterId = "F6D8640C-383C-48A8-B63C-DDE9F10207CE";
background = {
components = (
{
name = P;
}
);
};
layerId = "698F8558-9F5E-4BAD-94A4-7218A830A7B3";
name = "Mar 4 20, 18:43";
paths = (
{
closed = 1;
nodes = (
"20 500 OFFCURVE",
"20 250 OFFCURVE",
"20 0 CURVE",
"420 0 LINE",
"420 109 OFFCURVE",
"420 332 OFFCURVE",
"420 334 CURVE",
"420 329 OFFCURVE",
"420 350 OFFCURVE",
"420 466 CURVE",
"420 467 OFFCURVE",
"421 468 OFFCURVE",
"422 468 CURVE SMOOTH",
"523 468 LINE SMOOTH",
"583 468 OFFCURVE",
"608 435 OFFCURVE",
"608 401 CURVE SMOOTH",
"608 368 OFFCURVE",
"583 335 OFFCURVE",
"523 335 CURVE SMOOTH",
"420 335 LINE",
"423 328 OFFCURVE",
"426 319 OFFCURVE",
"429 312 CURVE",
"469 208 OFFCURVE",
"509 104 OFFCURVE",
"549 0 CURVE",
"1059 0 LINE",
"958 198 LINE",
"611 199 LINE SMOOTH",
"611 199 OFFCURVE",
"611 201 OFFCURVE",
"611 201 CURVE",
"611 201 OFFCURVE",
"611 203 OFFCURVE",
"611 203 CURVE SMOOTH",
"622 203 OFFCURVE",
"633 203 OFFCURVE",
"644 203 CURVE SMOOTH",
"885 203 OFFCURVE",
"1035 310 OFFCURVE",
"1035 485 CURVE SMOOTH",
"1035 620 OFFCURVE",
"933 750 OFFCURVE",
"729 750 CURVE SMOOTH",
"20 750 LINE"
);
}
);
width = 1039;
},
{
anchors = (
{
name = bottom;
position = "{565, 0}";
},
{
name = top;
position = "{565, 750}";
}
);
associatedMasterId = "F6D8640C-383C-48A8-B63C-DDE9F10207CE";
background = {
components = (
{
name = P;
}
);
};
layerId = "FB6FC9BF-E19F-46FE-A1D2-CE8449A479A4";
name = "Mar 4 20, 20:19";
paths = (
{
closed = 1;
nodes = (
"20 500 OFFCURVE",
"20 250 OFFCURVE",
"20 0 CURVE",
"420 0 LINE",
"420 109 OFFCURVE",
"420 332 OFFCURVE",
"420 334 CURVE",
"420 329 OFFCURVE",
"420 350 OFFCURVE",
"420 466 CURVE",
"420 467 OFFCURVE",
"421 468 OFFCURVE",
"422 468 CURVE SMOOTH",
"523 468 LINE SMOOTH",
"583 468 OFFCURVE",
"608 435 OFFCURVE",
"608 401 CURVE SMOOTH",
"608 368 OFFCURVE",
"583 335 OFFCURVE",
"523 335 CURVE SMOOTH",
"420 335 LINE",
"423 328 OFFCURVE",
"426 319 OFFCURVE",
"429 312 CURVE",
"469 208 OFFCURVE",
"509 104 OFFCURVE",
"549 0 CURVE",
"1059 0 LINE",
"967 198 LINE",
"622 213 LINE SMOOTH",
"622 213 OFFCURVE",
"622 215 OFFCURVE",
"622 215 CURVE",
"622 215 OFFCURVE",
"622 217 OFFCURVE",
"622 217 CURVE SMOOTH",
"633 217 OFFCURVE",
"643 217 OFFCURVE",
"654 217 CURVE SMOOTH",
"889 217 OFFCURVE",
"1035 321 OFFCURVE",
"1035 492 CURVE SMOOTH",
"1035 623 OFFCURVE",
"936 750 OFFCURVE",
"737 750 CURVE SMOOTH",
"20 750 LINE"
);
}
);
width = 1039;
},
{
anchors = (
{
name = bottom;
position = "{565, 0}";
},
{
name = top;
position = "{565, 750}";
}
);
associatedMasterId = "F6D8640C-383C-48A8-B63C-DDE9F10207CE";
background = {
components = (
{
name = P;
}
);
};
layerId = "B985B4D1-367F-418E-BA78-75A81C45820E";
name = "Mar 4 20, 20:20";
paths = (
{
closed = 1;
nodes = (
"20 500 OFFCURVE",
"20 250 OFFCURVE",
"20 0 CURVE",
"420 0 LINE",
"420 109 OFFCURVE",
"420 332 OFFCURVE",
"420 334 CURVE",
"420 329 OFFCURVE",
"420 350 OFFCURVE",
"420 466 CURVE",
"420 467 OFFCURVE",
"421 468 OFFCURVE",
"422 468 CURVE SMOOTH",
"523 468 LINE SMOOTH",
"583 468 OFFCURVE",
"608 435 OFFCURVE",
"608 401 CURVE SMOOTH",
"608 368 OFFCURVE",
"583 335 OFFCURVE",
"523 335 CURVE SMOOTH",
"420 335 LINE",
"423 328 OFFCURVE",
"426 319 OFFCURVE",
"429 312 CURVE",
"469 208 OFFCURVE",
"509 104 OFFCURVE",
"549 0 CURVE",
"1059 0 LINE",
"967 198 LINE",
"622 213 LINE SMOOTH",
"622 213 OFFCURVE",
"622 215 OFFCURVE",
"622 215 CURVE",
"622 215 OFFCURVE",
"622 217 OFFCURVE",
"622 217 CURVE SMOOTH",
"633 217 OFFCURVE",
"643 217 OFFCURVE",
"654 217 CURVE SMOOTH",
"889 217 OFFCURVE",
"1035 321 OFFCURVE",
"1035 492 CURVE SMOOTH",
"1035 623 OFFCURVE",
"936 750 OFFCURVE",
"737 750 CURVE SMOOTH",
"20 750 LINE"
);
}
);
width = 1039;
},
{
anchors = (
{
name = bottom;
position = "{565, 0}";
},
{
name = top;
position = "{565, 750}";
}
);
associatedMasterId = "F6D8640C-383C-48A8-B63C-DDE9F10207CE";
background = {
components = (
{
name = P;
}
);
};
layerId = "ACAF4F6B-12D6-4E60-8D05-BB672519BA7B";
name = "Mar 4 20, 21:40";
paths = (
{
closed = 1;
nodes = (
"20 500 OFFCURVE",
"20 250 OFFCURVE",
"20 0 CURVE",
"420 0 LINE",
"420 109 OFFCURVE",
"420 332 OFFCURVE",
"420 334 CURVE",
"420 329 OFFCURVE",
"420 351 OFFCURVE",
"420 473 CURVE",
"420 474 OFFCURVE",
"421 475 OFFCURVE",
"422 475 CURVE SMOOTH",
"528 475 LINE SMOOTH",
"592 475 OFFCURVE",
"618 440 OFFCURVE",
"618 405 CURVE SMOOTH",
"618 370 OFFCURVE",
"592 335 OFFCURVE",
"528 335 CURVE SMOOTH",
"420 335 LINE",
"423 328 OFFCURVE",
"426 319 OFFCURVE",
"429 312 CURVE",
"469 208 OFFCURVE",
"509 104 OFFCURVE",
"549 0 CURVE",
"1069 0 LINE",
"963 217 LINE",
"628 218 LINE SMOOTH",
"628 218 OFFCURVE",
"628 220 OFFCURVE",
"628 220 CURVE",
"628 220 OFFCURVE",
"628 222 OFFCURVE",
"628 222 CURVE SMOOTH",
"639 222 OFFCURVE",
"650 222 OFFCURVE",
"660 222 CURVE SMOOTH",
"893 222 OFFCURVE",
"1038 326 OFFCURVE",
"1038 494 CURVE SMOOTH",
"1038 624 OFFCURVE",
"940 750 OFFCURVE",
"743 750 CURVE SMOOTH",
"20 750 LINE"
);
}
);
width = 1049;
},
{
anchors = (
{
name = bottom;
position = "{565, 0}";
},
{
name = top;
position = "{565, 750}";
}
);
associatedMasterId = "F6D8640C-383C-48A8-B63C-DDE9F10207CE";
background = {
components = (
{
name = P;
}
);
};
layerId = "15C1A67D-6155-4D1E-850B-9327A678BE2F";
name = "Mar 16 20, 02:59";
paths = (
{
closed = 1;
nodes = (
"20 500 OFFCURVE",
"20 250 OFFCURVE",
"20 0 CURVE",
"420 0 LINE",
"420 109 OFFCURVE",
"420 303 OFFCURVE",
"420 305 CURVE",
"420 300 OFFCURVE",
"420 313 OFFCURVE",
"420 444 CURVE",
"420 445 OFFCURVE",
"421 446 OFFCURVE",
"422 446 CURVE SMOOTH",
"536 446 LINE SMOOTH",
"590 446 OFFCURVE",
"617 411 OFFCURVE",
"617 376 CURVE SMOOTH",
"617 341 OFFCURVE",
"590 306 OFFCURVE",
"536 306 CURVE SMOOTH",
"420 306 LINE",
"407 336 OFFCURVE",
"529 47 OFFCURVE",
"549 0 CURVE",
"1069 0 LINE",
"925 297 LINE",
"664 297 LINE SMOOTH",
"664 297 OFFCURVE",
"664 299 OFFCURVE",
"664 299 CURVE",
"664 299 OFFCURVE",
"664 301 OFFCURVE",
"664 301 CURVE SMOOTH",
"674 301 OFFCURVE",
"683 301 OFFCURVE",
"691 301 CURVE SMOOTH",
"888 301 OFFCURVE",
"1010 393 OFFCURVE",
"1010 535 CURVE SMOOTH",
"1010 644 OFFCURVE",
"927 750 OFFCURVE",
"761 750 CURVE SMOOTH",
"20 750 LINE"
);
},
{
closed = 0;
nodes = (
"541 303 LINE"
);
}
);
width = 1049;
},
{
anchors = (
{
name = bottom;
position = "{565, 0}";
},
{
name = top;
position = "{565, 750}";
}
);
associatedMasterId = "F6D8640C-383C-48A8-B63C-DDE9F10207CE";
background = {
components = (
{
name = P;
}
);
};
layerId = "16A8DC23-3E3B-4F1B-8DCA-ACDD1858C55E";
name = "Mar 16 20, 03:16";
paths = (
{
closed = 1;
nodes = (
"20 500 OFFCURVE",
"20 250 OFFCURVE",
"20 0 CURVE",
"420 0 LINE",
"420 109 OFFCURVE",
"420 303 OFFCURVE",
"420 305 CURVE",
"420 300 OFFCURVE",
"420 313 OFFCURVE",
"420 444 CURVE",
"420 445 OFFCURVE",
"421 446 OFFCURVE",
"422 446 CURVE SMOOTH",
"536 446 LINE SMOOTH",
"590 446 OFFCURVE",
"617 411 OFFCURVE",
"617 376 CURVE SMOOTH",
"617 341 OFFCURVE",
"590 306 OFFCURVE",
"536 306 CURVE SMOOTH",
"420 306 LINE",
"459 204 OFFCURVE",
"498 102 OFFCURVE",
"537 0 CURVE",
"1037 0 LINE",
"874 297 LINE",
"664 297 LINE SMOOTH",
"664 297 OFFCURVE",
"664 299 OFFCURVE",
"664 299 CURVE",
"664 299 OFFCURVE",
"664 301 OFFCURVE",
"664 301 CURVE SMOOTH",
"674 301 OFFCURVE",
"683 301 OFFCURVE",
"691 301 CURVE SMOOTH",
"888 301 OFFCURVE",
"1010 393 OFFCURVE",
"1010 535 CURVE SMOOTH",
"1010 644 OFFCURVE",
"927 750 OFFCURVE",
"761 750 CURVE SMOOTH",
"20 750 LINE"
);
}
);
width = 1017;
},
{
anchors = (
{
name = bottom;
position = "{515, 0}";
},
{
name = top;
position = "{515, 750}";
}
);
layerId = "96858A69-C8A6-410B-90BB-94EA0DA45935";
paths = (
{
closed = 1;
nodes = (
"246 492 OFFCURVE",
"128 197 OFFCURVE",
"147 115 CURVE",
"284 115 LINE",
"225 274 OFFCURVE",
"313 306 OFFCURVE",
"393 306 CURVE",
"295 306 OFFCURVE",
"245 406 OFFCURVE",
"245 482 CURVE SMOOTH",
"245 562 OFFCURVE",
"301 645 OFFCURVE",
"414 645 CURVE SMOOTH",
"613 645 LINE SMOOTH",
"686 645 OFFCURVE",
"776 584 OFFCURVE",
"776 475 CURVE SMOOTH",
"776 365 OFFCURVE",
"690 306 OFFCURVE",
"651 306 CURVE SMOOTH",
"473 306 LINE",
"577 287 OFFCURVE",
"592 204 OFFCURVE",
"597 115 CURVE",
"889 115 LINE",
"848 203 LINE",
"677 203 LINE SMOOTH",
"623 203 OFFCURVE",
"559 220 OFFCURVE",
"559 278 CURVE SMOOTH",
"559 301 OFFCURVE",
"579 306 OFFCURVE",
"591 306 CURVE SMOOTH",
"602 306 OFFCURVE",
"652 306 OFFCURVE",
"658 306 CURVE SMOOTH",
"805 306 OFFCURVE",
"890 388 OFFCURVE",
"890 490 CURVE SMOOTH",
"890 569 OFFCURVE",
"820 645 OFFCURVE",
"700 645 CURVE SMOOTH",
"167 645 LINE"
);
}
);
width = 1039;
},
{
anchors = (
{
name = bottom;
position = "{565, 0}";
},
{
name = top;
position = "{565, 750}";
}
);
associatedMasterId = "F6D8640C-383C-48A8-B63C-DDE9F10207CE";
background = {
components = (
{
name = P;
}
);
};
layerId = "FE89A8D7-7ADB-408C-B5CC-8C8021AA3E11";
name = "Mar 18 20, 11:16";
paths = (
{
closed = 1;
nodes = (
"20 500 OFFCURVE",
"20 250 OFFCURVE",
"20 0 CURVE",
"420 0 LINE",
"420 109 OFFCURVE",
"420 303 OFFCURVE",
"420 305 CURVE",
"420 300 OFFCURVE",
"420 313 OFFCURVE",
"420 444 CURVE",
"420 445 OFFCURVE",
"421 446 OFFCURVE",
"422 446 CURVE SMOOTH",
"536 446 LINE SMOOTH",
"590 446 OFFCURVE",
"617 411 OFFCURVE",
"617 376 CURVE SMOOTH",
"617 341 OFFCURVE",
"590 306 OFFCURVE",
"536 306 CURVE SMOOTH",
"420 306 LINE",
"459 204 OFFCURVE",
"498 102 OFFCURVE",
"537 0 CURVE",
"1037 0 LINE",
"878 297 LINE",
"631 297 LINE SMOOTH",
"631 297 OFFCURVE",
"631 299 OFFCURVE",
"631 299 CURVE",
"631 299 OFFCURVE",
"631 301 OFFCURVE",
"631 301 CURVE SMOOTH",
"641 301 OFFCURVE",
"650 301 OFFCURVE",
"658 301 CURVE SMOOTH",
"875 301 OFFCURVE",
"1010 393 OFFCURVE",
"1010 535 CURVE SMOOTH",
"1010 644 OFFCURVE",
"927 750 OFFCURVE",
"761 750 CURVE SMOOTH",
"20 750 LINE"
);
}
);
visible = 1;
width = 1017;
},
{
anchors = (
{
name = bottom;
position = "{534, 0}";
},
{
name = top;
position = "{534, 750}";
}
);
associatedMasterId = "96858A69-C8A6-410B-90BB-94EA0DA45935";
layerId = "0EE7D7C6-0DF0-45F1-A563-F51934D41029";
name = "Mar 11 20, 20:48";
paths = (
{
closed = 1;
nodes = (
"254 499 OFFCURVE",
"145 228 OFFCURVE",
"145 115 CURVE",
"303 115 LINE",
"256 281 OFFCURVE",
"308 331 OFFCURVE",
"392 334 CURVE",
"328 333 OFFCURVE",
"288 356 OFFCURVE",
"283 429 CURVE SMOOTH",
"275 540 OFFCURVE",
"319 645 OFFCURVE",
"406 645 CURVE SMOOTH",
"610 645 LINE SMOOTH",
"698 645 OFFCURVE",
"755 544 OFFCURVE",
"755 450 CURVE SMOOTH",
"755 406 OFFCURVE",
"742 363 OFFCURVE",
"715 334 CURVE",
"446 334 LINE",
"507 334 OFFCURVE",
"544 299 OFFCURVE",
"568 246 CURVE SMOOTH",
"584 210 OFFCURVE",
"594 164 OFFCURVE",
"597 115 CURVE",
"889 115 LINE",
"847 205 LINE",
"703 205 LINE SMOOTH",
"657 205 OFFCURVE",
"605 213 OFFCURVE",
"579 246 CURVE SMOOTH",
"554 277 OFFCURVE",
"570 334 OFFCURVE",
"622 334 CURVE SMOOTH",
"723 334 OFFCURVE",
"700 334 OFFCURVE",
"724 334 CURVE SMOOTH",
"825 334 OFFCURVE",
"885 411 OFFCURVE",
"885 488 CURVE SMOOTH",
"885 566 OFFCURVE",
"823 645 OFFCURVE",
"679 645 CURVE SMOOTH",
"161 645 LINE"
);
}
);
width = 1039;
}
);
leftKerningGroup = H;
rightKerningGroup = R;
unicode = 0052;
},
{
color = 6;
glyphname = S;
lastChange = "2021-05-06 10:50:26 +0000";
layers = (
{
anchors = (
{
name = bottom;
position = "{537, -9}";
},
{
name = top;
position = "{517, 750}";
}
);
background = {
components = (
{
name = C;
transform = "{1, 0, 0, 1, -62, 0}";
}
);
};
layerId = "96858A69-C8A6-410B-90BB-94EA0DA45935";
paths = (
{
closed = 1;
nodes = (
"654 373 OFFCURVE",
"403 373 OFFCURVE",
"395 373 CURVE SMOOTH",
"320 373 OFFCURVE",
"290 441 OFFCURVE",
"290 471 CURVE SMOOTH",
"290 590 OFFCURVE",
"470 659 OFFCURVE",
"579 659 CURVE SMOOTH",
"680 659 OFFCURVE",
"674 582 OFFCURVE",
"674 532 CURVE",
"857 568 LINE",
"777 613 OFFCURVE",
"641 699 OFFCURVE",
"446 674 CURVE SMOOTH",
"369 664 OFFCURVE",
"430 582 OFFCURVE",
"154 494 CURVE SMOOTH",
"91 474 OFFCURVE",
"189 373 OFFCURVE",
"384 373 CURVE SMOOTH",
"434 373 OFFCURVE",
"647 373 OFFCURVE",
"654 373 CURVE SMOOTH",
"724 373 OFFCURVE",
"753 337 OFFCURVE",
"753 273 CURVE SMOOTH",
"753 236 OFFCURVE",
"695 106 OFFCURVE",
"531 106 CURVE SMOOTH",
"434 106 OFFCURVE",
"373 177 OFFCURVE",
"353 206 CURVE",
"150 158 LINE",
"196 118 OFFCURVE",
"399 102 OFFCURVE",
"572 102 CURVE SMOOTH",
"732 102 OFFCURVE",
"923 142 OFFCURVE",
"923 247 CURVE SMOOTH",
"923 318 OFFCURVE",
"831 373 OFFCURVE",
"664 373 CURVE SMOOTH"
);
}
);
width = 1028;
},
{
anchors = (
{
name = bottom;
position = "{521, 0}";
},
{
name = top;
position = "{521, 750}";
}
);
associatedMasterId = "F6D8640C-383C-48A8-B63C-DDE9F10207CE";
layerId = "FA0D37E6-55DA-429D-AF0E-2DDD7F9A6D8A";
name = "Mar 4 20, 18:12";
paths = (
{
closed = 1;
nodes = (
"525 456 OFFCURVE",
"516 456 OFFCURVE",
"508 456 CURVE SMOOTH",
"453 456 OFFCURVE",
"430 460 OFFCURVE",
"430 489 CURVE SMOOTH",
"430 516 OFFCURVE",
"460 540 OFFCURVE",
"516 540 CURVE SMOOTH",
"573 540 OFFCURVE",
"625 511 OFFCURVE",
"601 456 CURVE",
"1005 504 LINE",
"1016 690 OFFCURVE",
"820 785 OFFCURVE",
"517 785 CURVE SMOOTH",
"247 785 OFFCURVE",
"10 700 OFFCURVE",
"10 519 CURVE SMOOTH",
"10 389 OFFCURVE",
"135 292 OFFCURVE",
"482 292 CURVE SMOOTH",
"489 292 OFFCURVE",
"496 292 OFFCURVE",
"503 292 CURVE SMOOTH",
"588 292 OFFCURVE",
"617 283 OFFCURVE",
"617 258 CURVE SMOOTH",
"617 231 OFFCURVE",
"585 206 OFFCURVE",
"530 206 CURVE SMOOTH",
"443 206 OFFCURVE",
"407 239 OFFCURVE",
"423 294 CURVE",
"12 240 LINE",
"4 56 OFFCURVE",
"218 -35 OFFCURVE",
"521 -35 CURVE SMOOTH",
"793 -35 OFFCURVE",
"1034 46 OFFCURVE",
"1034 228 CURVE SMOOTH",
"1034 369 OFFCURVE",
"929 465 OFFCURVE",
"534 456 CURVE SMOOTH"
);
}
);
width = 1039;
},
{
anchors = (
{
name = bottom;
position = "{536, 0}";
},
{
name = top;
position = "{536, 750}";
}
);
layerId = "F6D8640C-383C-48A8-B63C-DDE9F10207CE";
paths = (
{
closed = 1;
nodes = (
"528 448 OFFCURVE",
"520 448 OFFCURVE",
"512 448 CURVE SMOOTH",
"458 448 OFFCURVE",
"436 456 OFFCURVE",
"436 481 CURVE SMOOTH",
"436 508 OFFCURVE",
"471 529 OFFCURVE",
"524 529 CURVE SMOOTH",
"588 529 OFFCURVE",
"641 504 OFFCURVE",
"620 446 CURVE",
"1033 469 LINE",
"1073 661 OFFCURVE",
"866 785 OFFCURVE",
"539 785 CURVE SMOOTH",
"249 785 OFFCURVE",
"7 692 OFFCURVE",
"7 519 CURVE SMOOTH",
"7 392 OFFCURVE",
"111 304 OFFCURVE",
"487 304 CURVE SMOOTH",
"494 304 OFFCURVE",
"505 304 OFFCURVE",
"512 304 CURVE SMOOTH",
"593 304 OFFCURVE",
"634 297 OFFCURVE",
"634 265 CURVE SMOOTH",
"634 232 OFFCURVE",
"593 216 OFFCURVE",
"541 216 CURVE SMOOTH",
"474 216 OFFCURVE",
"421 244 OFFCURVE",
"437 304 CURVE",
"10 281 LINE",
"-10 58 OFFCURVE",
"208 -35 OFFCURVE",
"534 -35 CURVE SMOOTH",
"827 -35 OFFCURVE",
"1061 56 OFFCURVE",
"1061 228 CURVE SMOOTH",
"1061 389 OFFCURVE",
"936 448 OFFCURVE",
"537 448 CURVE SMOOTH"
);
}
);
width = 1068;
},
{
anchors = (
{
name = bottom;
position = "{521, 0}";
},
{
name = top;
position = "{521, 750}";
}
);
associatedMasterId = "F6D8640C-383C-48A8-B63C-DDE9F10207CE";
layerId = "B0FFBECA-E283-4673-811E-E8885E8A8E27";
name = "Mar 4 20, 18:12";
paths = (
{
closed = 1;
nodes = (
"525 456 OFFCURVE",
"516 456 OFFCURVE",
"508 456 CURVE SMOOTH",
"453 456 OFFCURVE",
"430 460 OFFCURVE",
"430 489 CURVE SMOOTH",
"430 521 OFFCURVE",
"460 535 OFFCURVE",
"516 535 CURVE SMOOTH",
"573 535 OFFCURVE",
"625 514 OFFCURVE",
"601 454 CURVE",
"1005 504 LINE",
"1016 690 OFFCURVE",
"820 785 OFFCURVE",
"517 785 CURVE SMOOTH",
"247 785 OFFCURVE",
"10 700 OFFCURVE",
"10 519 CURVE SMOOTH",
"10 389 OFFCURVE",
"135 292 OFFCURVE",
"482 292 CURVE SMOOTH",
"489 292 OFFCURVE",
"496 292 OFFCURVE",
"503 292 CURVE SMOOTH",
"588 292 OFFCURVE",
"617 283 OFFCURVE",
"617 258 CURVE SMOOTH",
"617 226 OFFCURVE",
"585 211 OFFCURVE",
"530 211 CURVE SMOOTH",
"473 211 OFFCURVE",
"407 234 OFFCURVE",
"423 294 CURVE",
"12 240 LINE",
"4 56 OFFCURVE",
"218 -35 OFFCURVE",
"521 -35 CURVE SMOOTH",
"793 -35 OFFCURVE",
"1034 46 OFFCURVE",
"1034 228 CURVE SMOOTH",
"1034 369 OFFCURVE",
"929 465 OFFCURVE",
"534 456 CURVE SMOOTH"
);
}
);
width = 1042;
},
{
anchors = (
{
name = bottom;
position = "{516, 0}";
},
{
name = top;
position = "{516, 750}";
}
);
associatedMasterId = "F6D8640C-383C-48A8-B63C-DDE9F10207CE";
layerId = "DF581557-90C6-4581-9331-B9E4657885A7";
name = "Mar 4 20, 18:19";
paths = (
{
closed = 1;
nodes = (
"520 444 OFFCURVE",
"511 444 OFFCURVE",
"503 444 CURVE SMOOTH",
"448 444 OFFCURVE",
"425 447 OFFCURVE",
"425 472 CURVE SMOOTH",
"425 504 OFFCURVE",
"455 521 OFFCURVE",
"511 521 CURVE SMOOTH",
"568 521 OFFCURVE",
"620 503 OFFCURVE",
"596 442 CURVE",
"1000 504 LINE",
"1000 692 OFFCURVE",
"835 785 OFFCURVE",
"512 785 CURVE SMOOTH",
"224 785 OFFCURVE",
"5 700 OFFCURVE",
"5 519 CURVE SMOOTH",
"5 389 OFFCURVE",
"130 292 OFFCURVE",
"477 304 CURVE SMOOTH",
"484 304 OFFCURVE",
"491 304 OFFCURVE",
"498 304 CURVE SMOOTH",
"593 304 OFFCURVE",
"612 296 OFFCURVE",
"612 275 CURVE SMOOTH",
"612 238 OFFCURVE",
"580 225 OFFCURVE",
"525 225 CURVE SMOOTH",
"468 225 OFFCURVE",
"419 242 OFFCURVE",
"426 303 CURVE",
"7 240 LINE",
"-1 56 OFFCURVE",
"193 -35 OFFCURVE",
"516 -35 CURVE SMOOTH",
"806 -35 OFFCURVE",
"1029 46 OFFCURVE",
"1029 228 CURVE SMOOTH",
"1029 369 OFFCURVE",
"924 465 OFFCURVE",
"529 444 CURVE SMOOTH"
);
}
);
width = 1034;
},
{
anchors = (
{
name = bottom;
position = "{517, 0}";
},
{
name = top;
position = "{517, 750}";
}
);
associatedMasterId = "F6D8640C-383C-48A8-B63C-DDE9F10207CE";
background = {
components = (
{
name = O;
transform = "{1, 0, 0, 1, -39, 0}";
}
);
};
layerId = "4F8127C2-8C57-4727-A6AC-C441F30447B7";
name = "Mar 4 20, 18:29";
paths = (
{
closed = 1;
nodes = (
"526 448 OFFCURVE",
"517 448 OFFCURVE",
"509 448 CURVE SMOOTH",
"453 448 OFFCURVE",
"430 461 OFFCURVE",
"430 486 CURVE SMOOTH",
"430 548 OFFCURVE",
"655 554 OFFCURVE",
"615 447 CURVE",
"1031 447 LINE",
"1071 661 OFFCURVE",
"864 785 OFFCURVE",
"538 785 CURVE SMOOTH",
"247 785 OFFCURVE",
"5 692 OFFCURVE",
"5 519 CURVE SMOOTH",
"5 409 OFFCURVE",
"102 292 OFFCURVE",
"483 304 CURVE SMOOTH",
"490 304 OFFCURVE",
"497 304 OFFCURVE",
"504 304 CURVE SMOOTH",
"600 304 OFFCURVE",
"624 295 OFFCURVE",
"629 275 CURVE SMOOTH",
"649 191 OFFCURVE",
"400 193 OFFCURVE",
"431 303 CURVE",
"18 303 LINE",
"-2 58 OFFCURVE",
"206 -35 OFFCURVE",
"532 -35 CURVE SMOOTH",
"825 -35 OFFCURVE",
"1060 46 OFFCURVE",
"1060 228 CURVE SMOOTH",
"1060 389 OFFCURVE",
"934 448 OFFCURVE",
"535 448 CURVE SMOOTH"
);
}
);
width = 1045;
},
{
anchors = (
{
name = bottom;
position = "{517, 0}";
},
{
name = top;
position = "{517, 750}";
}
);
associatedMasterId = "F6D8640C-383C-48A8-B63C-DDE9F10207CE";
background = {
components = (
{
name = O;
transform = "{1, 0, 0, 1, -39, 0}";
}
);
};
layerId = "A39C9FA7-1743-4FDE-BE9F-2267459D6E55";
name = "Mar 4 20, 18:30";
paths = (
{
closed = 1;
nodes = (
"526 448 OFFCURVE",
"517 448 OFFCURVE",
"509 448 CURVE SMOOTH",
"453 448 OFFCURVE",
"430 461 OFFCURVE",
"430 486 CURVE SMOOTH",
"430 548 OFFCURVE",
"655 554 OFFCURVE",
"615 447 CURVE",
"1031 469 LINE",
"1071 661 OFFCURVE",
"864 785 OFFCURVE",
"538 785 CURVE SMOOTH",
"247 785 OFFCURVE",
"5 692 OFFCURVE",
"5 519 CURVE SMOOTH",
"5 409 OFFCURVE",
"102 292 OFFCURVE",
"483 304 CURVE SMOOTH",
"490 304 OFFCURVE",
"497 304 OFFCURVE",
"504 304 CURVE SMOOTH",
"600 304 OFFCURVE",
"624 295 OFFCURVE",
"629 275 CURVE SMOOTH",
"649 191 OFFCURVE",
"400 193 OFFCURVE",
"431 303 CURVE",
"18 281 LINE",
"-2 58 OFFCURVE",
"206 -35 OFFCURVE",
"532 -35 CURVE SMOOTH",
"825 -35 OFFCURVE",
"1059 56 OFFCURVE",
"1059 228 CURVE SMOOTH",
"1059 389 OFFCURVE",
"934 448 OFFCURVE",
"535 448 CURVE SMOOTH"
);
}
);
width = 1065;
},
{
anchors = (
{
name = bottom;
position = "{512, 0}";
},
{
name = top;
position = "{512, 750}";
}
);
associatedMasterId = "F6D8640C-383C-48A8-B63C-DDE9F10207CE";
background = {
components = (
{
name = O;
transform = "{1, 0, 0, 1, -44, 0}";
}
);
};
layerId = "99003914-4CDF-47B1-A018-4F582A2FF202";
name = "Mar 4 20, 18:35";
paths = (
{
closed = 1;
nodes = (
"521 448 OFFCURVE",
"512 448 OFFCURVE",
"504 448 CURVE SMOOTH",
"448 448 OFFCURVE",
"425 456 OFFCURVE",
"425 481 CURVE SMOOTH",
"425 509 OFFCURVE",
"461 530 OFFCURVE",
"517 530 CURVE SMOOTH",
"584 530 OFFCURVE",
"639 505 OFFCURVE",
"617 446 CURVE",
"1026 469 LINE",
"1066 661 OFFCURVE",
"859 785 OFFCURVE",
"533 785 CURVE SMOOTH",
"242 785 OFFCURVE",
"0 692 OFFCURVE",
"0 519 CURVE SMOOTH",
"0 409 OFFCURVE",
"97 292 OFFCURVE",
"478 304 CURVE SMOOTH",
"485 304 OFFCURVE",
"492 304 OFFCURVE",
"499 304 CURVE SMOOTH",
"570 304 OFFCURVE",
"632 304 OFFCURVE",
"632 265 CURVE SMOOTH",
"632 232 OFFCURVE",
"589 216 OFFCURVE",
"534 216 CURVE SMOOTH",
"464 216 OFFCURVE",
"409 244 OFFCURVE",
"426 303 CURVE",
"3 281 LINE",
"-17 58 OFFCURVE",
"201 -35 OFFCURVE",
"527 -35 CURVE SMOOTH",
"820 -35 OFFCURVE",
"1054 56 OFFCURVE",
"1054 228 CURVE SMOOTH",
"1054 389 OFFCURVE",
"929 448 OFFCURVE",
"530 448 CURVE SMOOTH"
);
}
);
width = 1054;
},
{
anchors = (
{
name = bottom;
position = "{539, 0}";
},
{
name = top;
position = "{539, 750}";
}
);
associatedMasterId = "F6D8640C-383C-48A8-B63C-DDE9F10207CE";
background = {
components = (
{
name = O;
transform = "{1, 0, 0, 1, -37, 0}";
}
);
};
layerId = "3A565BAD-6248-419E-9BCC-23706B7DEF59";
name = "06 May 21, 12:44";
paths = (
{
closed = 1;
nodes = (
"528 448 OFFCURVE",
"520 448 OFFCURVE",
"512 448 CURVE SMOOTH",
"458 448 OFFCURVE",
"436 456 OFFCURVE",
"436 481 CURVE SMOOTH",
"436 508 OFFCURVE",
"471 529 OFFCURVE",
"524 529 CURVE SMOOTH",
"588 529 OFFCURVE",
"641 504 OFFCURVE",
"620 446 CURVE",
"1033 469 LINE",
"1073 661 OFFCURVE",
"866 785 OFFCURVE",
"540 785 CURVE SMOOTH",
"249 785 OFFCURVE",
"7 692 OFFCURVE",
"7 519 CURVE SMOOTH",
"7 409 OFFCURVE",
"106 292 OFFCURVE",
"487 304 CURVE SMOOTH",
"494 304 OFFCURVE",
"500 304 OFFCURVE",
"507 304 CURVE SMOOTH",
"575 304 OFFCURVE",
"634 304 OFFCURVE",
"634 265 CURVE SMOOTH",
"634 232 OFFCURVE",
"593 216 OFFCURVE",
"541 216 CURVE SMOOTH",
"474 216 OFFCURVE",
"421 244 OFFCURVE",
"437 303 CURVE",
"10 281 LINE",
"-10 58 OFFCURVE",
"208 -35 OFFCURVE",
"534 -35 CURVE SMOOTH",
"827 -35 OFFCURVE",
"1061 56 OFFCURVE",
"1061 228 CURVE SMOOTH",
"1061 389 OFFCURVE",
"936 448 OFFCURVE",
"537 448 CURVE SMOOTH"
);
}
);
visible = 1;
width = 1068;
}
);
leftKerningGroup = S;
rightKerningGroup = S;
unicode = 0053;
},
{
color = 6;
glyphname = Germandbls;
lastChange = "2021-04-02 09:45:05 +0000";
layers = (
{
layerId = "96858A69-C8A6-410B-90BB-94EA0DA45935";
paths = (
{
closed = 1;
nodes = (
"899 103 OFFCURVE",
"993 174 OFFCURVE",
"993 238 CURVE SMOOTH",
"993 373 OFFCURVE",
"780 317 OFFCURVE",
"780 446 CURVE SMOOTH",
"780 499 OFFCURVE",
"848 606 OFFCURVE",
"934 645 CURVE",
"494 645 LINE",
"294 645 OFFCURVE",
"203 607 OFFCURVE",
"203 491 CURVE SMOOTH",
"203 394 OFFCURVE",
"295 261 OFFCURVE",
"161 115 CURVE",
"342 115 LINE",
"359 238 OFFCURVE",
"324 322 OFFCURVE",
"324 420 CURVE SMOOTH",
"324 553 OFFCURVE",
"369 645 OFFCURVE",
"515 645 CURVE SMOOTH",
"752 645 LINE",
"876 538 OFFCURVE",
"721 412 OFFCURVE",
"661 393 CURVE",
"673 393 LINE SMOOTH",
"769 393 OFFCURVE",
"850 356 OFFCURVE",
"850 267 CURVE SMOOTH",
"850 204 OFFCURVE",
"814 106 OFFCURVE",
"759 106 CURVE SMOOTH",
"705 106 OFFCURVE",
"684 141 OFFCURVE",
"652 193 CURVE",
"552 124 LINE",
"603 110 OFFCURVE",
"688 103 OFFCURVE",
"759 103 CURVE SMOOTH"
);
}
);
width = 1144;
},
{
background = {
anchors = (
{
name = bottom;
position = "{735.2, 1}";
},
{
name = center;
position = "{735.2, 232.894}";
},
{
name = ogonek;
position = "{1073.76, 8.48}";
},
{
name = top;
position = "{735.2, 464.789}";
},
{
name = topright;
position = "{1140, 464.789}";
}
);
};
layerId = "F6D8640C-383C-48A8-B63C-DDE9F10207CE";
paths = (
{
closed = 1;
nodes = (
"997 -22 OFFCURVE",
"1149 80 OFFCURVE",
"1149 234 CURVE SMOOTH",
"1149 358 OFFCURVE",
"1052 424 OFFCURVE",
"948 452 CURVE SMOOTH",
"948 452 OFFCURVE",
"1061 651 OFFCURVE",
"1117 750 CURVE",
"452 750 LINE",
"168 750 OFFCURVE",
"20 620 OFFCURVE",
"20 429 CURVE",
"20 323 OFFCURVE",
"20 250 OFFCURVE",
"20 0 CURVE",
"436 0 LINE",
"436 144 OFFCURVE",
"436 272 OFFCURVE",
"436 416 CURVE SMOOTH",
"436 497 OFFCURVE",
"486 523 OFFCURVE",
"574 523 CURVE SMOOTH",
"653 523 LINE",
"614 460 OFFCURVE",
"576 397 OFFCURVE",
"537 334 CURVE",
"653 334 LINE SMOOTH",
"729 334 OFFCURVE",
"762 314 OFFCURVE",
"762 279 CURVE SMOOTH",
"762 246 OFFCURVE",
"730 217 OFFCURVE",
"667 217 CURVE SMOOTH",
"620 217 OFFCURVE",
"574 227 OFFCURVE",
"532 252 CURVE",
"505 8 LINE",
"578 -12 OFFCURVE",
"653 -22 OFFCURVE",
"753 -22 CURVE SMOOTH"
);
}
);
width = 1159;
}
);
leftKerningGroup = H;
rightKerningGroup = B;
unicode = 1E9E;
},
{
color = 6;
glyphname = Schwa;
lastChange = "2021-04-02 09:45:05 +0000";
layers = (
{
anchors = (
{
name = bottom;
position = "{545.502, 0}";
},
{
name = top;
position = "{545.502, 748.255}";
}
);
layerId = "F6D8640C-383C-48A8-B63C-DDE9F10207CE";
paths = (
{
closed = 1;
nodes = (
"609.749 468.359 OFFCURVE",
"666.56 435.722 OFFCURVE",
"667.769 392.207 CURVE SMOOTH",
"667.769 390.998 OFFCURVE",
"667.769 390.998 OFFCURVE",
"666.56 390.998 CURVE SMOOTH",
"13 391 LINE SMOOTH",
"13 102 OFFCURVE",
"234 -36 OFFCURVE",
"529.97 -35.694 CURVE SMOOTH",
"830.952 -35.694 OFFCURVE",
"1073.912 100.896 OFFCURVE",
"1073.912 375.284 CURVE SMOOTH",
"1073.912 649.673 OFFCURVE",
"832.16 786.263 OFFCURVE",
"529.97 786.263 CURVE SMOOTH",
"297 786 OFFCURVE",
"66 667 OFFCURVE",
"24 513 CURVE",
"392.172 390.998 LINE",
"394.589 438.14 OFFCURVE",
"448.984 468.359 OFFCURVE",
"527.553 468.359 CURVE SMOOTH"
);
},
{
closed = 1;
nodes = (
"458.654 278.584 OFFCURVE",
"394.589 306.385 OFFCURVE",
"394.589 353.527 CURVE SMOOTH",
"394.589 354.736 OFFCURVE",
"394.589 355.944 OFFCURVE",
"395.798 355.944 CURVE SMOOTH",
"665.352 355.944 LINE SMOOTH",
"666.56 355.944 OFFCURVE",
"666.56 355.944 OFFCURVE",
"666.56 353.527 CURVE SMOOTH",
"666.56 306.385 OFFCURVE",
"602.496 278.584 OFFCURVE",
"529.97 278.584 CURVE SMOOTH"
);
}
);
width = 1084;
},
{
anchors = (
{
name = bottom;
position = "{560, 14}";
},
{
name = top;
position = "{560, 753}";
}
);
layerId = "96858A69-C8A6-410B-90BB-94EA0DA45935";
paths = (
{
closed = 1;
nodes = (
"642 638 OFFCURVE",
"728 573 OFFCURVE",
"732 473 CURVE SMOOTH",
"733 445 OFFCURVE",
"733 378 OFFCURVE",
"628 378 CURVE SMOOTH",
"201 378 LINE",
"205 287 OFFCURVE",
"286 111 OFFCURVE",
"558 111 CURVE SMOOTH",
"748 111 OFFCURVE",
"829 164 OFFCURVE",
"872 306 CURVE SMOOTH",
"931 501 OFFCURVE",
"764 648 OFFCURVE",
"572 648 CURVE SMOOTH",
"466 648 OFFCURVE",
"363 596 OFFCURVE",
"334 575 CURVE",
"340 569 LINE",
"380 599 OFFCURVE",
"474 638 OFFCURVE",
"568 638 CURVE SMOOTH"
);
},
{
closed = 1;
nodes = (
"368 120 OFFCURVE",
"354 260 OFFCURVE",
"353 299 CURVE SMOOTH",
"352 339 OFFCURVE",
"374 378 OFFCURVE",
"389 378 CURVE SMOOTH",
"627 378 LINE SMOOTH",
"642 378 OFFCURVE",
"757 369 OFFCURVE",
"762 275 CURVE SMOOTH",
"768 171 OFFCURVE",
"695 120 OFFCURVE",
"575 120 CURVE SMOOTH"
);
}
);
width = 1064;
}
);
leftKerningGroup = O;
rightKerningGroup = O;
unicode = 018F;
},
{
color = 6;
glyphname = T;
lastChange = "2021-04-28 07:47:13 +0000";
layers = (
{
anchors = (
{
name = bottom;
position = "{461, 0}";
},
{
name = center;
position = "{461, 375}";
},
{
name = top;
position = "{461, 750}";
}
);
layerId = "F6D8640C-383C-48A8-B63C-DDE9F10207CE";
paths = (
{
closed = 1;
nodes = (
"10 750 LINE",
"10 446 LINE",
"251 446 LINE SMOOTH",
"252 446 OFFCURVE",
"253 445 OFFCURVE",
"253 444 CURVE SMOOTH",
"253 296 OFFCURVE",
"253 148 OFFCURVE",
"253 0 CURVE",
"668 0 LINE",
"668 148 OFFCURVE",
"668 296 OFFCURVE",
"668 444 CURVE SMOOTH",
"668 445 OFFCURVE",
"669 446 OFFCURVE",
"670 446 CURVE SMOOTH",
"911 446 LINE",
"911 750 LINE"
);
}
);
width = 921;
},
{
anchors = (
{
name = bottom;
position = "{440, 0}";
},
{
name = center;
position = "{440, 375}";
},
{
name = top;
position = "{440, 750}";
}
);
background = {
paths = (
{
closed = 1;
nodes = (
"242 571 LINE",
"250 571 OFFCURVE",
"258 570 OFFCURVE",
"265 569 CURVE",
"273 567 OFFCURVE",
"279 565 OFFCURVE",
"285 563 CURVE",
"298 558 OFFCURVE",
"308 551 OFFCURVE",
"316 544 CURVE",
"322 539 OFFCURVE",
"328 534 OFFCURVE",
"332 528 CURVE",
"339 520 OFFCURVE",
"344 512 OFFCURVE",
"349 501 CURVE",
"352 495 OFFCURVE",
"354 488 OFFCURVE",
"356 481 CURVE",
"358 473 OFFCURVE",
"359 464 OFFCURVE",
"359 454 CURVE",
"359 125 LINE",
"544 125 LINE",
"544 454 LINE",
"544 463 OFFCURVE",
"545 470 OFFCURVE",
"546 478 CURVE",
"548 485 OFFCURVE",
"550 492 OFFCURVE",
"552 498 CURVE",
"557 510 OFFCURVE",
"564 520 OFFCURVE",
"571 529 CURVE",
"576 535 OFFCURVE",
"581 540 OFFCURVE",
"587 545 CURVE",
"595 551 OFFCURVE",
"603 557 OFFCURVE",
"614 561 CURVE",
"620 564 OFFCURVE",
"627 566 OFFCURVE",
"634 568 CURVE",
"642 570 OFFCURVE",
"651 571 OFFCURVE",
"661 571 CURVE",
"787 571 LINE",
"787 645 LINE",
"116 645 LINE",
"116 571 LINE"
);
}
);
};
layerId = "96858A69-C8A6-410B-90BB-94EA0DA45935";
paths = (
{
closed = 1;
nodes = (
"142 645 LINE",
"142 640 LINE",
"282 640 LINE SMOOTH",
"419 640 OFFCURVE",
"426 500 OFFCURVE",
"426 375 CURVE SMOOTH",
"426 279 OFFCURVE",
"385 167 OFFCURVE",
"315 115 CURVE",
"520 115 LINE",
"537 160 OFFCURVE",
"479 367 OFFCURVE",
"479 488 CURVE SMOOTH",
"479 567 OFFCURVE",
"501 640 OFFCURVE",
"653 640 CURVE SMOOTH",
"788 640 LINE",
"788 645 LINE"
);
}
);
width = 909;
}
);
leftKerningGroup = T;
rightKerningGroup = T;
unicode = 0054;
},
{
color = 3;
glyphname = Tbar;
lastChange = "2021-04-26 13:42:22 +0000";
layers = (
{
background = {
anchors = (
{
name = bottom;
position = "{461, 0}";
},
{
name = center;
position = "{461, 375}";
},
{
name = top;
position = "{461, 750}";
}
);
};
components = (
{
name = T;
}
);
layerId = "F6D8640C-383C-48A8-B63C-DDE9F10207CE";
paths = (
{
closed = 1;
nodes = (
"781 177 LINE",
"781 344 LINE",
"140 344 LINE",
"140 177 LINE"
);
}
);
width = 923;
},
{
components = (
{
name = T;
}
);
layerId = "96858A69-C8A6-410B-90BB-94EA0DA45935";
paths = (
{
closed = 1;
nodes = (
"627 321 LINE",
"627 331 LINE",
"277 331 LINE",
"277 321 LINE"
);
}
);
width = 909;
}
);
leftKerningGroup = T;
rightKerningGroup = T;
unicode = 0166;
},
{
color = 6;
glyphname = U;
lastChange = "2021-04-02 09:45:05 +0000";
layers = (
{
anchors = (
{
name = bottom;
position = "{504, 0}";
},
{
name = ogonek;
position = "{732, 10}";
},
{
name = top;
position = "{504, 750}";
},
{
name = topright;
position = "{981, 750}";
}
);
background = {
components = (
{
name = O;
transform = "{1, 0, 0, 1, -46, 0}";
}
);
};
layerId = "F6D8640C-383C-48A8-B63C-DDE9F10207CE";
paths = (
{
closed = 1;
nodes = (
"435 750 LINE",
"435 604 OFFCURVE",
"435 482 OFFCURVE",
"435 336 CURVE SMOOTH",
"435 296 OFFCURVE",
"473 276 OFFCURVE",
"510 276 CURVE SMOOTH",
"548 276 OFFCURVE",
"585 296 OFFCURVE",
"585 335 CURVE SMOOTH",
"585 482 OFFCURVE",
"585 603 OFFCURVE",
"585 750 CURVE",
"1000 750 LINE",
"1000 598 OFFCURVE",
"1000 429 OFFCURVE",
"1000 277 CURVE SMOOTH",
"1000 68 OFFCURVE",
"755 -36 OFFCURVE",
"510 -36 CURVE SMOOTH",
"265 -36 OFFCURVE",
"20 68 OFFCURVE",
"20 277 CURVE SMOOTH",
"20 429 OFFCURVE",
"20 598 OFFCURVE",
"20 750 CURVE"
);
}
);
width = 1020;
},
{
anchors = (
{
name = bottom;
position = "{491, 0}";
},
{
name = ogonek;
position = "{672, 115}";
},
{
name = top;
position = "{491, 750}";
},
{
name = topright;
position = "{930, 750}";
}
);
layerId = "96858A69-C8A6-410B-90BB-94EA0DA45935";
paths = (
{
closed = 1;
nodes = (
"279 645 LINE",
"264 596 OFFCURVE",
"255 539 OFFCURVE",
"255 496 CURVE SMOOTH",
"255 237 OFFCURVE",
"438 151 OFFCURVE",
"617 151 CURVE SMOOTH",
"713 151 OFFCURVE",
"785 195 OFFCURVE",
"779 295 CURVE SMOOTH",
"773 402 OFFCURVE",
"667 549 OFFCURVE",
"652 645 CURVE",
"825 645 LINE",
"800 545 OFFCURVE",
"799 485 OFFCURVE",
"805 376 CURVE SMOOTH",
"816 170 OFFCURVE",
"659 95 OFFCURVE",
"496 95 CURVE SMOOTH",
"323 95 OFFCURVE",
"107 166 OFFCURVE",
"222 323 CURVE SMOOTH",
"306 438 OFFCURVE",
"197 581 OFFCURVE",
"197 645 CURVE"
);
}
);
width = 979;
},
{
anchors = (
{
name = bottom;
position = "{497, 0}";
},
{
name = ogonek;
position = "{725, 10}";
},
{
name = top;
position = "{497, 750}";
},
{
name = topright;
position = "{974, 750}";
}
);
associatedMasterId = "F6D8640C-383C-48A8-B63C-DDE9F10207CE";
background = {
components = (
{
name = O;
transform = "{1, 0, 0, 1, -62, 0}";
}
);
};
layerId = "12AEDBD1-E989-41A9-A03A-498B51E419C3";
name = "Mar 4 20, 21:34";
paths = (
{
closed = 1;
nodes = (
"17 52 OFFCURVE",
"257 -36 OFFCURVE",
"497 -36 CURVE SMOOTH",
"737 -36 OFFCURVE",
"977 52 OFFCURVE",
"977 227 CURVE SMOOTH",
"977 379 OFFCURVE",
"977 598 OFFCURVE",
"977 750 CURVE",
"562 750 LINE",
"562 603 OFFCURVE",
"562 485 OFFCURVE",
"562 338 CURVE SMOOTH",
"562 299 OFFCURVE",
"529 288 OFFCURVE",
"497 288 CURVE SMOOTH",
"464 288 OFFCURVE",
"432 299 OFFCURVE",
"432 339 CURVE SMOOTH",
"432 485 OFFCURVE",
"432 604 OFFCURVE",
"432 750 CURVE",
"17 750 LINE",
"17 598 OFFCURVE",
"17 379 OFFCURVE",
"17 227 CURVE SMOOTH"
);
}
);
width = 994;
},
{
anchors = (
{
name = bottom;
position = "{519, 0}";
},
{
name = ogonek;
position = "{747, 10}";
},
{
name = top;
position = "{519, 750}";
},
{
name = topright;
position = "{996, 750}";
}
);
associatedMasterId = "F6D8640C-383C-48A8-B63C-DDE9F10207CE";
background = {
components = (
{
name = O;
transform = "{1, 0, 0, 1, -60, 0}";
}
);
};
layerId = "7CEB0CFC-7C24-4FC4-9747-12272024D207";
name = "Mar 5 20, 10:17";
paths = (
{
closed = 1;
nodes = (
"435 750 LINE",
"435 604 OFFCURVE",
"435 492 OFFCURVE",
"435 346 CURVE SMOOTH",
"435 301 OFFCURVE",
"478 279 OFFCURVE",
"520 279 CURVE SMOOTH",
"563 279 OFFCURVE",
"605 301 OFFCURVE",
"605 345 CURVE SMOOTH",
"605 492 OFFCURVE",
"605 603 OFFCURVE",
"605 750 CURVE",
"1020 750 LINE",
"1020 598 OFFCURVE",
"1020 428 OFFCURVE",
"1020 276 CURVE SMOOTH",
"1020 62 OFFCURVE",
"769 -35 OFFCURVE",
"520 -35 CURVE SMOOTH",
"271 -35 OFFCURVE",
"20 62 OFFCURVE",
"20 276 CURVE SMOOTH",
"20 428 OFFCURVE",
"20 598 OFFCURVE",
"20 750 CURVE"
);
}
);
width = 1040;
},
{
anchors = (
{
name = bottom;
position = "{519, 0}";
},
{
name = ogonek;
position = "{747, 10}";
},
{
name = top;
position = "{519, 750}";
},
{
name = topright;
position = "{996, 750}";
}
);
associatedMasterId = "F6D8640C-383C-48A8-B63C-DDE9F10207CE";
background = {
components = (
{
name = O;
transform = "{1, 0, 0, 1, -60, 0}";
}
);
};
layerId = "03000231-356E-4235-8235-86E9AA79AAF5";
name = "Mar 5 20, 10:21";
paths = (
{
closed = 1;
nodes = (
"445 750 LINE",
"445 604 OFFCURVE",
"445 482 OFFCURVE",
"445 336 CURVE SMOOTH",
"445 291 OFFCURVE",
"485 269 OFFCURVE",
"525 269 CURVE SMOOTH",
"565 269 OFFCURVE",
"605 291 OFFCURVE",
"605 335 CURVE SMOOTH",
"605 482 OFFCURVE",
"605 603 OFFCURVE",
"605 750 CURVE",
"1020 750 LINE",
"1020 598 OFFCURVE",
"1020 428 OFFCURVE",
"1020 276 CURVE SMOOTH",
"1020 68 OFFCURVE",
"773 -37 OFFCURVE",
"525 -37 CURVE SMOOTH",
"278 -37 OFFCURVE",
"30 68 OFFCURVE",
"30 276 CURVE SMOOTH",
"30 428 OFFCURVE",
"30 598 OFFCURVE",
"30 750 CURVE"
);
}
);
width = 1040;
}
);
leftKerningGroup = U;
rightKerningGroup = U;
unicode = 0055;
},
{
color = 6;
glyphname = Uogonek;
lastChange = "2021-05-06 21:54:20 +0000";
layers = (
{
anchors = (
{
name = bottom;
position = "{515, 0}";
},
{
name = ogonek;
position = "{696, 115}";
},
{
name = top;
position = "{515, 750}";
},
{
name = topright;
position = "{954, 750}";
}
);
layerId = "96858A69-C8A6-410B-90BB-94EA0DA45935";
paths = (
{
closed = 1;
nodes = (
"600 -104 OFFCURVE",
"646 -76 OFFCURVE",
"674 -33 CURVE",
"674 -32 LINE",
"669 -33 OFFCURVE",
"664 -33 OFFCURVE",
"659 -33 CURVE SMOOTH",
"621 -33 OFFCURVE",
"591 -9 OFFCURVE",
"591 26 CURVE SMOOTH",
"591 63 OFFCURVE",
"618 110 OFFCURVE",
"685 130 CURVE SMOOTH",
"761 153 OFFCURVE",
"837 231 OFFCURVE",
"829 376 CURVE SMOOTH",
"823 485 OFFCURVE",
"824 545 OFFCURVE",
"849 645 CURVE",
"676 645 LINE",
"691 549 OFFCURVE",
"797 407 OFFCURVE",
"803 300 CURVE SMOOTH",
"809 200 OFFCURVE",
"737 156 OFFCURVE",
"641 156 CURVE SMOOTH",
"462 156 OFFCURVE",
"281 247 OFFCURVE",
"281 506 CURVE SMOOTH",
"281 549 OFFCURVE",
"288 596 OFFCURVE",
"303 645 CURVE",
"195 645 LINE",
"289 509 OFFCURVE",
"304 438 OFFCURVE",
"220 323 CURVE SMOOTH",
"105 166 OFFCURVE",
"347 102 OFFCURVE",
"511 102 CURVE",
"720 102 OFFCURVE",
"460 63 OFFCURVE",
"460 -44 CURVE SMOOTH",
"460 -76 OFFCURVE",
"489 -104 OFFCURVE",
"545 -104 CURVE SMOOTH"
);
}
);
width = 1003;
},
{
anchors = (
{
name = bottom;
position = "{500, 0}";
},
{
name = ogonek;
position = "{728, 10}";
},
{
name = top;
position = "{500, 750}";
},
{
name = topright;
position = "{977, 750}";
}
);
associatedMasterId = "F6D8640C-383C-48A8-B63C-DDE9F10207CE";
layerId = "BEE24ED2-E9D2-4B7C-8993-25B09ADAE352";
name = "Mar 18 20, 13:06";
paths = (
{
closed = 1;
nodes = (
"691 -308 OFFCURVE",
"733 -300 OFFCURVE",
"788 -285 CURVE",
"788 -89 LINE",
"758 -101 OFFCURVE",
"733 -105 OFFCURVE",
"705 -105 CURVE SMOOTH",
"671 -105 OFFCURVE",
"652 -95 OFFCURVE",
"654 -73 CURVE SMOOTH",
"657 -43 OFFCURVE",
"694 -10 OFFCURVE",
"777 26 CURVE SMOOTH",
"892 76 OFFCURVE",
"970 169 OFFCURVE",
"970 294 CURVE SMOOTH",
"970 446 OFFCURVE",
"970 598 OFFCURVE",
"970 750 CURVE",
"555 750 LINE",
"555 603 OFFCURVE",
"555 460 OFFCURVE",
"555 313 CURVE SMOOTH",
"555 284 OFFCURVE",
"522 269 OFFCURVE",
"490 269 CURVE SMOOTH",
"457 269 OFFCURVE",
"425 284 OFFCURVE",
"425 314 CURVE SMOOTH",
"425 460 OFFCURVE",
"425 604 OFFCURVE",
"425 750 CURVE",
"10 750 LINE",
"10 598 OFFCURVE",
"10 446 OFFCURVE",
"10 294 CURVE SMOOTH",
"10 117 OFFCURVE",
"175 -9 OFFCURVE",
"422 -29 CURVE",
"397 -62 OFFCURVE",
"385 -108 OFFCURVE",
"385 -144 CURVE SMOOTH",
"385 -245 OFFCURVE",
"466 -308 OFFCURVE",
"629 -308 CURVE SMOOTH"
);
}
);
width = 1000;
},
{
anchors = (
{
name = bottom;
position = "{500, 0}";
},
{
name = ogonek;
position = "{728, 10}";
},
{
name = top;
position = "{500, 750}";
},
{
name = topright;
position = "{977, 750}";
}
);
associatedMasterId = "F6D8640C-383C-48A8-B63C-DDE9F10207CE";
layerId = "3715FA73-160F-457B-AB8B-C87FE73FCC1B";
name = "Mar 18 20, 13:07";
paths = (
{
closed = 1;
nodes = (
"435 750 LINE",
"435 604 OFFCURVE",
"435 482 OFFCURVE",
"435 336 CURVE SMOOTH",
"435 296 OFFCURVE",
"473 276 OFFCURVE",
"510 276 CURVE SMOOTH",
"548 276 OFFCURVE",
"585 296 OFFCURVE",
"585 335 CURVE SMOOTH",
"585 482 OFFCURVE",
"585 603 OFFCURVE",
"585 750 CURVE",
"1000 750 LINE",
"1000 598 OFFCURVE",
"1000 429 OFFCURVE",
"1000 277 CURVE SMOOTH",
"1000 68 OFFCURVE",
"755 -36 OFFCURVE",
"510 -36 CURVE SMOOTH",
"265 -36 OFFCURVE",
"20 68 OFFCURVE",
"20 277 CURVE SMOOTH",
"20 429 OFFCURVE",
"20 598 OFFCURVE",
"20 750 CURVE"
);
}
);
width = 1020;
},
{
anchors = (
{
name = bottom;
position = "{500, 0}";
},
{
name = ogonek;
position = "{728, 10}";
},
{
name = top;
position = "{500, 750}";
},
{
name = topright;
position = "{977, 750}";
}
);
layerId = "F6D8640C-383C-48A8-B63C-DDE9F10207CE";
name = Regular;
paths = (
{
closed = 1;
nodes = (
"663 -308 OFFCURVE",
"707 -300 OFFCURVE",
"762 -285 CURVE",
"762 -89 LINE",
"732 -101 OFFCURVE",
"709 -105 OFFCURVE",
"679 -105 CURVE SMOOTH",
"637 -105 OFFCURVE",
"613 -92 OFFCURVE",
"613 -70 CURVE SMOOTH",
"613 -41 OFFCURVE",
"654 -28 OFFCURVE",
"752 1 CURVE SMOOTH",
"841 27 OFFCURVE",
"1000 107 OFFCURVE",
"1000 277 CURVE SMOOTH",
"1000 429 OFFCURVE",
"1000 598 OFFCURVE",
"1000 750 CURVE",
"585 750 LINE",
"585 603 OFFCURVE",
"585 482 OFFCURVE",
"585 335 CURVE SMOOTH",
"585 296 OFFCURVE",
"548 276 OFFCURVE",
"510 276 CURVE SMOOTH",
"473 276 OFFCURVE",
"435 296 OFFCURVE",
"435 336 CURVE SMOOTH",
"435 482 OFFCURVE",
"435 604 OFFCURVE",
"435 750 CURVE",
"20 750 LINE",
"20 598 OFFCURVE",
"20 429 OFFCURVE",
"20 277 CURVE SMOOTH",
"20 102 OFFCURVE",
"191 1 OFFCURVE",
"391 -28 CURVE",
"360 -58 OFFCURVE",
"344 -96 OFFCURVE",
"344 -140 CURVE SMOOTH",
"344 -247 OFFCURVE",
"429 -308 OFFCURVE",
"600 -308 CURVE SMOOTH"
);
}
);
width = 1020;
},
{
anchors = (
{
name = bottom;
position = "{500, 0}";
},
{
name = ogonek;
position = "{728, 10}";
},
{
name = top;
position = "{500, 750}";
},
{
name = topright;
position = "{977, 750}";
}
);
associatedMasterId = "F6D8640C-383C-48A8-B63C-DDE9F10207CE";
layerId = "B661540D-910F-44DA-9793-9A8C30C65E84";
name = "06 May 21, 23:42";
paths = (
{
closed = 1;
nodes = (
"701 -308 OFFCURVE",
"743 -300 OFFCURVE",
"798 -285 CURVE",
"798 -89 LINE",
"768 -101 OFFCURVE",
"743 -105 OFFCURVE",
"715 -105 CURVE SMOOTH",
"681 -105 OFFCURVE",
"664 -95 OFFCURVE",
"664 -73 CURVE SMOOTH",
"664 -42 OFFCURVE",
"712 -20 OFFCURVE",
"799 18 CURVE SMOOTH",
"917 69 OFFCURVE",
"1000 155 OFFCURVE",
"1000 277 CURVE SMOOTH",
"1000 429 OFFCURVE",
"1000 598 OFFCURVE",
"1000 750 CURVE",
"585 750 LINE",
"585 603 OFFCURVE",
"585 482 OFFCURVE",
"585 335 CURVE SMOOTH",
"585 296 OFFCURVE",
"548 276 OFFCURVE",
"510 276 CURVE SMOOTH",
"473 276 OFFCURVE",
"435 296 OFFCURVE",
"435 336 CURVE SMOOTH",
"435 482 OFFCURVE",
"435 604 OFFCURVE",
"435 750 CURVE",
"20 750 LINE",
"20 598 OFFCURVE",
"20 429 OFFCURVE",
"20 277 CURVE SMOOTH",
"20 91 OFFCURVE",
"214 -12 OFFCURVE",
"429 -32 CURVE",
"405 -71 OFFCURVE",
"395 -111 OFFCURVE",
"395 -144 CURVE SMOOTH",
"395 -245 OFFCURVE",
"476 -308 OFFCURVE",
"639 -308 CURVE SMOOTH"
);
}
);
width = 1020;
}
);
leftKerningGroup = U;
leftMetricsKey = U;
rightKerningGroup = U;
rightMetricsKey = U;
unicode = 0172;
},
{
color = 6;
glyphname = V;
lastChange = "2021-05-04 22:46:14 +0000";
layers = (
{
anchors = (
{
name = bottom;
position = "{570, 0}";
},
{
name = top;
position = "{570, 750}";
}
);
layerId = "F6D8640C-383C-48A8-B63C-DDE9F10207CE";
paths = (
{
closed = 1;
nodes = (
"667 750 LINE",
"639 595 OFFCURVE",
"611 439 OFFCURVE",
"583 284 CURVE",
"582 284 OFFCURVE",
"582 284 OFFCURVE",
"581 284 CURVE",
"552 439 OFFCURVE",
"524 595 OFFCURVE",
"495 750 CURVE",
"0 750 LINE",
"98 500 OFFCURVE",
"196 250 OFFCURVE",
"294 0 CURVE",
"878 0 LINE",
"969 250 OFFCURVE",
"1059 500 OFFCURVE",
"1150 750 CURVE"
);
}
);
width = 1150;
},
{
anchors = (
{
name = bottom;
position = "{592, 0}";
},
{
name = top;
position = "{592, 750}";
}
);
background = {
paths = (
{
closed = 1;
nodes = (
"702 245 OFFCURVE",
"700 239 OFFCURVE",
"698 233 CURVE",
"694 221 OFFCURVE",
"688 210 OFFCURVE",
"682 201 CURVE",
"677 195 OFFCURVE",
"673 190 OFFCURVE",
"668 186 CURVE",
"662 180 OFFCURVE",
"657 176 OFFCURVE",
"651 172 CURVE",
"644 167 OFFCURVE",
"637 164 OFFCURVE",
"631 162 CURVE",
"623 158 OFFCURVE",
"616 156 OFFCURVE",
"609 155 CURVE",
"601 153 OFFCURVE",
"593 153 OFFCURVE",
"585 153 CURVE",
"579 153 OFFCURVE",
"574 153 OFFCURVE",
"567 154 CURVE",
"561 155 OFFCURVE",
"555 156 OFFCURVE",
"547 159 CURVE",
"542 160 OFFCURVE",
"537 163 OFFCURVE",
"531 166 CURVE",
"523 170 OFFCURVE",
"514 175 OFFCURVE",
"504 184 CURVE",
"499 189 OFFCURVE",
"493 195 OFFCURVE",
"488 202 CURVE",
"482 210 OFFCURVE",
"477 220 OFFCURVE",
"473 231 CURVE",
"471 237 OFFCURVE",
"469 244 OFFCURVE",
"468 251 CURVE",
"402 635 LINE",
"157 635 LINE",
"161 621 OFFCURVE",
"166 606 OFFCURVE",
"171 591 CURVE",
"206 481 OFFCURVE",
"250 344 OFFCURVE",
"285 233 CURVE",
"299 188 OFFCURVE",
"312 147 OFFCURVE",
"323 115 CURVE",
"829 115 LINE",
"839 145 OFFCURVE",
"851 182 OFFCURVE",
"864 223 CURVE",
"898 331 OFFCURVE",
"941 466 OFFCURVE",
"976 577 CURVE",
"982 597 OFFCURVE",
"988 617 OFFCURVE",
"994 635 CURVE",
"768 635 LINE",
"703 252 LINE"
);
}
);
};
layerId = "96858A69-C8A6-410B-90BB-94EA0DA45935";
paths = (
{
closed = 1;
nodes = (
"864 645 LINE",
"870 566 OFFCURVE",
"862 115 OFFCURVE",
"636 115 CURVE SMOOTH",
"607 115 OFFCURVE",
"643 115 OFFCURVE",
"610 115 CURVE SMOOTH",
"365 115 OFFCURVE",
"336 520 OFFCURVE",
"336 645 CURVE",
"173 645 LINE",
"251 488 OFFCURVE",
"335 278 OFFCURVE",
"350 115 CURVE",
"823 115 LINE",
"794 382 OFFCURVE",
"983 609 OFFCURVE",
"993 645 CURVE"
);
}
);
width = 1143;
},
{
anchors = (
{
name = bottom;
position = "{575, 0}";
},
{
name = top;
position = "{575, 750}";
}
);
associatedMasterId = "F6D8640C-383C-48A8-B63C-DDE9F10207CE";
layerId = "5B5615AD-668D-482C-BF0E-27622674D240";
name = "Mar 5 20, 11:13";
paths = (
{
closed = 1;
nodes = (
"670 750 LINE",
"665 722 OFFCURVE",
"614 414 OFFCURVE",
"589 270 CURVE SMOOTH",
"589 267 OFFCURVE",
"581 267 OFFCURVE",
"581 270 CURVE SMOOTH",
"554 430 OFFCURVE",
"527 590 OFFCURVE",
"500 750 CURVE",
"0 750 LINE",
"80 500 OFFCURVE",
"159 250 OFFCURVE",
"239 0 CURVE",
"913 0 LINE",
"992 250 OFFCURVE",
"1071 500 OFFCURVE",
"1150 750 CURVE"
);
}
);
width = 1150;
},
{
anchors = (
{
name = bottom;
position = "{575, 0}";
},
{
name = top;
position = "{575, 750}";
}
);
associatedMasterId = "F6D8640C-383C-48A8-B63C-DDE9F10207CE";
layerId = "9EE4B967-E215-4EDF-9726-9FCFBE40123B";
name = "Mar 5 20, 11:18";
paths = (
{
closed = 1;
nodes = (
"670 750 LINE",
"588 240 LINE",
"587 240 OFFCURVE",
"587 240 OFFCURVE",
"586 240 CURVE",
"500 750 LINE",
"10 750 LINE",
"90 500 OFFCURVE",
"169 250 OFFCURVE",
"249 0 CURVE",
"903 0 LINE",
"982 250 OFFCURVE",
"1061 500 OFFCURVE",
"1140 750 CURVE"
);
}
);
width = 1150;
},
{
anchors = (
{
name = bottom;
position = "{575, 0}";
},
{
name = top;
position = "{575, 750}";
}
);
associatedMasterId = "F6D8640C-383C-48A8-B63C-DDE9F10207CE";
layerId = "5CF82DDF-ADA8-4007-876C-509DA2748847";
name = "Mar 5 20, 11:25";
paths = (
{
closed = 1;
nodes = (
"681 750 LINE",
"588 284 LINE",
"587 284 OFFCURVE",
"587 284 OFFCURVE",
"586 284 CURVE",
"490 750 LINE",
"5 750 LINE",
"299 0 LINE",
"883 0 LINE",
"1155 750 LINE"
);
}
);
width = 1150;
}
);
leftKerningGroup = V;
rightKerningGroup = V;
unicode = 0056;
},
{
color = 6;
glyphname = W;
lastChange = "2021-04-02 09:45:05 +0000";
layers = (
{
anchors = (
{
name = bottom;
position = "{708, 0}";
},
{
name = top;
position = "{708, 750}";
}
);
layerId = "F6D8640C-383C-48A8-B63C-DDE9F10207CE";
paths = (
{
closed = 1;
nodes = (
"971 613 OFFCURVE",
"950 477 OFFCURVE",
"930 340 CURVE",
"930 340 OFFCURVE",
"928 340 OFFCURVE",
"928 340 CURVE SMOOTH",
"869 750 LINE",
"567 750 LINE",
"512 340 LINE SMOOTH",
"512 340 OFFCURVE",
"508 340 OFFCURVE",
"507 340 CURVE",
"487 477 OFFCURVE",
"466 613 OFFCURVE",
"446 750 CURVE",
"20 750 LINE",
"81 500 OFFCURVE",
"142 250 OFFCURVE",
"202 0 CURVE",
"636 0 LINE",
"695 376 LINE SMOOTH",
"695 379 OFFCURVE",
"698 378 OFFCURVE",
"698 376 CURVE SMOOTH",
"758 0 LINE",
"1223 0 LINE",
"1280 250 OFFCURVE",
"1338 500 OFFCURVE",
"1396 750 CURVE",
"991 750 LINE"
);
}
);
width = 1416;
},
{
anchors = (
{
name = bottom;
position = "{687, 0}";
},
{
name = top;
position = "{687, 750}";
}
);
background = {
paths = (
{
closed = 1;
nodes = (
"892 228 OFFCURVE",
"844 270 OFFCURVE",
"836 327 CURVE",
"794 645 LINE",
"607 645 LINE",
"591 492 LINE",
"609 505 OFFCURVE",
"631 512 OFFCURVE",
"655 513 CURVE",
"711 514 OFFCURVE",
"761 472 OFFCURVE",
"770 416 CURVE",
"817 125 LINE",
"1113 125 LINE",
"1114 130 OFFCURVE",
"1115 135 OFFCURVE",
"1116 141 CURVE",
"1131 204 OFFCURVE",
"1152 289 OFFCURVE",
"1172 376 CURVE",
"1195 471 OFFCURVE",
"1218 569 OFFCURVE",
"1236 645 CURVE",
"1109 645 LINE",
"1064 327 LINE",
"1056 270 OFFCURVE",
"1007 228 OFFCURVE",
"950 228 CURVE"
);
},
{
closed = 1;
nodes = (
"291 645 LINE",
"112 645 LINE",
"122 606 OFFCURVE",
"133 563 OFFCURVE",
"144 516 CURVE",
"178 379 OFFCURVE",
"218 220 OFFCURVE",
"242 125 CURVE",
"503 125 LINE",
"519 241 LINE",
"503 230 OFFCURVE",
"483 224 OFFCURVE",
"463 224 CURVE",
"405 222 OFFCURVE",
"355 263 OFFCURVE",
"346 320 CURVE"
);
}
);
};
layerId = "96858A69-C8A6-410B-90BB-94EA0DA45935";
paths = (
{
closed = 1;
nodes = (
"1088 579 OFFCURVE",
"1118 496 OFFCURVE",
"1122 394 CURVE SMOOTH",
"1132 140 OFFCURVE",
"844 196 OFFCURVE",
"833 261 CURVE SMOOTH",
"767 645 LINE",
"618 645 LINE",
"539 250 LINE SMOOTH",
"531 212 OFFCURVE",
"409 159 OFFCURVE",
"344 271 CURVE SMOOTH",
"299 348 OFFCURVE",
"266 522 OFFCURVE",
"305 645 CURVE",
"202 645 LINE",
"212 555 OFFCURVE",
"360 314 OFFCURVE",
"335 115 CURVE",
"512 115 LINE",
"585 480 LINE SMOOTH",
"607 589 OFFCURVE",
"778 580 OFFCURVE",
"795 482 CURVE SMOOTH",
"858 115 LINE",
"1138 115 LINE",
"1138 349 OFFCURVE",
"1239 471 OFFCURVE",
"1260 645 CURVE",
"1056 645 LINE"
);
}
);
width = 1407;
},
{
anchors = (
{
name = bottom;
position = "{708, 0}";
},
{
name = top;
position = "{708, 750}";
}
);
associatedMasterId = "F6D8640C-383C-48A8-B63C-DDE9F10207CE";
layerId = "4C037394-196E-4A8E-A153-A2138A9C9735";
name = "Mar 5 20, 11:06";
paths = (
{
closed = 1;
nodes = (
"1025 615 OFFCURVE",
"1006 479 OFFCURVE",
"987 344 CURVE SMOOTH",
"987 342 OFFCURVE",
"984 342 OFFCURVE",
"984 344 CURVE SMOOTH",
"929 750 LINE",
"538 750 LINE",
"496 344 LINE SMOOTH",
"496 341 OFFCURVE",
"492 340 OFFCURVE",
"491 344 CURVE SMOOTH",
"468 479 OFFCURVE",
"446 615 OFFCURVE",
"423 750 CURVE",
"0 750 LINE",
"62 500 OFFCURVE",
"125 250 OFFCURVE",
"187 0 CURVE",
"639 0 LINE",
"690 356 LINE SMOOTH",
"690 359 OFFCURVE",
"693 358 OFFCURVE",
"693 356 CURVE SMOOTH",
"754 0 LINE",
"1238 0 LINE",
"1297 250 OFFCURVE",
"1357 500 OFFCURVE",
"1416 750 CURVE",
"1044 750 LINE"
);
}
);
width = 1416;
},
{
anchors = (
{
name = bottom;
position = "{708, 0}";
},
{
name = top;
position = "{708, 750}";
}
);
associatedMasterId = "F6D8640C-383C-48A8-B63C-DDE9F10207CE";
layerId = "02B9583E-32D2-4322-8414-C0F7730EA925";
name = "Mar 5 20, 11:06";
paths = (
{
closed = 1;
nodes = (
"1025 615 OFFCURVE",
"1006 479 OFFCURVE",
"987 344 CURVE SMOOTH",
"987 342 OFFCURVE",
"984 342 OFFCURVE",
"984 344 CURVE SMOOTH",
"929 750 LINE",
"538 750 LINE",
"496 344 LINE SMOOTH",
"496 341 OFFCURVE",
"492 340 OFFCURVE",
"491 344 CURVE SMOOTH",
"468 479 OFFCURVE",
"446 615 OFFCURVE",
"423 750 CURVE",
"0 750 LINE",
"62 500 OFFCURVE",
"125 250 OFFCURVE",
"187 0 CURVE",
"639 0 LINE",
"690 356 LINE SMOOTH",
"690 359 OFFCURVE",
"693 358 OFFCURVE",
"693 356 CURVE SMOOTH",
"754 0 LINE",
"1238 0 LINE",
"1297 250 OFFCURVE",
"1357 500 OFFCURVE",
"1416 750 CURVE",
"1044 750 LINE"
);
}
);
width = 1416;
},
{
anchors = (
{
name = bottom;
position = "{708, 0}";
},
{
name = top;
position = "{708, 750}";
}
);
associatedMasterId = "F6D8640C-383C-48A8-B63C-DDE9F10207CE";
layerId = "241F7D01-A836-417F-9A5C-0487998C7963";
name = "Mar 5 20, 11:11";
paths = (
{
closed = 1;
nodes = (
"937 340 LINE",
"937 340 OFFCURVE",
"934 340 OFFCURVE",
"934 340 CURVE SMOOTH",
"874 750 LINE",
"563 750 LINE",
"506 340 LINE SMOOTH",
"506 340 OFFCURVE",
"502 340 OFFCURVE",
"501 340 CURVE",
"438 750 LINE",
"0 750 LINE",
"62 500 OFFCURVE",
"125 250 OFFCURVE",
"187 0 CURVE",
"634 0 LINE",
"695 376 LINE SMOOTH",
"695 379 OFFCURVE",
"698 378 OFFCURVE",
"698 376 CURVE SMOOTH",
"759 0 LINE",
"1238 0 LINE",
"1297 250 OFFCURVE",
"1357 500 OFFCURVE",
"1416 750 CURVE",
"999 750 LINE"
);
}
);
width = 1416;
}
);
leftKerningGroup = W;
rightKerningGroup = W;
unicode = 0057;
},
{
color = 6;
glyphname = X;
lastChange = "2021-04-02 09:45:05 +0000";
layers = (
{
anchors = (
{
name = bottom;
position = "{561, 0}";
},
{
name = top;
position = "{561, 750}";
}
);
guideLines = (
{
locked = 1;
position = "{818, 372}";
}
);
layerId = "F6D8640C-383C-48A8-B63C-DDE9F10207CE";
paths = (
{
closed = 1;
nodes = (
"566 344 OFFCURVE",
"565 345 OFFCURVE",
"565 347 CURVE SMOOTH",
"481 750 LINE",
"14 750 LINE",
"63 629 OFFCURVE",
"111 507 OFFCURVE",
"160 386 CURVE SMOOTH",
"160 385 OFFCURVE",
"160 385 OFFCURVE",
"160 384 CURVE SMOOTH",
"106 256 OFFCURVE",
"53 128 OFFCURVE",
"-1 0 CURVE",
"485 0 LINE",
"565 338 LINE SMOOTH",
"565 339 OFFCURVE",
"566 341 OFFCURVE",
"566 342 CURVE"
);
},
{
closed = 1;
nodes = (
"530 351 OFFCURVE",
"531 349 OFFCURVE",
"531 348 CURVE",
"635 0 LINE",
"1122 0 LINE",
"1064 122 OFFCURVE",
"1006 244 OFFCURVE",
"948 366 CURVE SMOOTH",
"948 367 OFFCURVE",
"948 367 OFFCURVE",
"948 368 CURVE SMOOTH",
"1004 495 OFFCURVE",
"1061 623 OFFCURVE",
"1117 750 CURVE",
"612 750 LINE",
"585 619 OFFCURVE",
"558 487 OFFCURVE",
"531 356 CURVE",
"531 355 OFFCURVE",
"530 353 OFFCURVE",
"530 352 CURVE"
);
}
);
width = 1122;
},
{
anchors = (
{
name = bottom;
position = "{561, 0}";
},
{
name = top;
position = "{561, 750}";
}
);
background = {
paths = (
{
closed = 1;
nodes = (
"938 645 LINE",
"703 645 LINE",
"656 420 LINE",
"653 401 OFFCURVE",
"644 384 OFFCURVE",
"633 370 CURVE",
"645 358 OFFCURVE",
"654 342 OFFCURVE",
"659 324 CURVE",
"719 125 LINE",
"938 125 LINE",
"842 328 LINE",
"828 358 OFFCURVE",
"827 393 OFFCURVE",
"841 424 CURVE"
);
},
{
closed = 1;
nodes = (
"183 645 LINE",
"266 438 LINE",
"277 410 OFFCURVE",
"277 379 OFFCURVE",
"265 351 CURVE",
"171 125 LINE",
"392 125 LINE",
"437 318 LINE",
"441 335 OFFCURVE",
"449 351 OFFCURVE",
"460 365 CURVE",
"446 380 OFFCURVE",
"436 399 OFFCURVE",
"431 421 CURVE",
"386 645 LINE"
);
}
);
};
guideLines = (
{
locked = 1;
position = "{818, 372}";
}
);
layerId = "96858A69-C8A6-410B-90BB-94EA0DA45935";
paths = (
{
closed = 1;
nodes = (
"449 368 OFFCURVE",
"412 403 OFFCURVE",
"409 434 CURVE SMOOTH",
"386 645 LINE",
"213 645 LINE",
"274 584 OFFCURVE",
"308 551 OFFCURVE",
"348 506 CURVE SMOOTH",
"446 394 OFFCURVE",
"368 324 OFFCURVE",
"321 269 CURVE SMOOTH",
"253 188 OFFCURVE",
"223 153 OFFCURVE",
"177 115 CURVE",
"371 115 LINE",
"383 180 LINE SMOOTH",
"399 268 OFFCURVE",
"414 369 OFFCURVE",
"479 372 CURVE"
);
},
{
closed = 1;
nodes = (
"682 372 OFFCURVE",
"685 336 OFFCURVE",
"695 218 CURVE SMOOTH",
"704 115 LINE",
"950 115 LINE",
"929 123 OFFCURVE",
"817 243 OFFCURVE",
"793 266 CURVE SMOOTH",
"736 320 OFFCURVE",
"706 372 OFFCURVE",
"758 444 CURVE SMOOTH",
"798 499 OFFCURVE",
"847 568 OFFCURVE",
"896 645 CURVE",
"711 645 LINE",
"711 553 OFFCURVE",
"725 502 OFFCURVE",
"710 454 CURVE SMOOTH",
"687 379 OFFCURVE",
"610 375 OFFCURVE",
"597 372 CURVE"
);
}
);
width = 1122;
}
);
leftKerningGroup = X;
rightKerningGroup = X;
unicode = 0058;
},
{
color = 6;
glyphname = Y;
lastChange = "2021-04-02 09:45:05 +0000";
layers = (
{
anchors = (
{
name = bottom;
position = "{559, 0}";
},
{
name = top;
position = "{559, 750}";
},
{
name = topleft;
position = "{20, 750}";
}
);
background = {
paths = (
{
closed = 1;
nodes = (
"1045 750 LINE",
"668 750 LINE",
"619 448 LINE",
"602 448 LINE",
"555 750 LINE",
"119 750 LINE",
"355 217 LINE",
"355 0 LINE",
"804 0 LINE",
"804 217 LINE"
);
}
);
};
layerId = "F6D8640C-383C-48A8-B63C-DDE9F10207CE";
paths = (
{
closed = 1;
nodes = (
"612 654 OFFCURVE",
"585 558 OFFCURVE",
"558 462 CURVE",
"558 461 OFFCURVE",
"556 461 OFFCURVE",
"556 462 CURVE",
"531 558 OFFCURVE",
"505 654 OFFCURVE",
"480 750 CURVE",
"0 750 LINE",
"116 550 OFFCURVE",
"231 351 OFFCURVE",
"347 151 CURVE",
"347 151 OFFCURVE",
"347 151 OFFCURVE",
"347 151 CURVE SMOOTH",
"347 0 LINE",
"762 0 LINE",
"762 150 LINE SMOOTH",
"762 150 OFFCURVE",
"762 150 OFFCURVE",
"762 150 CURVE",
"872 350 OFFCURVE",
"983 550 OFFCURVE",
"1093 750 CURVE",
"639 750 LINE"
);
}
);
width = 1093;
},
{
anchors = (
{
name = bottom;
position = "{540, 0}";
},
{
name = top;
position = "{540, 750}";
},
{
name = topleft;
position = "{13, 750}";
}
);
background = {
paths = (
{
closed = 1;
nodes = (
"519 244 OFFCURVE",
"484 262 OFFCURVE",
"462 291 CURVE",
"452 305 OFFCURVE",
"444 321 OFFCURVE",
"441 339 CURVE",
"375 645 LINE",
"193 645 LINE",
"429 216 LINE",
"438 199 OFFCURVE",
"443 179 OFFCURVE",
"443 159 CURVE",
"442 125 LINE",
"661 125 LINE",
"661 161 LINE",
"661 179 OFFCURVE",
"665 198 OFFCURVE",
"674 214 CURVE",
"900 645 LINE",
"739 645 LINE",
"669 338 LINE",
"658 285 OFFCURVE",
"611 244 OFFCURVE",
"555 244 CURVE"
);
}
);
};
layerId = "96858A69-C8A6-410B-90BB-94EA0DA45935";
paths = (
{
closed = 1;
nodes = (
"755 525 OFFCURVE",
"726 364 OFFCURVE",
"682 310 CURVE SMOOTH",
"609 221 OFFCURVE",
"490 248 OFFCURVE",
"452 344 CURVE SMOOTH",
"415 438 OFFCURVE",
"438 557 OFFCURVE",
"438 645 CURVE",
"256 645 LINE",
"316 516 OFFCURVE",
"347 511 OFFCURVE",
"419 320 CURVE SMOOTH",
"439 267 OFFCURVE",
"445 222 OFFCURVE",
"445 186 CURVE SMOOTH",
"445 115 LINE",
"654 115 LINE",
"654 126 LINE SMOOTH",
"654 183 OFFCURVE",
"655 242 OFFCURVE",
"686 301 CURVE SMOOTH",
"752 426 OFFCURVE",
"827 520 OFFCURVE",
"853 645 CURVE",
"702 645 LINE"
);
}
);
width = 1083;
},
{
anchors = (
{
name = bottom;
position = "{547, 0}";
},
{
name = top;
position = "{547, 750}";
},
{
name = topleft;
position = "{20, 750}";
}
);
associatedMasterId = "F6D8640C-383C-48A8-B63C-DDE9F10207CE";
background = {
paths = (
{
closed = 1;
nodes = (
"1045 750 LINE",
"668 750 LINE",
"619 448 LINE",
"602 448 LINE",
"555 750 LINE",
"119 750 LINE",
"355 217 LINE",
"355 0 LINE",
"804 0 LINE",
"804 217 LINE"
);
}
);
};
layerId = "B4B4D704-2059-4660-9525-BBF51D77AF66";
name = "Mar 4 20, 18:10";
paths = (
{
closed = 1;
nodes = (
"619 617 OFFCURVE",
"588 484 OFFCURVE",
"558 351 CURVE SMOOTH",
"558 349 OFFCURVE",
"556 349 OFFCURVE",
"556 351 CURVE SMOOTH",
"527 484 OFFCURVE",
"499 617 OFFCURVE",
"470 750 CURVE",
"0 750 LINE",
"110 550 OFFCURVE",
"220 351 OFFCURVE",
"330 151 CURVE SMOOTH",
"330 151 OFFCURVE",
"330 151 OFFCURVE",
"330 151 CURVE SMOOTH",
"330 0 LINE",
"778 0 LINE",
"778 150 LINE SMOOTH",
"778 150 OFFCURVE",
"778 150 OFFCURVE",
"778 150 CURVE SMOOTH",
"883 350 OFFCURVE",
"988 550 OFFCURVE",
"1093 750 CURVE",
"649 750 LINE"
);
}
);
width = 1093;
},
{
anchors = (
{
name = bottom;
position = "{547, 0}";
},
{
name = top;
position = "{547, 750}";
},
{
name = topleft;
position = "{20, 750}";
}
);
associatedMasterId = "F6D8640C-383C-48A8-B63C-DDE9F10207CE";
background = {
paths = (
{
closed = 1;
nodes = (
"1045 750 LINE",
"668 750 LINE",
"619 448 LINE",
"602 448 LINE",
"555 750 LINE",
"119 750 LINE",
"355 217 LINE",
"355 0 LINE",
"804 0 LINE",
"804 217 LINE"
);
}
);
};
layerId = "17C6AC0A-241B-4095-8168-3129244E9158";
name = "Mar 5 20, 11:16";
paths = (
{
closed = 1;
nodes = (
"612 671 OFFCURVE",
"584 591 OFFCURVE",
"558 512 CURVE SMOOTH",
"558 511 OFFCURVE",
"556 511 OFFCURVE",
"556 512 CURVE SMOOTH",
"531 591 OFFCURVE",
"505 671 OFFCURVE",
"480 750 CURVE",
"0 750 LINE",
"110 550 OFFCURVE",
"237 351 OFFCURVE",
"347 151 CURVE SMOOTH",
"347 151 OFFCURVE",
"347 151 OFFCURVE",
"347 151 CURVE SMOOTH",
"347 0 LINE",
"762 0 LINE",
"762 150 LINE SMOOTH",
"762 150 OFFCURVE",
"762 150 OFFCURVE",
"762 150 CURVE SMOOTH",
"867 350 OFFCURVE",
"988 550 OFFCURVE",
"1093 750 CURVE",
"639 750 LINE"
);
}
);
width = 1093;
}
);
leftKerningGroup = Y;
rightKerningGroup = Y;
unicode = 0059;
},
{
color = 6;
glyphname = Z;
lastChange = "2021-04-02 09:45:05 +0000";
layers = (
{
anchors = (
{
name = bottom;
position = "{445, 0}";
},
{
name = center;
position = "{445, 375}";
},
{
name = top;
position = "{445, 750}";
}
);
layerId = "F6D8640C-383C-48A8-B63C-DDE9F10207CE";
paths = (
{
closed = 1;
nodes = (
"14 750 LINE",
"14 450 LINE",
"331 450 LINE SMOOTH",
"332 450 OFFCURVE",
"332 449 OFFCURVE",
"332 449 CURVE",
"-15 0 LINE",
"884 0 LINE",
"884 301 LINE",
"593 301 LINE SMOOTH",
"592 301 OFFCURVE",
"591 301 OFFCURVE",
"592 302 CURVE",
"908 750 LINE"
);
}
);
width = 898;
},
{
anchors = (
{
name = bottom;
position = "{452, 0}";
},
{
name = center;
position = "{452, 375}";
},
{
name = top;
position = "{452, 750}";
}
);
background = {
paths = (
{
closed = 1;
nodes = (
"328 575 LINE",
"372 575 OFFCURVE",
"412 550 OFFCURVE",
"431 511 CURVE",
"451 471 OFFCURVE",
"446 424 OFFCURVE",
"419 390 CURVE",
"214 125 LINE",
"747 125 LINE",
"747 196 LINE",
"586 196 LINE",
"543 196 OFFCURVE",
"504 220 OFFCURVE",
"484 258 CURVE",
"464 296 OFFCURVE",
"467 342 OFFCURVE",
"492 377 CURVE",
"681 645 LINE",
"130 645 LINE",
"130 575 LINE"
);
}
);
};
layerId = "96858A69-C8A6-410B-90BB-94EA0DA45935";
paths = (
{
closed = 1;
nodes = (
"142 645 LINE",
"142 575 LINE",
"451 575 LINE SMOOTH",
"507 575 OFFCURVE",
"551 507 OFFCURVE",
"504 449 CURVE",
"247 115 LINE",
"759 115 LINE",
"759 196 LINE",
"444 196 LINE SMOOTH",
"368 196 OFFCURVE",
"353 257 OFFCURVE",
"397 310 CURVE",
"655 645 LINE"
);
}
);
width = 902;
}
);
leftKerningGroup = Z;
rightKerningGroup = Z;
unicode = 005A;
},
{
color = 6;
glyphname = a;
lastChange = "2021-04-27 11:22:56 +0000";
layers = (
{
anchors = (
{
name = bottom;
position = "{427, 0}";
},
{
name = ogonek;
position = "{758, 10}";
},
{
name = top;
position = "{427, 620}";
}
);
background = {
paths = (
{
closed = 1;
nodes = (
"601 0 OFFCURVE",
"717 0 OFFCURVE",
"834 0 CURVE",
"834 129 OFFCURVE",
"834 259 OFFCURVE",
"834 388 CURVE SMOOTH",
"834 654 OFFCURVE",
"356 716 OFFCURVE",
"69 584 CURVE",
"69 331 LINE",
"136 377 OFFCURVE",
"225 401 OFFCURVE",
"303 401 CURVE SMOOTH",
"402 401 OFFCURVE",
"484 363 OFFCURVE",
"484 285 CURVE SMOOTH",
"484 180 OFFCURVE",
"484 95 OFFCURVE",
"484 0 CURVE"
);
},
{
closed = 1;
nodes = (
"484 203 LINE",
"467 164 OFFCURVE",
"429 161 OFFCURVE",
"403 161 CURVE SMOOTH",
"358 161 OFFCURVE",
"324 179 OFFCURVE",
"324 210 CURVE SMOOTH",
"324 245 OFFCURVE",
"360 258 OFFCURVE",
"404 258 CURVE SMOOTH",
"438 258 OFFCURVE",
"484 246 OFFCURVE",
"484 210 CURVE",
"484 276 LINE",
"445 330 OFFCURVE",
"354 361 OFFCURVE",
"262 361 CURVE SMOOTH",
"88 361 OFFCURVE",
"3 265 OFFCURVE",
"3 169 CURVE SMOOTH",
"3 -4 OFFCURVE",
"246 -74 OFFCURVE",
"400 7 CURVE"
);
}
);
};
layerId = "F6D8640C-383C-48A8-B63C-DDE9F10207CE";
paths = (
{
closed = 1;
nodes = (
"356 716 OFFCURVE",
"834 654 OFFCURVE",
"834 388 CURVE SMOOTH",
"834 259 OFFCURVE",
"834 129 OFFCURVE",
"834 0 CURVE",
"717 0 OFFCURVE",
"601 0 OFFCURVE",
"484 0 CURVE",
"484 70 OFFCURVE",
"484 140 OFFCURVE",
"484 210 CURVE SMOOTH",
"484 246 OFFCURVE",
"442 259 OFFCURVE",
"409 259 CURVE SMOOTH",
"358 259 OFFCURVE",
"332 235 OFFCURVE",
"332 210 CURVE SMOOTH",
"332 185 OFFCURVE",
"359 160 OFFCURVE",
"409 160 CURVE SMOOTH",
"433 160 OFFCURVE",
"469 164 OFFCURVE",
"485 203 CURVE",
"457 138 OFFCURVE",
"428 72 OFFCURVE",
"400 7 CURVE",
"235 -74 OFFCURVE",
"3 -12 OFFCURVE",
"3 167 CURVE SMOOTH",
"3 264 OFFCURVE",
"83 361 OFFCURVE",
"262 361 CURVE SMOOTH",
"354 361 OFFCURVE",
"445 330 OFFCURVE",
"484 276 CURVE SMOOTH",
"484 279 OFFCURVE",
"484 282 OFFCURVE",
"484 285 CURVE SMOOTH",
"484 368 OFFCURVE",
"395 404 OFFCURVE",
"293 404 CURVE SMOOTH",
"214 404 OFFCURVE",
"129 383 OFFCURVE",
"69 345 CURVE",
"69 584 LINE"
);
}
);
width = 853;
},
{
anchors = (
{
name = bottom;
position = "{422, 0}";
},
{
name = ogonek;
position = "{678, 115}";
},
{
name = top;
position = "{422, 620}";
}
);
layerId = "96858A69-C8A6-410B-90BB-94EA0DA45935";
paths = (
{
closed = 1;
nodes = (
"608 515 OFFCURVE",
"683 441 OFFCURVE",
"683 342 CURVE SMOOTH",
"683 213 OFFCURVE",
"685 144 OFFCURVE",
"704 115 CURVE",
"607 115 OFFCURVE",
"663 115 OFFCURVE",
"546 115 CURVE",
"554 123 OFFCURVE",
"570 141 OFFCURVE",
"570 162 CURVE SMOOTH",
"570 229 OFFCURVE",
"469 272 OFFCURVE",
"374 282 CURVE SMOOTH",
"243 296 OFFCURVE",
"192 230 OFFCURVE",
"192 179 CURVE SMOOTH",
"192 149 OFFCURVE",
"209 123 OFFCURVE",
"225 110 CURVE SMOOTH",
"234 103 OFFCURVE",
"250 94 OFFCURVE",
"261 94 CURVE",
"259 93 OFFCURVE",
"256 92 OFFCURVE",
"252 91 CURVE SMOOTH",
"91 51 OFFCURVE",
"41 214 OFFCURVE",
"140 240 CURVE SMOOTH",
"310 284 OFFCURVE",
"283 334 OFFCURVE",
"372 332 CURVE SMOOTH",
"430 331 OFFCURVE",
"507 236 OFFCURVE",
"552 236 CURVE SMOOTH",
"602 236 OFFCURVE",
"625 288 OFFCURVE",
"625 332 CURVE SMOOTH",
"625 407 OFFCURVE",
"556 511 OFFCURVE",
"439 511 CURVE SMOOTH",
"438 511 OFFCURVE",
"442 511 OFFCURVE",
"435 511 CURVE",
"435 515 LINE"
);
}
);
width = 838;
},
{
anchors = (
{
name = bottom;
position = "{427, 0}";
},
{
name = ogonek;
position = "{758, 10}";
},
{
name = top;
position = "{427, 620}";
}
);
associatedMasterId = "F6D8640C-383C-48A8-B63C-DDE9F10207CE";
background = {
paths = (
{
closed = 1;
nodes = (
"601 0 OFFCURVE",
"717 0 OFFCURVE",
"834 0 CURVE",
"834 129 OFFCURVE",
"834 259 OFFCURVE",
"834 388 CURVE SMOOTH",
"834 654 OFFCURVE",
"356 716 OFFCURVE",
"69 584 CURVE",
"69 331 LINE",
"136 377 OFFCURVE",
"225 401 OFFCURVE",
"303 401 CURVE SMOOTH",
"402 401 OFFCURVE",
"484 363 OFFCURVE",
"484 285 CURVE SMOOTH",
"484 180 OFFCURVE",
"484 95 OFFCURVE",
"484 0 CURVE"
);
},
{
closed = 1;
nodes = (
"484 203 LINE",
"467 164 OFFCURVE",
"429 161 OFFCURVE",
"403 161 CURVE SMOOTH",
"358 161 OFFCURVE",
"324 179 OFFCURVE",
"324 210 CURVE SMOOTH",
"324 245 OFFCURVE",
"360 258 OFFCURVE",
"404 258 CURVE SMOOTH",
"438 258 OFFCURVE",
"484 246 OFFCURVE",
"484 210 CURVE",
"484 276 LINE",
"445 330 OFFCURVE",
"354 361 OFFCURVE",
"262 361 CURVE SMOOTH",
"88 361 OFFCURVE",
"3 265 OFFCURVE",
"3 169 CURVE SMOOTH",
"3 -4 OFFCURVE",
"246 -74 OFFCURVE",
"400 7 CURVE"
);
}
);
};
layerId = "84AA9D96-F50A-42B3-BCE6-437C07D53DCC";
name = "Mar 5 20, 10:43";
paths = (
{
closed = 1;
nodes = (
"356 716 OFFCURVE",
"834 654 OFFCURVE",
"834 388 CURVE SMOOTH",
"834 259 OFFCURVE",
"834 129 OFFCURVE",
"834 0 CURVE",
"717 0 OFFCURVE",
"601 0 OFFCURVE",
"484 0 CURVE",
"484 70 OFFCURVE",
"484 140 OFFCURVE",
"484 210 CURVE SMOOTH",
"484 248 OFFCURVE",
"438 260 OFFCURVE",
"404 260 CURVE SMOOTH",
"360 260 OFFCURVE",
"324 247 OFFCURVE",
"324 210 CURVE SMOOTH",
"324 179 OFFCURVE",
"358 161 OFFCURVE",
"403 161 CURVE SMOOTH",
"429 161 OFFCURVE",
"468 164 OFFCURVE",
"485 203 CURVE",
"457 138 OFFCURVE",
"428 72 OFFCURVE",
"400 7 CURVE",
"235 -74 OFFCURVE",
"3 -12 OFFCURVE",
"3 167 CURVE SMOOTH",
"3 264 OFFCURVE",
"83 361 OFFCURVE",
"262 361 CURVE SMOOTH",
"354 361 OFFCURVE",
"445 330 OFFCURVE",
"484 276 CURVE SMOOTH",
"484 279 OFFCURVE",
"484 282 OFFCURVE",
"484 285 CURVE SMOOTH",
"484 363 OFFCURVE",
"402 401 OFFCURVE",
"303 401 CURVE SMOOTH",
"225 401 OFFCURVE",
"146 387 OFFCURVE",
"69 341 CURVE",
"69 584 LINE"
);
}
);
width = 853;
},
{
anchors = (
{
name = bottom;
position = "{427, 0}";
},
{
name = ogonek;
position = "{758, 10}";
},
{
name = top;
position = "{427, 620}";
}
);
associatedMasterId = "F6D8640C-383C-48A8-B63C-DDE9F10207CE";
background = {
paths = (
{
closed = 1;
nodes = (
"601 0 OFFCURVE",
"717 0 OFFCURVE",
"834 0 CURVE",
"834 129 OFFCURVE",
"834 259 OFFCURVE",
"834 388 CURVE SMOOTH",
"834 654 OFFCURVE",
"356 716 OFFCURVE",
"69 584 CURVE",
"69 331 LINE",
"136 377 OFFCURVE",
"225 401 OFFCURVE",
"303 401 CURVE SMOOTH",
"402 401 OFFCURVE",
"484 363 OFFCURVE",
"484 285 CURVE SMOOTH",
"484 180 OFFCURVE",
"484 95 OFFCURVE",
"484 0 CURVE"
);
},
{
closed = 1;
nodes = (
"484 203 LINE",
"467 164 OFFCURVE",
"429 161 OFFCURVE",
"403 161 CURVE SMOOTH",
"358 161 OFFCURVE",
"324 179 OFFCURVE",
"324 210 CURVE SMOOTH",
"324 245 OFFCURVE",
"360 258 OFFCURVE",
"404 258 CURVE SMOOTH",
"438 258 OFFCURVE",
"484 246 OFFCURVE",
"484 210 CURVE",
"484 276 LINE",
"445 330 OFFCURVE",
"354 361 OFFCURVE",
"262 361 CURVE SMOOTH",
"88 361 OFFCURVE",
"3 265 OFFCURVE",
"3 169 CURVE SMOOTH",
"3 -4 OFFCURVE",
"246 -74 OFFCURVE",
"400 7 CURVE"
);
}
);
};
layerId = "86843DC7-B32A-4AB2-877F-2485E8EEFB16";
name = "Mar 5 20, 10:45";
paths = (
{
closed = 1;
nodes = (
"356 716 OFFCURVE",
"834 654 OFFCURVE",
"834 388 CURVE SMOOTH",
"834 259 OFFCURVE",
"834 129 OFFCURVE",
"834 0 CURVE",
"717 0 OFFCURVE",
"601 0 OFFCURVE",
"484 0 CURVE",
"484 70 OFFCURVE",
"484 140 OFFCURVE",
"484 210 CURVE SMOOTH",
"484 248 OFFCURVE",
"438 260 OFFCURVE",
"404 260 CURVE SMOOTH",
"360 260 OFFCURVE",
"324 247 OFFCURVE",
"324 210 CURVE SMOOTH",
"324 179 OFFCURVE",
"358 161 OFFCURVE",
"403 161 CURVE SMOOTH",
"429 161 OFFCURVE",
"468 164 OFFCURVE",
"485 203 CURVE",
"457 138 OFFCURVE",
"428 72 OFFCURVE",
"400 7 CURVE",
"235 -74 OFFCURVE",
"3 -12 OFFCURVE",
"3 167 CURVE SMOOTH",
"3 264 OFFCURVE",
"83 361 OFFCURVE",
"262 361 CURVE SMOOTH",
"354 361 OFFCURVE",
"445 330 OFFCURVE",
"484 276 CURVE SMOOTH",
"484 279 OFFCURVE",
"484 282 OFFCURVE",
"484 285 CURVE SMOOTH",
"484 368 OFFCURVE",
"408 402 OFFCURVE",
"311 402 CURVE SMOOTH",
"234 402 OFFCURVE",
"144 380 OFFCURVE",
"69 345 CURVE",
"69 584 LINE"
);
}
);
width = 853;
}
);
leftKerningGroup = a;
rightKerningGroup = n;
rightMetricsKey = n;
unicode = 0061;
},
{
color = 6;
glyphname = aogonek;
lastChange = "2021-05-06 21:51:47 +0000";
layers = (
{
anchors = (
{
name = bottom;
position = "{390, 0}";
},
{
name = ogonek;
position = "{730, 115}";
},
{
name = top;
position = "{390, 620}";
}
);
layerId = "96858A69-C8A6-410B-90BB-94EA0DA45935";
paths = (
{
closed = 1;
nodes = (
"650 -105 OFFCURVE",
"696 -77 OFFCURVE",
"724 -34 CURVE",
"724 -33 LINE",
"719 -34 OFFCURVE",
"714 -34 OFFCURVE",
"709 -34 CURVE SMOOTH",
"664 -34 OFFCURVE",
"614 -4 OFFCURVE",
"614 35 CURVE SMOOTH",
"614 69 OFFCURVE",
"650 109 OFFCURVE",
"704 115 CURVE",
"685 144 OFFCURVE",
"683 213 OFFCURVE",
"683 342 CURVE SMOOTH",
"683 441 OFFCURVE",
"608 515 OFFCURVE",
"435 515 CURVE",
"435 511 LINE",
"442 511 OFFCURVE",
"438 511 OFFCURVE",
"439 511 CURVE SMOOTH",
"556 511 OFFCURVE",
"625 407 OFFCURVE",
"625 332 CURVE SMOOTH",
"625 288 OFFCURVE",
"602 236 OFFCURVE",
"552 236 CURVE SMOOTH",
"507 236 OFFCURVE",
"430 331 OFFCURVE",
"372 332 CURVE SMOOTH",
"283 334 OFFCURVE",
"310 284 OFFCURVE",
"140 240 CURVE SMOOTH",
"41 214 OFFCURVE",
"91 51 OFFCURVE",
"252 91 CURVE SMOOTH",
"256 92 OFFCURVE",
"259 93 OFFCURVE",
"261 94 CURVE",
"250 94 OFFCURVE",
"234 103 OFFCURVE",
"225 110 CURVE SMOOTH",
"209 123 OFFCURVE",
"192 149 OFFCURVE",
"192 179 CURVE SMOOTH",
"192 230 OFFCURVE",
"243 296 OFFCURVE",
"374 282 CURVE SMOOTH",
"469 272 OFFCURVE",
"570 229 OFFCURVE",
"570 162 CURVE SMOOTH",
"570 141 OFFCURVE",
"554 123 OFFCURVE",
"546 115 CURVE",
"743 95 OFFCURVE",
"510 57 OFFCURVE",
"510 -45 CURVE SMOOTH",
"510 -77 OFFCURVE",
"539 -105 OFFCURVE",
"595 -105 CURVE SMOOTH"
);
}
);
width = 858;
},
{
anchors = (
{
name = bottom;
position = "{422, 0}";
},
{
name = ogonek;
position = "{753, 10}";
},
{
name = top;
position = "{422, 620}";
}
);
associatedMasterId = "F6D8640C-383C-48A8-B63C-DDE9F10207CE";
layerId = "33ECBDD8-6A67-4C74-868C-29FD602E8ABD";
name = "Mar 18 20, 13:50";
paths = (
{
closed = 1;
nodes = (
"718 -318 OFFCURVE",
"760 -310 OFFCURVE",
"815 -295 CURVE",
"815 -99 LINE",
"785 -111 OFFCURVE",
"760 -115 OFFCURVE",
"732 -115 CURVE SMOOTH",
"698 -115 OFFCURVE",
"679 -105 OFFCURVE",
"681 -83 CURVE SMOOTH",
"685 -53 OFFCURVE",
"721 -20 OFFCURVE",
"829 0 CURVE",
"829 129 OFFCURVE",
"829 259 OFFCURVE",
"829 388 CURVE SMOOTH",
"829 654 OFFCURVE",
"351 716 OFFCURVE",
"64 584 CURVE",
"64 331 LINE",
"131 377 OFFCURVE",
"220 401 OFFCURVE",
"298 401 CURVE SMOOTH",
"397 401 OFFCURVE",
"479 363 OFFCURVE",
"479 285 CURVE SMOOTH",
"479 172 OFFCURVE",
"479 95 OFFCURVE",
"479 0 CURVE",
"435 -48 OFFCURVE",
"412 -105 OFFCURVE",
"412 -154 CURVE SMOOTH",
"412 -255 OFFCURVE",
"493 -318 OFFCURVE",
"656 -318 CURVE SMOOTH"
);
},
{
closed = 1;
nodes = (
"479 192 LINE",
"463 157 OFFCURVE",
"428 150 OFFCURVE",
"403 150 CURVE SMOOTH",
"357 150 OFFCURVE",
"325 170 OFFCURVE",
"325 199 CURVE SMOOTH",
"325 233 OFFCURVE",
"361 248 OFFCURVE",
"406 248 CURVE SMOOTH",
"440 248 OFFCURVE",
"479 233 OFFCURVE",
"479 199 CURVE",
"479 282 LINE",
"437 334 OFFCURVE",
"333 359 OFFCURVE",
"254 359 CURVE SMOOTH",
"113 359 OFFCURVE",
"3 292 OFFCURVE",
"3 167 CURVE SMOOTH",
"3 -3 OFFCURVE",
"243 -72 OFFCURVE",
"395 7 CURVE"
);
}
);
width = 848;
},
{
anchors = (
{
name = bottom;
position = "{390, 0}";
},
{
name = ogonek;
position = "{730, 115}";
},
{
name = top;
position = "{390, 620}";
}
);
associatedMasterId = "96858A69-C8A6-410B-90BB-94EA0DA45935";
layerId = "631BB398-81E5-40D8-B2BD-6BFB720E08B2";
name = "Mar 18 20, 13:54";
paths = (
{
closed = 1;
nodes = (
"650 -105 OFFCURVE",
"696 -77 OFFCURVE",
"724 -34 CURVE",
"724 -33 LINE",
"719 -34 OFFCURVE",
"714 -34 OFFCURVE",
"709 -34 CURVE SMOOTH",
"664 -34 OFFCURVE",
"614 -4 OFFCURVE",
"614 35 CURVE SMOOTH",
"614 69 OFFCURVE",
"641 108 OFFCURVE",
"739 115 CURVE",
"666 151 OFFCURVE",
"685 272 OFFCURVE",
"685 358 CURVE SMOOTH",
"685 543 OFFCURVE",
"511 581 OFFCURVE",
"372 533 CURVE",
"372 532 LINE",
"382 534 OFFCURVE",
"392 535 OFFCURVE",
"404 535 CURVE SMOOTH",
"471 535 OFFCURVE",
"559 493 OFFCURVE",
"559 345 CURVE SMOOTH",
"559 242 OFFCURVE",
"566 178 OFFCURVE",
"541 115 CURVE",
"747 95 OFFCURVE",
"510 57 OFFCURVE",
"510 -45 CURVE SMOOTH",
"510 -77 OFFCURVE",
"539 -105 OFFCURVE",
"595 -105 CURVE SMOOTH"
);
},
{
closed = 1;
nodes = (
"251 92 LINE",
"250 92 OFFCURVE",
"249 92 OFFCURVE",
"248 92 CURVE SMOOTH",
"233 94 OFFCURVE",
"197 120 OFFCURVE",
"197 198 CURVE SMOOTH",
"197 225 OFFCURVE",
"208 243 OFFCURVE",
"220 246 CURVE SMOOTH",
"221 246 OFFCURVE",
"222 246 OFFCURVE",
"223 246 CURVE",
"223 247 LINE",
"219 247 OFFCURVE",
"215 247 OFFCURVE",
"211 247 CURVE SMOOTH",
"151 244 OFFCURVE",
"89 221 OFFCURVE",
"89 167 CURVE SMOOTH",
"89 100 OFFCURVE",
"191 76 OFFCURVE",
"251 91 CURVE"
);
}
);
width = 873;
},
{
anchors = (
{
name = bottom;
position = "{427, 0}";
},
{
name = ogonek;
position = "{758, 10}";
},
{
name = top;
position = "{427, 620}";
}
);
layerId = "F6D8640C-383C-48A8-B63C-DDE9F10207CE";
name = Regular;
paths = (
{
closed = 1;
nodes = (
"735 -308 OFFCURVE",
"779 -300 OFFCURVE",
"834 -285 CURVE",
"834 -89 LINE",
"804 -101 OFFCURVE",
"781 -105 OFFCURVE",
"751 -105 CURVE SMOOTH",
"709 -105 OFFCURVE",
"685 -92 OFFCURVE",
"685 -70 CURVE SMOOTH",
"685 -43 OFFCURVE",
"715 -5 OFFCURVE",
"834 0 CURVE",
"834 129 OFFCURVE",
"834 259 OFFCURVE",
"834 388 CURVE SMOOTH",
"834 654 OFFCURVE",
"356 716 OFFCURVE",
"69 584 CURVE",
"69 345 LINE",
"129 383 OFFCURVE",
"214 404 OFFCURVE",
"293 404 CURVE SMOOTH",
"395 404 OFFCURVE",
"484 368 OFFCURVE",
"484 285 CURVE SMOOTH",
"484 282 OFFCURVE",
"484 279 OFFCURVE",
"484 276 CURVE SMOOTH",
"445 330 OFFCURVE",
"354 361 OFFCURVE",
"262 361 CURVE SMOOTH",
"83 361 OFFCURVE",
"3 264 OFFCURVE",
"3 167 CURVE SMOOTH",
"3 -12 OFFCURVE",
"235 -74 OFFCURVE",
"400 7 CURVE",
"428 72 OFFCURVE",
"457 138 OFFCURVE",
"485 203 CURVE",
"469 164 OFFCURVE",
"433 160 OFFCURVE",
"409 160 CURVE SMOOTH",
"359 160 OFFCURVE",
"332 185 OFFCURVE",
"332 210 CURVE SMOOTH",
"332 235 OFFCURVE",
"358 259 OFFCURVE",
"409 259 CURVE SMOOTH",
"442 259 OFFCURVE",
"484 246 OFFCURVE",
"484 210 CURVE SMOOTH",
"484 140 OFFCURVE",
"484 70 OFFCURVE",
"484 0 CURVE",
"439 -37 OFFCURVE",
"416 -85 OFFCURVE",
"416 -140 CURVE SMOOTH",
"416 -247 OFFCURVE",
"501 -308 OFFCURVE",
"672 -308 CURVE SMOOTH"
);
}
);
width = 853;
},
{
anchors = (
{
name = bottom;
position = "{427, 0}";
},
{
name = ogonek;
position = "{758, 10}";
},
{
name = top;
position = "{427, 620}";
}
);
associatedMasterId = "F6D8640C-383C-48A8-B63C-DDE9F10207CE";
background = {
paths = (
{
closed = 1;
nodes = (
"715 0 OFFCURVE",
"687 -43 OFFCURVE",
"687 -70 CURVE SMOOTH",
"687 -92 OFFCURVE",
"707 -105 OFFCURVE",
"741 -105 CURVE SMOOTH",
"769 -105 OFFCURVE",
"791 -101 OFFCURVE",
"821 -89 CURVE",
"821 -285 LINE",
"766 -300 OFFCURVE",
"724 -308 OFFCURVE",
"662 -308 CURVE SMOOTH",
"499 -308 OFFCURVE",
"418 -247 OFFCURVE",
"418 -140 CURVE SMOOTH",
"418 -85 OFFCURVE",
"441 -37 OFFCURVE",
"486 0 CURVE",
"834 0 LINE"
);
}
);
};
layerId = "37355091-C7F5-4F2F-A8FB-5D52A8CD3875";
name = "06 May 21, 23:00";
paths = (
{
closed = 1;
nodes = (
"723 -318 OFFCURVE",
"765 -310 OFFCURVE",
"820 -295 CURVE",
"820 -99 LINE",
"790 -111 OFFCURVE",
"765 -115 OFFCURVE",
"737 -115 CURVE SMOOTH",
"703 -115 OFFCURVE",
"686 -105 OFFCURVE",
"686 -83 CURVE SMOOTH",
"686 -53 OFFCURVE",
"726 -20 OFFCURVE",
"834 0 CURVE",
"834 129 OFFCURVE",
"834 259 OFFCURVE",
"834 388 CURVE SMOOTH",
"834 654 OFFCURVE",
"356 716 OFFCURVE",
"69 584 CURVE",
"69 345 LINE",
"129 383 OFFCURVE",
"214 404 OFFCURVE",
"293 404 CURVE SMOOTH",
"395 404 OFFCURVE",
"484 368 OFFCURVE",
"484 285 CURVE SMOOTH",
"484 282 OFFCURVE",
"484 279 OFFCURVE",
"484 276 CURVE SMOOTH",
"445 330 OFFCURVE",
"354 361 OFFCURVE",
"262 361 CURVE SMOOTH",
"83 361 OFFCURVE",
"3 264 OFFCURVE",
"3 167 CURVE SMOOTH",
"3 -12 OFFCURVE",
"235 -74 OFFCURVE",
"400 7 CURVE",
"428 72 OFFCURVE",
"457 138 OFFCURVE",
"485 203 CURVE",
"469 164 OFFCURVE",
"433 160 OFFCURVE",
"409 160 CURVE SMOOTH",
"359 160 OFFCURVE",
"332 185 OFFCURVE",
"332 210 CURVE SMOOTH",
"332 235 OFFCURVE",
"358 259 OFFCURVE",
"409 259 CURVE SMOOTH",
"442 259 OFFCURVE",
"484 246 OFFCURVE",
"484 210 CURVE SMOOTH",
"484 140 OFFCURVE",
"484 70 OFFCURVE",
"484 0 CURVE",
"440 -48 OFFCURVE",
"417 -105 OFFCURVE",
"417 -154 CURVE SMOOTH",
"417 -255 OFFCURVE",
"498 -318 OFFCURVE",
"661 -318 CURVE SMOOTH"
);
}
);
width = 853;
}
);
leftKerningGroup = a;
leftMetricsKey = a;
rightKerningGroup = n;
rightMetricsKey = a;
unicode = 0105;
},
{
color = 6;
glyphname = ae;
lastChange = "2021-04-27 11:22:41 +0000";
layers = (
{
anchors = (
{
name = bottom;
position = "{682, 0}";
},
{
name = top;
position = "{682, 620}";
}
);
background = {
components = (
{
name = e;
transform = "{1, 0, 0, 1, 468, 0}";
},
{
name = a;
transform = "{1, 0, 0, 1, -4, 0}";
}
);
paths = (
{
closed = 1;
nodes = (
"483 275 LINE",
"449 200 OFFCURVE",
"326 231 OFFCURVE",
"326 266 CURVE SMOOTH",
"326 294 OFFCURVE",
"351 307 OFFCURVE",
"426 307 CURVE SMOOTH",
"512 307 LINE",
"493 336 LINE",
"274 336 LINE SMOOTH",
"123 336 OFFCURVE",
"3 283 OFFCURVE",
"3 158 CURVE SMOOTH",
"3 -35 OFFCURVE",
"364 -61 OFFCURVE",
"483 23 CURVE"
);
}
);
};
layerId = "F6D8640C-383C-48A8-B63C-DDE9F10207CE";
paths = (
{
closed = 1;
nodes = (
"1123 -30 OFFCURVE",
"1316 69 OFFCURVE",
"1351 196 CURVE",
"1042 297 LINE",
"1040 258 OFFCURVE",
"995 233 OFFCURVE",
"930 233 CURVE SMOOTH",
"862 233 OFFCURVE",
"815 260 OFFCURVE",
"814 296 CURVE SMOOTH",
"814 297 OFFCURVE",
"814 297 OFFCURVE",
"815 297 CURVE SMOOTH",
"1360 297 LINE",
"1360 535 OFFCURVE",
"1179 650 OFFCURVE",
"928 650 CURVE SMOOTH",
"829 650 OFFCURVE",
"732 630 OFFCURVE",
"653 581 CURVE",
"506 674 OFFCURVE",
"255 671 OFFCURVE",
"65 584 CURVE",
"65 331 LINE",
"132 377 OFFCURVE",
"221 401 OFFCURVE",
"299 401 CURVE SMOOTH",
"398 401 OFFCURVE",
"466 363 OFFCURVE",
"478 310 CURVE",
"478 83 OFFCURVE",
"678 -30 OFFCURVE",
"928 -30 CURVE SMOOTH"
);
},
{
closed = 1;
nodes = (
"483 275 LINE",
"449 200 OFFCURVE",
"326 214 OFFCURVE",
"326 266 CURVE SMOOTH",
"326 294 OFFCURVE",
"351 307 OFFCURVE",
"413 307 CURVE SMOOTH",
"512 307 LINE",
"493 336 LINE",
"274 336 LINE SMOOTH",
"123 336 OFFCURVE",
"3 283 OFFCURVE",
"3 158 CURVE SMOOTH",
"3 -35 OFFCURVE",
"364 -61 OFFCURVE",
"483 23 CURVE"
);
},
{
closed = 1;
nodes = (
"815 326 OFFCURVE",
"815 326 OFFCURVE",
"815 328 CURVE SMOOTH",
"815 367 OFFCURVE",
"868 390 OFFCURVE",
"928 390 CURVE SMOOTH",
"987 390 OFFCURVE",
"1040 367 OFFCURVE",
"1040 328 CURVE SMOOTH",
"1040 327 OFFCURVE",
"1040 326 OFFCURVE",
"1039 326 CURVE SMOOTH",
"816 326 LINE SMOOTH"
);
}
);
width = 1368;
},
{
anchors = (
{
name = bottom;
position = "{646, 0}";
},
{
name = top;
position = "{646, 620}";
}
);
layerId = "96858A69-C8A6-410B-90BB-94EA0DA45935";
paths = (
{
closed = 1;
nodes = (
"989 85 OFFCURVE",
"1058 128 OFFCURVE",
"1085 146 CURVE",
"1080 151 LINE",
"1042 126 OFFCURVE",
"982 93 OFFCURVE",
"894 93 CURVE SMOOTH",
"795 93 OFFCURVE",
"716 155 OFFCURVE",
"713 232 CURVE SMOOTH",
"712 255 OFFCURVE",
"712 311 OFFCURVE",
"810 311 CURVE SMOOTH",
"1210 311 LINE",
"1206 388 OFFCURVE",
"1130 535 OFFCURVE",
"876 535 CURVE SMOOTH",
"786 535 OFFCURVE",
"694 523 OFFCURVE",
"629 473 CURVE",
"591 537 OFFCURVE",
"450 551 OFFCURVE",
"338 511 CURVE",
"338 510 LINE",
"406 524 OFFCURVE",
"572 485 OFFCURVE",
"572 345 CURVE SMOOTH",
"572 264 OFFCURVE",
"512 206 OFFCURVE",
"550 153 CURVE SMOOTH",
"584 105 OFFCURVE",
"714 85 OFFCURVE",
"890 85 CURVE SMOOTH"
);
},
{
closed = 1;
nodes = (
"251 98 LINE",
"241 96 OFFCURVE",
"210 121 OFFCURVE",
"210 204 CURVE SMOOTH",
"210 263 OFFCURVE",
"273 300 OFFCURVE",
"336 301 CURVE",
"338 301 LINE",
"338 302 LINE",
"329 302 LINE",
"214 300 OFFCURVE",
"89 264 OFFCURVE",
"89 173 CURVE SMOOTH",
"89 106 OFFCURVE",
"191 82 OFFCURVE",
"251 97 CURVE"
);
},
{
closed = 1;
nodes = (
"797 311 OFFCURVE",
"690 319 OFFCURVE",
"685 398 CURVE SMOOTH",
"679 485 OFFCURVE",
"748 528 OFFCURVE",
"860 528 CURVE SMOOTH",
"1054 528 OFFCURVE",
"1067 410 OFFCURVE",
"1068 378 CURVE SMOOTH",
"1069 344 OFFCURVE",
"1048 311 OFFCURVE",
"1034 311 CURVE SMOOTH",
"811 311 LINE SMOOTH"
);
}
);
width = 1350;
}
);
leftKerningGroup = a;
leftMetricsKey = a;
rightKerningGroup = e;
unicode = 00E6;
},
{
color = 6;
glyphname = b;
lastChange = "2021-04-02 09:45:05 +0000";
layers = (
{
anchors = (
{
name = bottom;
position = "{487, 0}";
},
{
name = top;
position = "{487, 750}";
}
);
layerId = "96858A69-C8A6-410B-90BB-94EA0DA45935";
paths = (
{
closed = 1;
nodes = (
"226 476 OFFCURVE",
"88 206 OFFCURVE",
"103 115 CURVE",
"213 115 LINE",
"211 125 LINE SMOOTH",
"199 184 OFFCURVE",
"248 209 OFFCURVE",
"307 209 CURVE SMOOTH",
"399 209 OFFCURVE",
"487 100 OFFCURVE",
"608 100 CURVE SMOOTH",
"756 100 OFFCURVE",
"828 200 OFFCURVE",
"828 298 CURVE SMOOTH",
"828 387 OFFCURVE",
"768 474 OFFCURVE",
"650 482 CURVE",
"650 481 LINE",
"653 481 OFFCURVE",
"656 480 OFFCURVE",
"660 478 CURVE SMOOTH",
"684 465 OFFCURVE",
"725 423 OFFCURVE",
"727 352 CURVE SMOOTH",
"730 235 OFFCURVE",
"658 167 OFFCURVE",
"539 167 CURVE SMOOTH",
"345 167 OFFCURVE",
"211 280 OFFCURVE",
"211 427 CURVE SMOOTH",
"211 487 OFFCURVE",
"233 553 OFFCURVE",
"283 645 CURVE",
"143 645 LINE"
);
}
);
width = 952;
},
{
anchors = (
{
name = bottom;
position = "{477, 0}";
},
{
name = top;
position = "{477, 750}";
}
);
layerId = "F6D8640C-383C-48A8-B63C-DDE9F10207CE";
paths = (
{
closed = 1;
nodes = (
"20 500 OFFCURVE",
"20 250 OFFCURVE",
"20 0 CURVE",
"360 0 LINE",
"360 66 LINE SMOOTH",
"360 67 OFFCURVE",
"361 68 OFFCURVE",
"362 67 CURVE",
"424 2 OFFCURVE",
"512 -15 OFFCURVE",
"590 -15 CURVE SMOOTH",
"770 -15 OFFCURVE",
"944 113 OFFCURVE",
"944 311 CURVE SMOOTH",
"944 558 OFFCURVE",
"697 680 OFFCURVE",
"440 620 CURVE",
"361 321 LINE",
"375 366 OFFCURVE",
"423 385 OFFCURVE",
"479 385 CURVE SMOOTH",
"557 385 OFFCURVE",
"594 351 OFFCURVE",
"594 309 CURVE SMOOTH",
"594 272 OFFCURVE",
"557 235 OFFCURVE",
"479 235 CURVE SMOOTH",
"419 235 OFFCURVE",
"360 259 OFFCURVE",
"360 309 CURVE SMOOTH",
"360 416 OFFCURVE",
"360 643 OFFCURVE",
"360 750 CURVE",
"20 750 LINE"
);
}
);
width = 953;
}
);
leftKerningGroup = h;
leftMetricsKey = n;
rightKerningGroup = o;
unicode = 0062;
},
{
color = 6;
glyphname = c;
lastChange = "2021-04-02 09:45:05 +0000";
layers = (
{
anchors = (
{
name = bottom;
position = "{439, 0}";
},
{
name = top;
position = "{439, 620}";
}
);
layerId = "96858A69-C8A6-410B-90BB-94EA0DA45935";
paths = (
{
closed = 1;
nodes = (
"292 433 OFFCURVE",
"269 410 OFFCURVE",
"200 382 CURVE SMOOTH",
"5 302 OFFCURVE",
"194 111 OFFCURVE",
"431 111 CURVE SMOOTH",
"572 111 OFFCURVE",
"616 134 OFFCURVE",
"675 169 CURVE",
"675 169 OFFCURVE",
"673 172 OFFCURVE",
"673 172 CURVE",
"607 135 OFFCURVE",
"561 128 OFFCURVE",
"535 128 CURVE SMOOTH",
"428 128 OFFCURVE",
"279 192 OFFCURVE",
"279 345 CURVE SMOOTH",
"279 438 OFFCURVE",
"389 517 OFFCURVE",
"483 517 CURVE SMOOTH",
"562 517 OFFCURVE",
"628 495 OFFCURVE",
"670 442 CURVE",
"767 461 LINE",
"747 523 OFFCURVE",
"570 654 OFFCURVE",
"380 503 CURVE SMOOTH"
);
}
);
width = 895;
},
{
anchors = (
{
name = bottom;
position = "{455, 0}";
},
{
name = top;
position = "{455, 620}";
}
);
background = {
components = (
{
name = o;
}
);
};
layerId = "F6D8640C-383C-48A8-B63C-DDE9F10207CE";
paths = (
{
closed = 1;
nodes = (
"211 650 OFFCURVE",
"10 537 OFFCURVE",
"10 310 CURVE SMOOTH",
"10 83 OFFCURVE",
"210 -30 OFFCURVE",
"460 -30 CURVE SMOOTH",
"693 -30 OFFCURVE",
"873 72 OFFCURVE",
"897 267 CURVE",
"785 281 OFFCURVE",
"687 295 OFFCURVE",
"575 309 CURVE",
"575 255 OFFCURVE",
"516 235 OFFCURVE",
"460 235 CURVE SMOOTH",
"395 235 OFFCURVE",
"345 260 OFFCURVE",
"345 310 CURVE SMOOTH",
"345 360 OFFCURVE",
"395 385 OFFCURVE",
"460 385 CURVE SMOOTH",
"517 385 OFFCURVE",
"575 363 OFFCURVE",
"575 309 CURVE",
"896 366 LINE",
"865 555 OFFCURVE",
"689 650 OFFCURVE",
"460 650 CURVE SMOOTH"
);
}
);
width = 910;
}
);
leftKerningGroup = o;
rightKerningGroup = c;
unicode = 0063;
},
{
color = 6;
glyphname = d;
lastChange = "2021-04-02 09:45:05 +0000";
layers = (
{
anchors = (
{
name = bottom;
position = "{479, 0}";
},
{
name = center;
position = "{479, 310}";
},
{
name = top;
position = "{479, 750}";
},
{
name = topright;
position = "{934, 620}";
}
);
background = {
components = (
{
name = g;
transform = "{1, 0, 0, 1, 47, 10}";
}
);
};
layerId = "F6D8640C-383C-48A8-B63C-DDE9F10207CE";
paths = (
{
closed = 1;
nodes = (
"934 0 LINE",
"934 250 OFFCURVE",
"934 500 OFFCURVE",
"934 750 CURVE",
"594 750 LINE",
"594 697 OFFCURVE",
"594 630 OFFCURVE",
"594 577 CURVE SMOOTH",
"594 576 OFFCURVE",
"593 575 OFFCURVE",
"592 576 CURVE SMOOTH",
"550 620 OFFCURVE",
"463 635 OFFCURVE",
"386 635 CURVE SMOOTH",
"200 635 OFFCURVE",
"10 530 OFFCURVE",
"10 309 CURVE SMOOTH",
"10 62 OFFCURVE",
"256 -60 OFFCURVE",
"513 0 CURVE",
"593 309 LINE",
"579 264 OFFCURVE",
"531 245 OFFCURVE",
"475 245 CURVE SMOOTH",
"397 245 OFFCURVE",
"360 279 OFFCURVE",
"360 321 CURVE SMOOTH",
"360 358 OFFCURVE",
"397 395 OFFCURVE",
"475 395 CURVE SMOOTH",
"535 395 OFFCURVE",
"594 371 OFFCURVE",
"594 321 CURVE SMOOTH",
"594 214 OFFCURVE",
"594 107 OFFCURVE",
"594 0 CURVE"
);
}
);
width = 954;
},
{
anchors = (
{
name = bottom;
position = "{477, 0}";
},
{
name = center;
position = "{477, 310}";
},
{
name = top;
position = "{477, 750}";
},
{
name = topright;
position = "{942, 620}";
}
);
layerId = "96858A69-C8A6-410B-90BB-94EA0DA45935";
paths = (
{
closed = 1;
nodes = (
"858 115 LINE",
"764 283 OFFCURVE",
"814 524 OFFCURVE",
"804 645 CURVE",
"728 645 LINE",
"732 599 OFFCURVE",
"741 537 OFFCURVE",
"741 496 CURVE SMOOTH",
"741 451 OFFCURVE",
"730 418 OFFCURVE",
"688 418 CURVE SMOOTH",
"599 418 OFFCURVE",
"572 519 OFFCURVE",
"503 556 CURVE SMOOTH",
"412 605 OFFCURVE",
"232 396 OFFCURVE",
"137 285 CURVE SMOOTH",
"44 176 OFFCURVE",
"201 82 OFFCURVE",
"368 132 CURVE",
"368 133 LINE",
"367 133 OFFCURVE",
"365 133 OFFCURVE",
"364 133 CURVE SMOOTH",
"301 140 OFFCURVE",
"223 212 OFFCURVE",
"221 302 CURVE SMOOTH",
"218 423 OFFCURVE",
"314 475 OFFCURVE",
"443 475 CURVE SMOOTH",
"578 475 OFFCURVE",
"746 401 OFFCURVE",
"746 268 CURVE SMOOTH",
"746 209 OFFCURVE",
"726 174 OFFCURVE",
"732 115 CURVE"
);
}
);
width = 972;
}
);
leftKerningGroup = o;
leftMetricsKey = o;
rightKerningGroup = l;
rightMetricsKey = i;
unicode = 0064;
},
{
color = 6;
glyphname = eth;
lastChange = "2021-04-02 09:45:05 +0000";
layers = (
{
layerId = "96858A69-C8A6-410B-90BB-94EA0DA45935";
paths = (
{
closed = 1;
nodes = (
"643 115 OFFCURVE",
"747 218 OFFCURVE",
"747 362 CURVE SMOOTH",
"747 520 OFFCURVE",
"573 676 OFFCURVE",
"417 656 CURVE",
"301 561 LINE",
"616 703 OFFCURVE",
"643 471 OFFCURVE",
"643 362 CURVE SMOOTH",
"643 238 OFFCURVE",
"580 121 OFFCURVE",
"442 121 CURVE SMOOTH",
"310 121 OFFCURVE",
"246 180 OFFCURVE",
"246 277 CURVE SMOOTH",
"246 344 OFFCURVE",
"284 407 OFFCURVE",
"363 407 CURVE SMOOTH",
"374 407 OFFCURVE",
"378 407 OFFCURVE",
"387 406 CURVE",
"387 407 LINE",
"287 420 OFFCURVE",
"132 382 OFFCURVE",
"132 277 CURVE SMOOTH",
"132 157 OFFCURVE",
"301 115 OFFCURVE",
"442 115 CURVE SMOOTH"
);
},
{
closed = 1;
nodes = (
"677 661 LINE",
"672 665 LINE",
"494 533 LINE",
"500 527 LINE"
);
}
);
width = 900;
},
{
background = {
anchors = (
{
name = bottom;
position = "{444, 0}";
},
{
name = center;
position = "{444, 310}";
},
{
name = ogonek;
position = "{812, 10}";
},
{
name = top;
position = "{444, 620}";
},
{
name = topright;
position = "{884, 620}";
}
);
paths = (
{
closed = 1;
nodes = (
"-6 83 OFFCURVE",
"194 -30 OFFCURVE",
"444 -30 CURVE SMOOTH",
"694 -30 OFFCURVE",
"894 87 OFFCURVE",
"894 310 CURVE SMOOTH",
"894 537 OFFCURVE",
"694 650 OFFCURVE",
"444 650 CURVE SMOOTH",
"195 650 OFFCURVE",
"-6 537 OFFCURVE",
"-6 310 CURVE SMOOTH"
);
},
{
closed = 1;
nodes = (
"549 262 OFFCURVE",
"497 238 OFFCURVE",
"444 238 CURVE SMOOTH",
"392 238 OFFCURVE",
"339 262 OFFCURVE",
"339 310 CURVE SMOOTH",
"339 358 OFFCURVE",
"392 382 OFFCURVE",
"444 382 CURVE SMOOTH",
"497 382 OFFCURVE",
"549 358 OFFCURVE",
"549 310 CURVE SMOOTH"
);
}
);
};
layerId = "F6D8640C-383C-48A8-B63C-DDE9F10207CE";
paths = (
{
closed = 1;
nodes = (
"694 -30 OFFCURVE",
"894 87 OFFCURVE",
"894 310 CURVE SMOOTH",
"894 579 OFFCURVE",
"709 742 OFFCURVE",
"401 768 CURVE",
"204 535 LINE",
"410 559 OFFCURVE",
"588 482 OFFCURVE",
"588 332 CURVE SMOOTH",
"588 229 OFFCURVE",
"535 205 OFFCURVE",
"470 205 CURVE SMOOTH",
"417 205 OFFCURVE",
"364 228 OFFCURVE",
"364 274 CURVE SMOOTH",
"364 322 OFFCURVE",
"417 346 OFFCURVE",
"470 346 CURVE SMOOTH",
"524 346 OFFCURVE",
"556 330 OFFCURVE",
"584 295 CURVE",
"471 442 LINE",
"311 527 OFFCURVE",
"14 482 OFFCURVE",
"14 248 CURVE SMOOTH",
"14 77 OFFCURVE",
"194 -30 OFFCURVE",
"444 -30 CURVE SMOOTH"
);
},
{
closed = 1;
nodes = (
"921 657 LINE",
"746 796 LINE",
"589 662 LINE",
"738 511 LINE"
);
}
);
width = 911;
}
);
leftKerningGroup = o;
rightKerningGroup = o;
unicode = 00F0;
},
{
color = 3;
glyphname = dcaron;
lastChange = "2021-04-23 13:26:56 +0000";
layers = (
{
components = (
{
name = d;
}
);
layerId = "F6D8640C-383C-48A8-B63C-DDE9F10207CE";
paths = (
{
closed = 1;
nodes = (
"1238 750 LINE",
"994 750 LINE",
"967 485 LINE",
"1160 485 LINE"
);
}
);
width = 1244;
},
{
components = (
{
name = d;
}
);
layerId = "96858A69-C8A6-410B-90BB-94EA0DA45935";
paths = (
{
closed = 1;
nodes = (
"1084 636 LINE",
"1018 636 LINE",
"1004 535 LINE",
"1061 535 LINE"
);
}
);
width = 1209;
}
);
leftKerningGroup = o;
leftMetricsKey = d;
rightKerningGroup = lcaron;
unicode = 010F;
},
{
color = 3;
glyphname = dcroat;
lastChange = "2021-04-28 08:43:48 +0000";
layers = (
{
anchors = (
{
name = bottom;
position = "{480, 0}";
},
{
name = center;
position = "{480, 310}";
},
{
name = top;
position = "{480, 750}";
},
{
name = topright;
position = "{935, 620}";
}
);
background = {
components = (
{
name = d;
}
);
};
components = (
{
name = d;
}
);
layerId = "F6D8640C-383C-48A8-B63C-DDE9F10207CE";
paths = (
{
closed = 1;
nodes = (
"987 639 LINE",
"987 718 LINE",
"518 718 LINE",
"518 639 LINE"
);
}
);
width = 1001;
},
{
anchors = (
{
name = bottom;
position = "{485, 0}";
},
{
name = center;
position = "{485, 310}";
},
{
name = top;
position = "{485, 750}";
},
{
name = topright;
position = "{950, 620}";
}
);
components = (
{
name = d;
}
);
layerId = "96858A69-C8A6-410B-90BB-94EA0DA45935";
paths = (
{
closed = 1;
nodes = (
"878 553 LINE",
"878 563 LINE",
"620 563 LINE",
"620 553 LINE"
);
}
);
width = 990;
},
{
anchors = (
{
name = bottom;
position = "{480, 0}";
},
{
name = center;
position = "{480, 310}";
},
{
name = top;
position = "{480, 750}";
},
{
name = topright;
position = "{935, 620}";
}
);
associatedMasterId = "F6D8640C-383C-48A8-B63C-DDE9F10207CE";
background = {
components = (
{
name = d;
}
);
};
components = (
{
name = d;
}
);
layerId = "BC3EC2D5-BA46-42CB-B23D-6F0030B48BF2";
name = "28 Apr 21, 10:43";
paths = (
{
closed = 1;
nodes = (
"987 639 LINE",
"987 728 LINE",
"518 728 LINE",
"518 639 LINE"
);
}
);
width = 1001;
}
);
leftKerningGroup = o;
rightKerningGroup = l;
unicode = 0111;
},
{
color = 6;
glyphname = e;
lastChange = "2021-04-27 11:24:45 +0000";
layers = (
{
anchors = (
{
name = bottom;
position = "{450, 0}";
},
{
name = ogonek;
position = "{790, 10}";
},
{
name = top;
position = "{450, 620}";
}
);
background = {
components = (
{
name = c;
}
);
};
layerId = "F6D8640C-383C-48A8-B63C-DDE9F10207CE";
paths = (
{
closed = 1;
nodes = (
"388 226 OFFCURVE",
"347 255 OFFCURVE",
"346 296 CURVE SMOOTH",
"346 297 OFFCURVE",
"346 297 OFFCURVE",
"347 297 CURVE SMOOTH",
"892 297 LINE",
"892 540 OFFCURVE",
"714 650 OFFCURVE",
"460 650 CURVE SMOOTH",
"211 650 OFFCURVE",
"10 537 OFFCURVE",
"10 310 CURVE SMOOTH",
"10 83 OFFCURVE",
"210 -30 OFFCURVE",
"460 -30 CURVE SMOOTH",
"655 -30 OFFCURVE",
"848 69 OFFCURVE",
"883 196 CURVE",
"574 297 LINE",
"572 253 OFFCURVE",
"533 226 OFFCURVE",
"462 226 CURVE SMOOTH"
);
},
{
closed = 1;
nodes = (
"525 397 OFFCURVE",
"572 372 OFFCURVE",
"572 328 CURVE SMOOTH",
"572 327 OFFCURVE",
"572 326 OFFCURVE",
"571 326 CURVE SMOOTH",
"348 326 LINE SMOOTH",
"347 326 OFFCURVE",
"347 326 OFFCURVE",
"347 328 CURVE SMOOTH",
"347 372 OFFCURVE",
"394 397 OFFCURVE",
"460 397 CURVE SMOOTH"
);
}
);
width = 900;
},
{
anchors = (
{
name = bottom;
position = "{442, 0}";
},
{
name = ogonek;
position = "{586, 115}";
},
{
name = top;
position = "{442, 620}";
}
);
background = {
paths = (
{
closed = 1;
nodes = (
"334 120 OFFCURVE",
"238 187 OFFCURVE",
"238 251 CURVE",
"238 273 OFFCURVE",
"257 297 OFFCURVE",
"291 297 CURVE",
"265 297 OFFCURVE",
"238 313 OFFCURVE",
"238 361 CURVE",
"242 454 OFFCURVE",
"343 501 OFFCURVE",
"453 501 CURVE SMOOTH",
"599 501 OFFCURVE",
"679 395 OFFCURVE",
"679 297 CURVE",
"648 297 LINE",
"148 297 LINE",
"148 297 LINE",
"775 297 LINE",
"775 462 OFFCURVE",
"617 535 OFFCURVE",
"453 535 CURVE SMOOTH",
"240 535 OFFCURVE",
"118 449 OFFCURVE",
"118 310 CURVE SMOOTH",
"118 170 OFFCURVE",
"240 85 OFFCURVE",
"453 85 CURVE SMOOTH",
"533 85 OFFCURVE",
"614 107 OFFCURVE",
"674 139 CURVE",
"597 163 LINE",
"559 135 OFFCURVE",
"510 120 OFFCURVE",
"455 120 CURVE SMOOTH"
);
}
);
};
layerId = "96858A69-C8A6-410B-90BB-94EA0DA45935";
paths = (
{
closed = 1;
nodes = (
"387 90 OFFCURVE",
"282 148 OFFCURVE",
"278 232 CURVE SMOOTH",
"277 255 OFFCURVE",
"277 311 OFFCURVE",
"375 311 CURVE SMOOTH",
"775 311 LINE",
"771 388 OFFCURVE",
"695 535 OFFCURVE",
"441 535 CURVE SMOOTH",
"263 535 OFFCURVE",
"71 488 OFFCURVE",
"115 362 CURVE SMOOTH",
"159 238 OFFCURVE",
"275 85 OFFCURVE",
"455 85 CURVE SMOOTH",
"554 85 OFFCURVE",
"623 128 OFFCURVE",
"650 146 CURVE",
"648 150 LINE",
"610 125 OFFCURVE",
"545 90 OFFCURVE",
"457 90 CURVE SMOOTH"
);
},
{
closed = 1;
nodes = (
"619 530 OFFCURVE",
"632 410 OFFCURVE",
"633 378 CURVE SMOOTH",
"635 344 OFFCURVE",
"613 311 OFFCURVE",
"599 311 CURVE SMOOTH",
"376 311 LINE SMOOTH",
"362 311 OFFCURVE",
"255 319 OFFCURVE",
"250 398 CURVE SMOOTH",
"246 485 OFFCURVE",
"313 530 OFFCURVE",
"425 530 CURVE SMOOTH"
);
}
);
width = 885;
}
);
leftKerningGroup = o;
leftMetricsKey = o;
rightKerningGroup = e;
unicode = 0065;
},
{
color = 6;
glyphname = eogonek;
lastChange = "2021-05-06 21:51:44 +0000";
layers = (
{
anchors = (
{
name = bottom;
position = "{439, 0}";
},
{
name = ogonek;
position = "{586, 115}";
},
{
name = top;
position = "{439, 620}";
}
);
layerId = "96858A69-C8A6-410B-90BB-94EA0DA45935";
paths = (
{
closed = 1;
nodes = (
"575 -105 OFFCURVE",
"621 -77 OFFCURVE",
"649 -34 CURVE",
"649 -33 LINE",
"644 -34 OFFCURVE",
"639 -34 OFFCURVE",
"634 -34 CURVE SMOOTH",
"589 -34 OFFCURVE",
"539 -4 OFFCURVE",
"539 25 CURVE SMOOTH",
"539 52 OFFCURVE",
"565 75 OFFCURVE",
"591 98 CURVE SMOOTH",
"607 112 OFFCURVE",
"625 124 OFFCURVE",
"650 146 CURVE",
"645 151 LINE",
"607 126 OFFCURVE",
"547 93 OFFCURVE",
"459 93 CURVE SMOOTH",
"389 93 OFFCURVE",
"282 148 OFFCURVE",
"278 232 CURVE SMOOTH",
"277 255 OFFCURVE",
"277 311 OFFCURVE",
"375 311 CURVE SMOOTH",
"775 311 LINE",
"771 388 OFFCURVE",
"695 535 OFFCURVE",
"441 535 CURVE SMOOTH",
"263 535 OFFCURVE",
"71 488 OFFCURVE",
"115 362 CURVE SMOOTH",
"159 238 OFFCURVE",
"275 85 OFFCURVE",
"455 85 CURVE SMOOTH",
"481 85 OFFCURVE",
"505 88 OFFCURVE",
"527 93 CURVE",
"527 93 LINE",
"631 93 OFFCURVE",
"435 52 OFFCURVE",
"435 -45 CURVE SMOOTH",
"435 -77 OFFCURVE",
"464 -105 OFFCURVE",
"520 -105 CURVE SMOOTH"
);
},
{
closed = 1;
nodes = (
"362 311 OFFCURVE",
"255 319 OFFCURVE",
"250 398 CURVE SMOOTH",
"246 485 OFFCURVE",
"313 528 OFFCURVE",
"425 528 CURVE SMOOTH",
"619 528 OFFCURVE",
"632 410 OFFCURVE",
"633 378 CURVE SMOOTH",
"635 344 OFFCURVE",
"613 311 OFFCURVE",
"599 311 CURVE SMOOTH",
"376 311 LINE SMOOTH"
);
}
);
width = 885;
},
{
anchors = (
{
name = bottom;
position = "{450, 0}";
},
{
name = ogonek;
position = "{790, 10}";
},
{
name = top;
position = "{450, 620}";
}
);
associatedMasterId = "F6D8640C-383C-48A8-B63C-DDE9F10207CE";
guideLines = (
{
angle = 90;
position = "{866, 15}";
}
);
layerId = "CBD21B6C-9CAA-49FF-BB27-9EB826E06F69";
name = "Mar 18 20, 13:55";
paths = (
{
closed = 1;
nodes = (
"755 -308 OFFCURVE",
"797 -300 OFFCURVE",
"852 -285 CURVE",
"852 -89 LINE",
"822 -101 OFFCURVE",
"797 -105 OFFCURVE",
"769 -105 CURVE SMOOTH",
"735 -105 OFFCURVE",
"717 -86 OFFCURVE",
"720 -55 CURVE SMOOTH",
"723 -18 OFFCURVE",
"745 19 OFFCURVE",
"784 59 CURVE SMOOTH",
"830 106 OFFCURVE",
"874 153 OFFCURVE",
"883 196 CURVE",
"574 297 LINE",
"572 258 OFFCURVE",
"527 233 OFFCURVE",
"462 233 CURVE SMOOTH",
"394 233 OFFCURVE",
"347 260 OFFCURVE",
"346 296 CURVE SMOOTH",
"346 297 OFFCURVE",
"346 297 OFFCURVE",
"347 297 CURVE SMOOTH",
"892 297 LINE",
"892 540 OFFCURVE",
"714 650 OFFCURVE",
"460 650 CURVE SMOOTH",
"211 650 OFFCURVE",
"10 537 OFFCURVE",
"10 310 CURVE SMOOTH",
"10 83 OFFCURVE",
"210 -30 OFFCURVE",
"460 -30 CURVE SMOOTH",
"486 -30 OFFCURVE",
"511 -27 OFFCURVE",
"527 -23 CURVE",
"540 10 LINE",
"487 -22 OFFCURVE",
"449 -95 OFFCURVE",
"449 -144 CURVE SMOOTH",
"449 -245 OFFCURVE",
"530 -308 OFFCURVE",
"693 -308 CURVE SMOOTH"
);
},
{
closed = 1;
nodes = (
"347 326 OFFCURVE",
"347 326 OFFCURVE",
"347 328 CURVE SMOOTH",
"347 367 OFFCURVE",
"400 390 OFFCURVE",
"460 390 CURVE SMOOTH",
"519 390 OFFCURVE",
"572 367 OFFCURVE",
"572 328 CURVE SMOOTH",
"572 327 OFFCURVE",
"572 326 OFFCURVE",
"571 326 CURVE SMOOTH",
"348 326 LINE SMOOTH"
);
}
);
width = 900;
},
{
anchors = (
{
name = bottom;
position = "{450, 0}";
},
{
name = ogonek;
position = "{790, 10}";
},
{
name = top;
position = "{450, 620}";
}
);
background = {
components = (
{
name = e;
}
);
};
guideLines = (
{
angle = 90;
position = "{866, 15}";
}
);
layerId = "F6D8640C-383C-48A8-B63C-DDE9F10207CE";
name = Regular;
paths = (
{
closed = 1;
nodes = (
"764 -308 OFFCURVE",
"805 -300 OFFCURVE",
"860 -285 CURVE",
"860 -89 LINE",
"833 -101 OFFCURVE",
"814 -105 OFFCURVE",
"783 -105 CURVE SMOOTH",
"745 -105 OFFCURVE",
"720 -89 OFFCURVE",
"720 -57 CURVE SMOOTH",
"720 -27 OFFCURVE",
"740 12 OFFCURVE",
"805 79 CURVE SMOOTH",
"847 123 OFFCURVE",
"872 157 OFFCURVE",
"883 196 CURVE",
"574 297 LINE",
"572 253 OFFCURVE",
"533 226 OFFCURVE",
"462 226 CURVE SMOOTH",
"388 226 OFFCURVE",
"347 255 OFFCURVE",
"346 296 CURVE SMOOTH",
"346 297 OFFCURVE",
"346 297 OFFCURVE",
"347 297 CURVE SMOOTH",
"892 297 LINE",
"892 540 OFFCURVE",
"714 650 OFFCURVE",
"460 650 CURVE SMOOTH",
"211 650 OFFCURVE",
"10 537 OFFCURVE",
"10 310 CURVE SMOOTH",
"10 83 OFFCURVE",
"210 -30 OFFCURVE",
"460 -30 CURVE SMOOTH",
"481 -30 OFFCURVE",
"503 -29 OFFCURVE",
"526 -27 CURVE",
"526 0 LINE",
"481 -37 OFFCURVE",
"458 -85 OFFCURVE",
"458 -140 CURVE SMOOTH",
"458 -247 OFFCURVE",
"539 -308 OFFCURVE",
"702 -308 CURVE SMOOTH"
);
},
{
closed = 1;
nodes = (
"347 326 OFFCURVE",
"347 326 OFFCURVE",
"347 328 CURVE SMOOTH",
"347 372 OFFCURVE",
"394 397 OFFCURVE",
"460 397 CURVE SMOOTH",
"525 397 OFFCURVE",
"572 372 OFFCURVE",
"572 328 CURVE SMOOTH",
"572 327 OFFCURVE",
"572 326 OFFCURVE",
"571 326 CURVE SMOOTH",
"348 326 LINE SMOOTH"
);
}
);
width = 900;
},
{
anchors = (
{
name = bottom;
position = "{450, 0}";
},
{
name = ogonek;
position = "{790, 10}";
},
{
name = top;
position = "{450, 620}";
}
);
associatedMasterId = "F6D8640C-383C-48A8-B63C-DDE9F10207CE";
guideLines = (
{
angle = 90;
position = "{866, 15}";
}
);
layerId = "F78CEFFC-8541-45B2-81A8-67016B8A2930";
name = "06 May 21, 23:11";
paths = (
{
closed = 1;
nodes = (
"755 -308 OFFCURVE",
"797 -300 OFFCURVE",
"852 -285 CURVE",
"852 -89 LINE",
"822 -101 OFFCURVE",
"797 -105 OFFCURVE",
"769 -105 CURVE SMOOTH",
"735 -105 OFFCURVE",
"720 -86 OFFCURVE",
"720 -55 CURVE SMOOTH",
"720 -18 OFFCURVE",
"745 19 OFFCURVE",
"784 59 CURVE SMOOTH",
"835 112 OFFCURVE",
"873 153 OFFCURVE",
"883 196 CURVE",
"574 297 LINE",
"572 253 OFFCURVE",
"533 226 OFFCURVE",
"462 226 CURVE SMOOTH",
"388 226 OFFCURVE",
"347 255 OFFCURVE",
"346 296 CURVE SMOOTH",
"346 297 OFFCURVE",
"346 297 OFFCURVE",
"347 297 CURVE SMOOTH",
"892 297 LINE",
"892 540 OFFCURVE",
"714 650 OFFCURVE",
"460 650 CURVE SMOOTH",
"211 650 OFFCURVE",
"10 537 OFFCURVE",
"10 310 CURVE SMOOTH",
"10 83 OFFCURVE",
"210 -30 OFFCURVE",
"460 -30 CURVE SMOOTH",
"480 -30 OFFCURVE",
"501 -29 OFFCURVE",
"521 -27 CURVE",
"540 10 LINE",
"487 -22 OFFCURVE",
"449 -95 OFFCURVE",
"449 -144 CURVE SMOOTH",
"449 -245 OFFCURVE",
"530 -308 OFFCURVE",
"693 -308 CURVE SMOOTH"
);
},
{
closed = 1;
nodes = (
"347 326 OFFCURVE",
"347 326 OFFCURVE",
"347 328 CURVE SMOOTH",
"347 372 OFFCURVE",
"394 397 OFFCURVE",
"460 397 CURVE SMOOTH",
"525 397 OFFCURVE",
"572 372 OFFCURVE",
"572 328 CURVE SMOOTH",
"572 327 OFFCURVE",
"572 326 OFFCURVE",
"571 326 CURVE SMOOTH",
"348 326 LINE SMOOTH"
);
}
);
width = 900;
}
);
leftKerningGroup = o;
leftMetricsKey = e;
rightKerningGroup = e;
rightMetricsKey = e;
unicode = 0119;
},
{
color = 6;
glyphname = schwa;
lastChange = "2021-04-02 09:45:05 +0000";
layers = (
{
anchors = (
{
name = bottom;
position = "{452, 0}";
},
{
name = ogonek;
position = "{90, 10}";
},
{
name = top;
position = "{452, 620}";
}
);
layerId = "F6D8640C-383C-48A8-B63C-DDE9F10207CE";
paths = (
{
closed = 1;
nodes = (
"506 387 OFFCURVE",
"553 360 OFFCURVE",
"554 324 CURVE SMOOTH",
"554 323 OFFCURVE",
"554 323 OFFCURVE",
"553 323 CURVE SMOOTH",
"8 323 LINE SMOOTH",
"8 87 OFFCURVE",
"194 -30 OFFCURVE",
"440 -30 CURVE SMOOTH",
"689 -30 OFFCURVE",
"890 83 OFFCURVE",
"890 310 CURVE SMOOTH",
"890 537 OFFCURVE",
"690 650 OFFCURVE",
"440 650 CURVE SMOOTH",
"245 650 OFFCURVE",
"52 551 OFFCURVE",
"17 424 CURVE",
"326 323 LINE",
"328 362 OFFCURVE",
"373 387 OFFCURVE",
"438 387 CURVE SMOOTH"
);
},
{
closed = 1;
nodes = (
"381 230 OFFCURVE",
"328 253 OFFCURVE",
"328 292 CURVE SMOOTH",
"328 293 OFFCURVE",
"328 294 OFFCURVE",
"329 294 CURVE SMOOTH",
"552 294 LINE SMOOTH",
"553 294 OFFCURVE",
"553 294 OFFCURVE",
"553 292 CURVE SMOOTH",
"553 253 OFFCURVE",
"500 230 OFFCURVE",
"440 230 CURVE SMOOTH"
);
}
);
width = 900;
},
{
anchors = (
{
name = bottom;
position = "{446, 0}";
},
{
name = ogonek;
position = "{89, 610}";
},
{
name = top;
position = "{446, 620}";
}
);
layerId = "96858A69-C8A6-410B-90BB-94EA0DA45935";
paths = (
{
closed = 1;
nodes = (
"496 527 OFFCURVE",
"603 472 OFFCURVE",
"607 388 CURVE SMOOTH",
"608 365 OFFCURVE",
"608 309 OFFCURVE",
"510 309 CURVE SMOOTH",
"110 309 LINE",
"114 232 OFFCURVE",
"190 85 OFFCURVE",
"444 85 CURVE SMOOTH",
"622 85 OFFCURVE",
"814 132 OFFCURVE",
"770 258 CURVE SMOOTH",
"726 382 OFFCURVE",
"610 535 OFFCURVE",
"430 535 CURVE SMOOTH",
"331 535 OFFCURVE",
"262 492 OFFCURVE",
"235 474 CURVE",
"240 469 LINE",
"278 494 OFFCURVE",
"338 527 OFFCURVE",
"426 527 CURVE SMOOTH"
);
},
{
closed = 1;
nodes = (
"266 92 OFFCURVE",
"253 210 OFFCURVE",
"252 242 CURVE SMOOTH",
"250 276 OFFCURVE",
"272 309 OFFCURVE",
"286 309 CURVE SMOOTH",
"509 309 LINE SMOOTH",
"523 309 OFFCURVE",
"630 301 OFFCURVE",
"635 222 CURVE SMOOTH",
"639 135 OFFCURVE",
"572 92 OFFCURVE",
"460 92 CURVE SMOOTH"
);
}
);
width = 893;
}
);
leftKerningGroup = o;
rightKerningGroup = o;
unicode = 0259;
},
